<?xml version="1.0" encoding="UTF-8" standalone="no"?>
<!-- Created with Inkscape (http://www.inkscape.org/) -->

<svg
   xmlns:dc="http://purl.org/dc/elements/1.1/"
   xmlns:cc="http://creativecommons.org/ns#"
   xmlns:rdf="http://www.w3.org/1999/02/22-rdf-syntax-ns#"
   xmlns:svg="http://www.w3.org/2000/svg"
   xmlns="http://www.w3.org/2000/svg"
   xmlns:sodipodi="http://sodipodi.sourceforge.net/DTD/sodipodi-0.dtd"
   xmlns:inkscape="http://www.inkscape.org/namespaces/inkscape"
   version="1.1"
   id="svg2"
   xml:space="preserve"
   width="328.82281"
   height="249.45213"
   viewBox="0 0 328.82282 249.45213"
   sodipodi:docname="rasmussen-space-possibilities-pathized.svg"
   inkscape:version="0.92.4 (5da689c313, 2019-01-14)"><metadata
     id="metadata8"><rdf:RDF><cc:Work
         rdf:about=""><dc:format>image/svg+xml</dc:format><dc:type
           rdf:resource="http://purl.org/dc/dcmitype/StillImage" /><dc:title></dc:title></cc:Work></rdf:RDF></metadata><defs
     id="defs6"><clipPath
       clipPathUnits="userSpaceOnUse"
       id="clipPath40"><path
         d="M 0,0 H 79.3321 V 41.655145 H 0 Z"
         id="path38"
         inkscape:connector-curvature="0" /></clipPath><clipPath
       clipPathUnits="userSpaceOnUse"
       id="clipPath150"><path
         d="m -119.0565,-85.04042 v 187.0891 h 246.61712 v -187.0891 z"
         id="path148"
         inkscape:connector-curvature="0" /></clipPath><clipPath
       clipPathUnits="userSpaceOnUse"
       id="clipPath664"><path
         d="m -119.0565,-85.04042 v 187.0891 h 246.61712 v -187.0891 z"
         id="path662"
         inkscape:connector-curvature="0" /></clipPath></defs><sodipodi:namedview
     pagecolor="#ffffff"
     bordercolor="#666666"
     borderopacity="1"
     objecttolerance="10"
     gridtolerance="10"
     guidetolerance="10"
     inkscape:pageopacity="0"
     inkscape:pageshadow="2"
     inkscape:window-width="1920"
     inkscape:window-height="1016"
     id="namedview4"
     showgrid="false"
     fit-margin-top="0"
     fit-margin-left="0"
     fit-margin-right="0"
     fit-margin-bottom="0"
     inkscape:zoom="1.2488314"
     inkscape:cx="-165.90064"
     inkscape:cy="54.098223"
     inkscape:window-x="0"
     inkscape:window-y="27"
     inkscape:window-maximized="1"
     inkscape:current-layer="g146" /><g
     id="g10"
     inkscape:groupmode="layer"
     inkscape:label="fig"
     transform="matrix(1.3333333,0,0,-1.3333333,-51.779332,305.55423)"><g
       id="g16"
       transform="translate(0,283.465)"><g
         id="g128"
         transform="translate(0,-283.465)"><g
           id="g134"
           transform="translate(157.891,127.117)"><g
             id="g136"><g
               id="g138" /><g
               id="g140" /><g
               id="g142"><g
                 id="g144"><g
                   id="g146"
                   clip-path="url(#clipPath150)"><g
                     id="g152"><path
                       d="M 141.73404,-39.68535 C 95.68143,40.0803 31.17836,69.04681 -59.52846,85.04042"
                       style="fill:none;stroke:#a68c5e;stroke-width:1.59404004;stroke-linecap:butt;stroke-linejoin:miter;stroke-miterlimit:10;stroke-dasharray:none;stroke-opacity:1"
                       id="path154"
                       inkscape:connector-curvature="0" /><g
                       id="g156"><g
                         id="g158"><path
                           d="m 141.73404,-39.68535 48.93155,69.88378 m -51.81397,-64.99741 47.51453,70.65047 m -50.4883,-65.82337 46.26812,71.7974 m -49.33805,-67.02977 44.77783,72.68743 M 129.639,-20.49997 172.89113,53.14116 M 126.37059,-15.86586 167.863,58.45088 m -44.86312,-69.7561 39.89761,75.41861 M 119.52634,-6.82419 157.60925,69.40335 M 115.94716,-2.42552 152.19078,74.68822 M 112.26186,1.88531 146.6423,79.96721 M 108.47012,6.10349 140.80214,84.8538 m -36.22789,-74.63188 30.28111,79.49776 m -34.2837,-75.48013 28.29826,80.54753 m -32.40498,-76.6366 26.1538,81.24994 M 92.25711,21.94975 116.25095,103.92921 M 87.94867,25.6354 109.6636,107.96391 m -26.1205,-78.76014 19.551,83.1034 M 79.04138,32.65408 96.33424,116.14485 M 74.45047,35.9819 89.5088,119.87392 M 69.77194,39.1877 82.62396,123.4941 M 65.01064,42.27046 75.68669,126.99683 M 60.1717,45.2298 l 8.4952,84.77609 m -13.40613,-81.94 6.37285,84.8416 M 50.2807,50.7811 l 4.33415,85.27116 m -9.37713,-82.67578 2.32182,85.00859 m -7.42419,-82.53001 0.3883,85.10204 m -5.5432,-82.73858 -1.47488,85.19823 m -3.72844,-82.94632 -3.25868,84.99211 m -1.99216,-82.8468 -4.98001,85.0972 m -0.31067,-83.0562 -6.61327,84.91832 M 13.90639,66.59843 5.74278,151.35649 M 8.54335,68.44455 -1.09647,153.0554 M 3.15154,70.19876 -7.89108,154.6738 M -2.26753,71.86597 -14.6395,156.2165 m 6.92723,-82.7657 -13.59433,84.01821 m 8.1256,-82.51121 -14.78131,83.92002 m 9.2939,-82.48752 -15.86549,83.63208 m 10.36123,-82.26976 -16.88341,83.36789 m 11.364,-82.07167 -17.87727,83.3039 M -35.2287,80.2838 -54.00394,163.35796 m 13.22701,-81.89762 -19.61347,82.8637 M -46.33504,82.5821 -66.73106,165.25412 M -51.90521,83.6533 -73.0335,166.14853"
                           style="fill:none;stroke:#a68c5e;stroke-width:0.49814001;stroke-linecap:butt;stroke-linejoin:miter;stroke-miterlimit:10;stroke-dasharray:none;stroke-opacity:0.5"
                           id="path160"
                           inkscape:connector-curvature="0" /></g></g></g><g
                     id="g162"
                     transform="translate(-5.0959331)"><g
                       id="g164"
                       transform="matrix(1.3464658,0,0,1,-20.079827,0)"><path
                         d="m 57.95615,65.06721 h 54.16853 v 11.5996 H 57.95615 Z"
                         style="fill:#ffffff;fill-opacity:0.8;fill-rule:nonzero;stroke:none"
                         id="path166"
                         inkscape:connector-curvature="0" /></g><g
                       id="g168"
                       transform="translate(61.276,68.478)"><g
                         id="g170"><g
                           id="g172"
                           transform="translate(-219.167,-195.595)"><g
   aria-label="economic failure"
   transform="matrix(1,0,0,-1,219.167,195.595)"
   style="font-variant:normal;font-weight:normal;font-size:6.97384977px;font-family:LinLibertineO;-inkscape-font-specification:LinLibertineO;writing-mode:lr-tb;fill:#000000;fill-opacity:0.8;fill-rule:nonzero;stroke:none"
   id="text176"><path
     d="m 1.24,-2.82 c 0.19,-1.13 0.89,-1.22 1.13,-1.22 0.38,0 0.83,0.21 0.83,1.05 0,0.09 -0.04,0.14 -0.15,0.14 z m 2.62,1.89 C 3.49,-0.55 3.2,-0.39 2.62,-0.39 2.26,-0.39 1.84,-0.6 1.53,-1.11 1.33,-1.44 1.21,-1.9 1.21,-2.48 l 2.66,0.02 c 0.12,0 0.19,-0.06 0.19,-0.17 0,-0.84 -0.3,-1.74 -1.69,-1.74 -0.87,0 -2,0.83 -2,2.35 0,0.56 0.14,1.1 0.47,1.48 0.34,0.4 0.81,0.64 1.53,0.64 0.76,0 1.3,-0.35 1.7,-0.87 -0.03,-0.1 -0.09,-0.15 -0.21,-0.16 z"
     style="font-style:normal;font-variant:normal;font-weight:normal;font-stretch:normal;font-size:10px;font-family:'Linux Libertine O';-inkscape-font-specification:'Linux Libertine O'"
     id="path962" /><path
     d="m 8.5307813,-0.91 c -0.04,-0.09 -0.12,-0.13 -0.21,-0.14 -0.3400001,0.44 -0.7700001,0.66 -1.2000001,0.66 -0.73,0 -1.3399999,-0.74 -1.3399999,-1.91 0,-1.1 0.4799999,-1.76 1.1399999,-1.76 0.59,0 0.67,0.35 0.71,0.7 0.03,0.27 0.17,0.36 0.3800001,0.36 0.21,0 0.4899999,-0.13 0.4899999,-0.44 0,-0.55 -0.5699999,-0.95 -1.53,-0.95 -0.99,0 -2.05,0.89 -2.05,2.31 0,1.29 0.72,2.18 1.98,2.18 0.6,0 1.1300001,-0.19 1.6300001,-1.01 z"
     style="font-style:normal;font-variant:normal;font-weight:normal;font-stretch:normal;font-size:10px;font-family:'Linux Libertine O';-inkscape-font-specification:'Linux Libertine O'"
     id="path964" /><path
     d="m 9.238125,-2.05 c 0,1.02 0.68,2.15 2.1,2.15 0.64,0 1.12,-0.22 1.46,-0.56 0.45,-0.43 0.66,-1.06 0.66,-1.68 0,-1.04 -0.57,-2.25 -2.1,-2.25 -0.66,0 -1.21,0.27 -1.57,0.7 -0.36,0.43 -0.55,1.01 -0.55,1.64 z m 1.97,-1.99 c 0.86,0 1.39,0.78 1.39,2.22 0,1.26 -0.65,1.57 -1.12,1.57 -1.04,0 -1.38,-1.26 -1.38,-2.03 0,-0.87 0.21,-1.76 1.11,-1.76 z"
     style="font-style:normal;font-variant:normal;font-weight:normal;font-stretch:normal;font-size:10px;font-family:'Linux Libertine O';-inkscape-font-specification:'Linux Libertine O'"
     id="path966" /><path
     d="m 15.707188,-3.58 c -0.07,0.07 -0.12,0.1 -0.12,0 -0.01,-0.27 -0.04,-0.65 -0.08,-0.76 -0.03,-0.04 -0.04,-0.08 -0.12,-0.08 -0.28,0.11 -0.54,0.2 -1.230001,0.29 -0.02,0.06 0,0.22 0.02,0.28 0.54,0.05 0.65,0.1 0.65,0.68 v 1.95 c 0,0.82 -0.100001,0.86 -0.7,0.91 -0.06,0.06 -0.06,0.27 0,0.33 0.3,-0.01 0.7,-0.02 1.099999,-0.02 0.400001,0 0.700001,0.01 1,0.02 0.06,-0.06 0.06,-0.27 0,-0.33 -0.509999,-0.05 -0.609999,-0.09 -0.609999,-0.91 v -1.64 c 0,-0.21 0.09,-0.33 0.17,-0.42 0.379999,-0.37 0.829999,-0.59 1.219999,-0.59 0.2,0 0.41,0.13 0.530001,0.36 0.1,0.2 0.119999,0.47 0.119999,0.77 v 1.52 c 0,0.82 -0.1,0.86 -0.619999,0.91 -0.05,0.06 -0.05,0.27 0,0.33 C 17.337187,0.01 17.657187,0 18.057187,0 c 0.4,0 0.76,0.01 1.06,0.02 0.05,-0.06 0.05,-0.27 0,-0.33 -0.559999,-0.05 -0.67,-0.09 -0.67,-0.91 v -1.49 c 0,-0.55 -0.04,-1.03 -0.27,-1.34 -0.17,-0.22 -0.48,-0.34 -0.83,-0.34 -0.49,0 -1.05,0.13 -1.639999,0.81 z"
     style="font-style:normal;font-variant:normal;font-weight:normal;font-stretch:normal;font-size:10px;font-family:'Linux Libertine O';-inkscape-font-specification:'Linux Libertine O'"
     id="path968" /><path
     d="m 19.706875,-2.05 c 0,1.02 0.68,2.15 2.1,2.15 0.64,0 1.12,-0.22 1.46,-0.56 0.45,-0.43 0.66,-1.06 0.66,-1.68 0,-1.04 -0.57,-2.25 -2.1,-2.25 -0.66,0 -1.21,0.27 -1.57,0.7 -0.36,0.43 -0.55,1.01 -0.55,1.64 z m 1.97,-1.99 c 0.86,0 1.39,0.78 1.39,2.22 0,1.26 -0.65,1.57 -1.12,1.57 -1.04,0 -1.38,-1.26 -1.38,-2.03 0,-0.87 0.21,-1.76 1.11,-1.76 z"
     style="font-style:normal;font-variant:normal;font-weight:normal;font-stretch:normal;font-size:10px;font-family:'Linux Libertine O';-inkscape-font-specification:'Linux Libertine O'"
     id="path970" /><path
     d="m 26.035937,-3.58 c -0.02,-0.29 -0.04,-0.65 -0.08,-0.76 -0.03,-0.04 -0.04,-0.08 -0.12,-0.08 -0.28,0.11 -0.54,0.2 -1.23,0.29 -0.02,0.06 0,0.22 0.02,0.28 0.54,0.05 0.650001,0.1 0.650001,0.68 v 1.95 c 0,0.82 -0.130001,0.87 -0.68,0.91 -0.06,0.06 -0.06,0.27 0,0.33 0.299999,-0.01 0.68,-0.02 1.079999,-0.02 0.400001,0 0.7,0.01 1,0.02 0.06,-0.06 0.06,-0.27 0,-0.33 -0.5,-0.05 -0.61,-0.09 -0.61,-0.91 v -1.64 c 0,-0.21 0.09,-0.33 0.17,-0.42 0.39,-0.38 0.770001,-0.59 1.08,-0.59 0.38,0 0.66,0.24 0.66,0.91 v 1.74 c 0,0.82 -0.08,0.87 -0.62,0.91 -0.05,0.06 -0.05,0.27 0,0.33 0.25,-0.01 0.62,-0.02 1.02,-0.02 0.400001,0 0.73,0.01 0.98,0.02 0.05,-0.06 0.05,-0.27 0,-0.33 -0.5,-0.04 -0.59,-0.09 -0.59,-0.91 v -1.59 c 0,-0.14 0,-0.28 -0.01,-0.4 0.479999,-0.53 0.93,-0.66 1.32,-0.66 0.379999,0 0.599999,0.22 0.599999,0.89 v 1.76 c 0,0.82 -0.1,0.87 -0.62,0.91 -0.05,0.06 -0.05,0.27 0,0.33 0.25,-0.01 0.62,-0.02 1.020001,-0.02 0.399999,0 0.75,0.01 1.03,0.02 0.05,-0.06 0.05,-0.27 0,-0.33 -0.550001,-0.04 -0.640001,-0.09 -0.640001,-0.91 V -2.8 c 0,-0.89 -0.15,-1.59 -1.029999,-1.59 -0.520001,0 -1.130001,0.19 -1.650001,0.74 -0.03,0.03 -0.09,0.08 -0.11,0 -0.1,-0.41 -0.48,-0.74 -1,-0.74 -0.579999,0 -1.11,0.35 -1.52,0.81 -0.05,0.06 -0.12,0.12 -0.12,0 z"
     style="font-style:normal;font-variant:normal;font-weight:normal;font-stretch:normal;font-size:10px;font-family:'Linux Libertine O';-inkscape-font-specification:'Linux Libertine O'"
     id="path972" /><path
     d="m 33.126562,-5.99 c 0,0.26 0.24,0.52 0.480001,0.52 0.279999,0 0.519999,-0.26 0.519999,-0.48 0,-0.24 -0.21,-0.52 -0.479999,-0.52 -0.240001,0 -0.520001,0.24 -0.520001,0.48 z m 0.910001,4.77 v -1.99 c 0,-0.5 0.04,-1.14 0.04,-1.14 0,-0.04 -0.05,-0.07 -0.130001,-0.07 -0.29,0.11 -0.68,0.2 -1.369999,0.29 -0.02,0.06 0,0.22 0.02,0.28 0.54,0.06 0.650001,0.11 0.650001,0.68 v 1.95 c 0,0.83 -0.110001,0.86 -0.720001,0.91 -0.06,0.06 -0.06,0.27 0,0.33 C 32.856563,0.01 33.246563,0 33.646563,0 c 0.399999,0 0.78,0.01 1.109999,0.02 0.06,-0.06 0.06,-0.27 0,-0.33 -0.609999,-0.04 -0.719999,-0.08 -0.719999,-0.91 z"
     style="font-style:normal;font-variant:normal;font-weight:normal;font-stretch:normal;font-size:10px;font-family:'Linux Libertine O';-inkscape-font-specification:'Linux Libertine O'"
     id="path974" /><path
     d="m 38.921406,-0.91 c -0.04,-0.09 -0.12,-0.13 -0.21,-0.14 -0.34,0.44 -0.77,0.66 -1.2,0.66 -0.73,0 -1.34,-0.74 -1.34,-1.91 0,-1.1 0.48,-1.76 1.14,-1.76 0.59,0 0.67,0.35 0.71,0.7 0.03,0.27 0.17,0.36 0.38,0.36 0.21,0 0.49,-0.13 0.49,-0.44 0,-0.55 -0.57,-0.95 -1.53,-0.95 -0.99,0 -2.05,0.89 -2.05,2.31 0,1.29 0.72,2.18 1.98,2.18 0.6,0 1.13,-0.19 1.63,-1.01 z"
     style="font-style:normal;font-variant:normal;font-weight:normal;font-stretch:normal;font-size:10px;font-family:'Linux Libertine O';-inkscape-font-specification:'Linux Libertine O'"
     id="path976" /><path
     d="M 43.46875,-1.22 V -3.9 h 0.93 c 0.09,0 0.23,-0.04 0.23,-0.13 v -0.2 c 0,-0.04 -0.03,-0.06 -0.08,-0.06 h -1.08 v -0.57 c 0,-1.54 0.46,-1.78 0.79,-1.78 0.3,0 0.46,0.12 0.6,0.47 0.08,0.18 0.19,0.32 0.4,0.32 0.17,0 0.41,-0.21 0.41,-0.41 0,-0.17 -0.11,-0.35 -0.32,-0.51 -0.26,-0.18 -0.52,-0.21 -0.9,-0.21 -0.84,0 -1.77,0.73 -1.77,2.29 v 0.4 h -0.51 c -0.18,0 -0.23,0.12 -0.23,0.2 v 0.13 c 0,0.05 0.01,0.06 0.05,0.06 h 0.69 v 2.68 c 0,0.83 -0.16,0.87 -0.7,0.91 -0.06,0.06 -0.06,0.27 0,0.33 0.35,-0.01 0.7,-0.02 1.1,-0.02 0.4,0 0.88,0.01 1.23,0.02 0.06,-0.06 0.06,-0.27 0,-0.33 -0.78,-0.04 -0.84,-0.08 -0.84,-0.91 z"
     style="font-style:normal;font-variant:normal;font-weight:normal;font-stretch:normal;font-size:10px;font-family:'Linux Libertine O';-inkscape-font-specification:'Linux Libertine O'"
     id="path978" /><path
     d="m 47.754219,-2.33 v 1.32 c 0,0.13 -0.06,0.2 -0.14,0.26 -0.26,0.21 -0.6,0.44 -0.88,0.44 -0.5,0 -0.72,-0.4 -0.72,-0.71 0,-0.45 0.21,-0.91 0.95,-1.1 z m 0,1.85 c 0.06,0.31 0.16,0.58 0.67,0.58 0.38,0 0.74,-0.17 0.95,-0.37 -0.02,-0.12 -0.06,-0.2 -0.17,-0.27 -0.08,0.07 -0.25,0.16 -0.37,0.16 -0.29,0 -0.3,-0.39 -0.3,-0.85 V -2.7 c 0,-1.42 -0.78,-1.69 -1.51,-1.69 -0.82,0 -1.65,0.54 -1.65,1.11 0,0.24 0.12,0.36 0.35,0.36 0.29,0 0.47,-0.21 0.47,-0.34 0,-0.07 -0.01,-0.14 -0.03,-0.18 -0.01,-0.03 -0.02,-0.09 -0.02,-0.2 0,-0.31 0.42,-0.42 0.8,-0.42 0.34,0 0.81,0.17 0.81,1.3 0,0.07 -0.03,0.11 -0.06,0.12 l -0.86,0.21 c -0.96,0.24 -1.65,0.77 -1.65,1.45 0,0.82 0.56,1.08 1.26,1.08 0.34,0 0.65,-0.08 1.09,-0.42 l 0.2,-0.16 z"
     style="font-style:normal;font-variant:normal;font-weight:normal;font-stretch:normal;font-size:10px;font-family:'Linux Libertine O';-inkscape-font-specification:'Linux Libertine O'"
     id="path980" /><path
     d="m 50.294531,-5.99 c 0,0.26 0.24,0.52 0.48,0.52 0.28,0 0.52,-0.26 0.52,-0.48 0,-0.24 -0.21,-0.52 -0.48,-0.52 -0.24,0 -0.52,0.24 -0.52,0.48 z m 0.91,4.77 v -1.99 c 0,-0.5 0.04,-1.14 0.04,-1.14 0,-0.04 -0.05,-0.07 -0.13,-0.07 -0.29,0.11 -0.68,0.2 -1.37,0.29 -0.02,0.06 0,0.22 0.02,0.28 0.54,0.06 0.65,0.11 0.65,0.68 v 1.95 c 0,0.83 -0.11,0.86 -0.72,0.91 -0.06,0.06 -0.06,0.27 0,0.33 0.33,-0.01 0.72,-0.02 1.12,-0.02 0.4,0 0.78,0.01 1.11,0.02 0.06,-0.06 0.06,-0.27 0,-0.33 -0.61,-0.04 -0.72,-0.08 -0.72,-0.91 z"
     style="font-style:normal;font-variant:normal;font-weight:normal;font-stretch:normal;font-size:10px;font-family:'Linux Libertine O';-inkscape-font-specification:'Linux Libertine O'"
     id="path982" /><path
     d="m 53.059375,-1.22 c 0,0.83 -0.11,0.88 -0.72,0.91 -0.06,0.06 -0.06,0.27 0,0.33 0.35,-0.01 0.72,-0.02 1.12,-0.02 0.4,0 0.78,0.01 1.11,0.02 0.06,-0.06 0.06,-0.27 0,-0.33 -0.61,-0.03 -0.72,-0.08 -0.72,-0.91 v -4.61 c 0,-0.65 0.04,-1.05 0.04,-1.05 0,-0.07 -0.04,-0.1 -0.13,-0.1 -0.25,0.1 -1,0.24 -1.4,0.27 -0.02,0.08 0,0.24 0.06,0.3 0.58,0.04 0.64,0.07 0.64,0.82 z"
     style="font-style:normal;font-variant:normal;font-weight:normal;font-stretch:normal;font-size:10px;font-family:'Linux Libertine O';-inkscape-font-specification:'Linux Libertine O'"
     id="path984" /><path
     d="m 56.916094,0.1 c 0.39,0 0.86,-0.2 1.35,-0.6 0.05,-0.04 0.14,-0.06 0.15,0.01 0.02,0.26 0.11,0.59 0.11,0.59 0.08,0.03 0.12,0.03 0.19,0 0.22,-0.18 0.57,-0.33 1.18,-0.4 0.06,-0.06 0.06,-0.21 0,-0.27 -0.64,-0.05 -0.73,-0.24 -0.73,-0.73 v -1.92 c 0,-0.3 0.04,-1.03 0.04,-1.03 0,-0.03 -0.03,-0.06 -0.08,-0.06 -0.05,0.01 -0.2,0.02 -0.35,0.02 -0.32,0 -0.68,-0.01 -1.02,-0.02 -0.06,0.06 -0.06,0.27 0,0.33 0.49,0.03 0.62,0.15 0.62,0.81 v 1.93 c 0,0.19 -0.02,0.27 -0.16,0.39 -0.37,0.32 -0.75,0.48 -1,0.48 -0.3,0 -0.8,-0.14 -0.8,-1.03 v -1.82 c 0,-0.3 0.04,-1.03 0.04,-1.03 0,-0.03 -0.03,-0.06 -0.08,-0.06 -0.05,0.01 -0.2,0.02 -0.35,0.02 -0.32,0 -0.68,-0.01 -1.02,-0.02 -0.06,0.06 -0.06,0.27 0,0.33 0.48,0.04 0.62,0.15 0.62,0.8 v 1.92 c 0,0.69 0.3,1.36 1.29,1.36 z"
     style="font-style:normal;font-variant:normal;font-weight:normal;font-stretch:normal;font-size:10px;font-family:'Linux Libertine O';-inkscape-font-specification:'Linux Libertine O'"
     id="path986" /><path
     d="m 61.818594,-3.58 c -0.02,-0.4 -0.04,-0.65 -0.08,-0.76 -0.03,-0.04 -0.04,-0.08 -0.12,-0.08 -0.28,0.11 -0.54,0.2 -1.23,0.29 -0.02,0.06 0,0.22 0.02,0.28 0.54,0.05 0.65,0.1 0.65,0.68 v 1.95 c 0,0.83 -0.12,0.87 -0.74,0.91 -0.06,0.06 -0.06,0.27 0,0.33 0.35,-0.01 0.74,-0.02 1.14,-0.02 0.4,0 0.86,0.01 1.21,0.02 0.06,-0.06 0.06,-0.27 0,-0.33 -0.7,-0.05 -0.82,-0.08 -0.82,-0.91 v -1.39 c 0,-0.26 0.12,-0.49 0.24,-0.67 0.11,-0.16 0.34,-0.49 0.46,-0.49 0.09,0 0.18,0.03 0.25,0.13 0.08,0.1 0.19,0.23 0.37,0.23 0.24,0 0.47,-0.25 0.47,-0.5 0,-0.19 -0.18,-0.48 -0.6,-0.48 -0.47,0 -0.88,0.44 -1.11,0.83 -0.06,0.11 -0.11,0.03 -0.11,-0.02 z"
     style="font-style:normal;font-variant:normal;font-weight:normal;font-stretch:normal;font-size:10px;font-family:'Linux Libertine O';-inkscape-font-specification:'Linux Libertine O'"
     id="path988" /><path
     d="m 64.931406,-2.82 c 0.19,-1.13 0.89,-1.22 1.13,-1.22 0.38,0 0.83,0.21 0.83,1.05 0,0.09 -0.04,0.14 -0.15,0.14 z m 2.62,1.89 c -0.37,0.38 -0.66,0.54 -1.24,0.54 -0.36,0 -0.78,-0.21 -1.09,-0.72 -0.2,-0.33 -0.32,-0.79 -0.32,-1.37 l 2.66,0.02 c 0.12,0 0.19,-0.06 0.19,-0.17 0,-0.84 -0.3,-1.74 -1.69,-1.74 -0.87,0 -2,0.83 -2,2.35 0,0.56 0.14,1.1 0.47,1.48 0.34,0.4 0.81,0.64 1.53,0.64 0.76,0 1.3,-0.35 1.7,-0.87 -0.03,-0.1 -0.09,-0.15 -0.21,-0.16 z"
     style="font-style:normal;font-variant:normal;font-weight:normal;font-stretch:normal;font-size:10px;font-family:'Linux Libertine O';-inkscape-font-specification:'Linux Libertine O'"
     id="path990" /></g>
<g
   id="g178"
   transform="translate(219.167,195.595)" /></g></g><g
                         id="g180"
                         transform="translate(-61.276,-68.478)" /></g></g><g
                     id="g182"><path
                       d="M -56.69362,-85.04042 C 35.217,-60.41304 101.52032,-29.54437 141.73404,56.69362"
                       style="fill:none;stroke:#645d43;stroke-width:1.59404004;stroke-linecap:butt;stroke-linejoin:miter;stroke-miterlimit:10;stroke-dasharray:none;stroke-opacity:1"
                       id="path184"
                       inkscape:connector-curvature="0" /><g
                       id="g186"><g
                         id="g188"><path
                           d="m -56.69362,-85.04042 54.76911,-65.2733 m -49.2965,66.75578 55.0793,-64.90384 m -49.61445,66.41852 55.42849,-64.51051 m -49.97328,66.06042 55.97065,-64.25767 m -50.52697,65.84593 56.41707,-63.81183 m -50.98674,65.44172 56.9113,-63.33654 m -51.49243,65.01273 57.45628,-62.83187 m -52.05481,64.55672 58.05905,-62.2945 m -52.67306,64.07309 58.72076,-61.72392 m -53.35623,63.55898 59.44377,-61.11902 m -54.09898,63.01594 60.04356,-60.28668 m -54.7207,62.24991 60.89583,-59.60577 m -55.6007,61.63843 61.617,-58.68676 m -56.35163,60.79353 62.61429,-57.9239 m -57.38088,60.10963 63.47084,-56.91453 m -58.2714,59.18426 64.39314,-55.85879 m -59.23325,58.21617 65.38991,-54.75398 m -60.27487,57.20265 66.20041,-53.39098 m -61.1321,55.93625 67.34386,-52.18628 m -62.32735,54.83193 68.28665,-50.72006 m -63.32679,53.46971 69.59242,-49.4182 m -64.69388,52.27548 70.6783,-47.85663 m -65.84558,50.82498 71.51684,-46.041 m -66.75715,49.12183 72.74737,-44.39052 m -68.06454,47.58672 73.70579,-42.50035 m -69.10347,45.81471 75.08585,-40.77441 M 77.41624,-26.209 153.23051,-64.84258 m -71.39111,42.18461 76.96752,-36.6669 m -72.64222,40.3352 77.8067,-34.50877 M 90.38734,-15.20566 169.0859,-47.56181 M 94.50552,-11.3057 174.16087,-41.5133 M 98.51253,-7.2952 178.9087,-35.26886 M 102.40735,-3.17534 183.85342,-29.0129 M 106.18918,1.05222 187.93172,-22.43356 M 109.85265,5.3796 192.33838,-15.9141 M 113.40002,9.80652 196.66803,-9.32982 M 116.82674,14.32336 200.50577,-2.60251 M 120.13548,18.92871 204.25641,4.15323 M 123.3268,23.61768 207.52292,10.99915 M 126.40135,28.38486 211.0855,17.79933 m -81.72547,15.42488 84.80679,-8.56105 m -81.96298,13.46607 84.95122,-6.61097 m -82.21713,11.5819 85.11291,-4.72866 m -82.48753,9.75834 85.28334,-2.91101"
                           style="fill:none;stroke:#645d43;stroke-width:0.49814001;stroke-linecap:butt;stroke-linejoin:miter;stroke-miterlimit:10;stroke-dasharray:none;stroke-opacity:0.5"
                           id="path190"
                           inkscape:connector-curvature="0" /></g></g></g><g
                     id="g192"><g
                       id="g194"><path
                         d="m 57.062461,-67.425 h 55.955909 v 21.46278 H 57.062461 Z"
                         style="fill:#ffffff;fill-opacity:0.8;fill-rule:nonzero;stroke:none;stroke-width:1.06686914"
                         id="path196"
                         inkscape:connector-curvature="0" /></g><g
                       id="g198"
                       transform="translate(63.78,-54.15)"><g
                         id="g200"
                         transform="translate(2.678)"><g
                           id="g202"
                           transform="translate(-224.349,-72.967)"><g
   aria-label="unacceptable
workload"
   transform="matrix(1,0,0,-1,224.349,72.967)"
   style="font-variant:normal;font-weight:normal;font-size:6.97384977px;font-family:LinLibertineO;-inkscape-font-specification:LinLibertineO;writing-mode:lr-tb;fill:#000000;fill-opacity:0.8;fill-rule:nonzero;stroke:none"
   id="text206"><path
     d="m -6.0578767,0.1 c 0.39,0 0.86,-0.2 1.35,-0.6 0.05,-0.04 0.14,-0.06 0.15,0.01 0.02,0.26 0.11,0.59 0.11,0.59 0.08,0.03 0.12,0.03 0.19,0 0.22,-0.18 0.57,-0.33 1.18,-0.4 0.06,-0.06 0.06,-0.21 0,-0.27 -0.64,-0.05 -0.73,-0.24 -0.73,-0.73 v -1.92 c 0,-0.3 0.04,-1.03 0.04,-1.03 0,-0.03 -0.03,-0.06 -0.08,-0.06 -0.05,0.01 -0.2,0.02 -0.35,0.02 -0.32,0 -0.68,-0.01 -1.02,-0.02 -0.06,0.06 -0.06,0.27 0,0.33 0.49,0.03 0.62,0.15 0.62,0.81 v 1.93 c 0,0.19 -0.02,0.27 -0.16,0.39 -0.37,0.32 -0.75,0.48 -1,0.48 -0.3,0 -0.8,-0.14 -0.8,-1.03 v -1.82 c 0,-0.3 0.04,-1.03 0.04,-1.03 0,-0.03 -0.03,-0.06 -0.08,-0.06 -0.05,0.01 -0.2,0.02 -0.35,0.02 -0.32,0 -0.68,-0.01 -1.02,-0.02 -0.06,0.06 -0.06,0.27 0,0.33 0.48,0.04 0.62,0.15 0.62,0.8 v 1.92 c 0,0.69 0.3,1.36 1.29,1.36 z"
     style="font-style:normal;font-variant:normal;font-weight:normal;font-stretch:normal;font-size:10px;font-family:'Linux Libertine O', serif;-inkscape-font-specification:'Linux Libertine O, serif';text-align:center;text-anchor:middle"
     id="path993" /><path
     d="m -1.0753767,-3.58 c -0.07,0.07 -0.12,0.1 -0.12,0 -0.01,-0.27 -0.04,-0.65 -0.08,-0.76 -0.03,-0.04 -0.04,-0.08 -0.12,-0.08 -0.28,0.11 -0.54,0.2 -1.23,0.29 -0.02,0.06 0,0.22 0.02,0.28 0.54,0.05 0.65,0.1 0.65,0.68 v 1.95 c 0,0.82 -0.1,0.86 -0.7,0.91 -0.06,0.06 -0.06,0.27 0,0.33 0.3,-0.01 0.7,-0.02 1.1,-0.02 0.4,0 0.70000004,0.01 1.00000004,0.02 0.06,-0.06 0.06,-0.27 0,-0.33 C -1.0653767,-0.36 -1.1653767,-0.4 -1.1653767,-1.22 v -1.64 c 0,-0.21 0.09,-0.33 0.17000004,-0.42 0.38,-0.37 0.83,-0.59 1.22,-0.59 0.2,0 0.41,0.13 0.53,0.36 0.1,0.2 0.12,0.47 0.12,0.77 v 1.52 c 0,0.82 -0.1,0.86 -0.62,0.91 -0.05,0.06 -0.05,0.27 0,0.33 0.3,-0.01 0.62,-0.02 1.01999996,-0.02 0.4,0 0.76,0.01 1.06,0.02 0.05,-0.06 0.05,-0.27 0,-0.33 -0.56,-0.05 -0.67,-0.09 -0.67,-0.91 v -1.49 c 0,-0.55 -0.04,-1.03 -0.27,-1.34 -0.17,-0.22 -0.47999996,-0.34 -0.82999996,-0.34 -0.49,0 -1.05,0.13 -1.64000004,0.81 z"
     style="font-style:normal;font-variant:normal;font-weight:normal;font-stretch:normal;font-size:10px;font-family:'Linux Libertine O', serif;-inkscape-font-specification:'Linux Libertine O, serif';text-align:center;text-anchor:middle"
     id="path995" /><path
     d="m 5.4443108,-2.33 v 1.32 c 0,0.13 -0.06,0.2 -0.14,0.26 -0.26,0.21 -0.6,0.44 -0.88,0.44 -0.5,0 -0.72,-0.4 -0.72,-0.71 0,-0.45 0.21,-0.91 0.95,-1.1 z m 0,1.85 c 0.06,0.31 0.16,0.58 0.67,0.58 0.38,0 0.74,-0.17 0.95,-0.37 -0.02,-0.12 -0.06,-0.2 -0.17,-0.27 -0.08,0.07 -0.25,0.16 -0.37,0.16 -0.29,0 -0.3,-0.39 -0.3,-0.85 V -2.7 c 0,-1.42 -0.78,-1.69 -1.51,-1.69 -0.82,0 -1.65,0.54 -1.65,1.11 0,0.24 0.12,0.36 0.35,0.36 0.29,0 0.47,-0.21 0.47,-0.34 0,-0.07 -0.01,-0.14 -0.03,-0.18 -0.01,-0.03 -0.02,-0.09 -0.02,-0.2 0,-0.31 0.42,-0.42 0.8,-0.42 0.34,0 0.81,0.17 0.81,1.3 0,0.07 -0.03,0.11 -0.06,0.12 l -0.86,0.21 c -0.96,0.24 -1.65,0.77 -1.65,1.45 0,0.82 0.56,1.08 1.26,1.08 0.34,0 0.65,-0.08 1.09,-0.42 l 0.2,-0.16 z"
     style="font-style:normal;font-variant:normal;font-weight:normal;font-stretch:normal;font-size:10px;font-family:'Linux Libertine O', serif;-inkscape-font-specification:'Linux Libertine O, serif';text-align:center;text-anchor:middle"
     id="path997" /><path
     d="m 11.064623,-0.91 c -0.04,-0.09 -0.12,-0.13 -0.21,-0.14 -0.34,0.44 -0.77,0.66 -1.1999997,0.66 -0.73,0 -1.34,-0.74 -1.34,-1.91 0,-1.1 0.48,-1.76 1.14,-1.76 0.5899997,0 0.6699997,0.35 0.7099997,0.7 0.03,0.27 0.17,0.36 0.38,0.36 0.21,0 0.49,-0.13 0.49,-0.44 0,-0.55 -0.57,-0.95 -1.5299997,-0.95 -0.99,0 -2.05,0.89 -2.05,2.31 0,1.29 0.72,2.18 1.98,2.18 0.5999997,0 1.1299997,-0.19 1.6299997,-1.01 z"
     style="font-style:normal;font-variant:normal;font-weight:normal;font-stretch:normal;font-size:10px;font-family:'Linux Libertine O', serif;-inkscape-font-specification:'Linux Libertine O, serif';text-align:center;text-anchor:middle"
     id="path999" /><path
     d="m 15.341967,-0.91 c -0.04,-0.09 -0.12,-0.13 -0.21,-0.14 -0.34,0.44 -0.77,0.66 -1.2,0.66 -0.73,0 -1.34,-0.74 -1.34,-1.91 0,-1.1 0.48,-1.76 1.14,-1.76 0.59,0 0.67,0.35 0.71,0.7 0.03,0.27 0.17,0.36 0.38,0.36 0.21,0 0.49,-0.13 0.49,-0.44 0,-0.55 -0.57,-0.95 -1.53,-0.95 -0.99,0 -2.05,0.89 -2.05,2.31 0,1.29 0.72,2.18 1.98,2.18 0.6,0 1.13,-0.19 1.63,-1.01 z"
     style="font-style:normal;font-variant:normal;font-weight:normal;font-stretch:normal;font-size:10px;font-family:'Linux Libertine O', serif;-inkscape-font-specification:'Linux Libertine O, serif';text-align:center;text-anchor:middle"
     id="path1001" /><path
     d="m 16.879311,-2.82 c 0.19,-1.13 0.89,-1.22 1.13,-1.22 0.38,0 0.83,0.21 0.83,1.05 0,0.09 -0.04,0.14 -0.15,0.14 z m 2.62,1.89 c -0.37,0.38 -0.66,0.54 -1.24,0.54 -0.36,0 -0.78,-0.21 -1.09,-0.72 -0.2,-0.33 -0.32,-0.79 -0.32,-1.37 l 2.66,0.02 c 0.12,0 0.19,-0.06 0.19,-0.17 0,-0.84 -0.3,-1.74 -1.69,-1.74 -0.87,0 -2,0.83 -2,2.35 0,0.56 0.14,1.1 0.47,1.48 0.34,0.4 0.81,0.64 1.53,0.64 0.76,0 1.3,-0.35 1.7,-0.87 -0.03,-0.1 -0.09,-0.15 -0.21,-0.16 z"
     style="font-style:normal;font-variant:normal;font-weight:normal;font-stretch:normal;font-size:10px;font-family:'Linux Libertine O', serif;-inkscape-font-specification:'Linux Libertine O, serif';text-align:center;text-anchor:middle"
     id="path1003" /><path
     d="m 21.861967,-3.31 c 0.26,-0.32 0.71,-0.62 1.01,-0.62 0.64,0 1.19,0.72 1.19,1.85 0,0.82 -0.29,1.84 -1.41,1.84 -0.18,0 -0.53,-0.05 -0.71,-0.21 -0.21,-0.18 -0.24,-0.23 -0.24,-0.6 v -1.82 c 0,-0.21 0.04,-0.29 0.16,-0.44 z m -0.19,-0.37 c -0.02,-0.3 -0.04,-0.55 -0.08,-0.66 -0.03,-0.04 -0.04,-0.08 -0.12,-0.08 -0.28,0.11 -0.54,0.2 -1.23,0.29 -0.02,0.06 0,0.22 0.02,0.28 0.54,0.05 0.65,0.1 0.65,0.68 V 1.1 c 0,0.83 -0.11,0.88 -0.72,0.91 -0.06,0.06 -0.06,0.27 0,0.33 0.35,-0.01 0.72,-0.02 1.12,-0.02 0.4,0 0.88,0.01 1.21,0.02 0.06,-0.06 0.06,-0.27 0,-0.33 -0.71,-0.04 -0.82,-0.08 -0.82,-0.91 V 0.02 c 0,-0.13 0.03,-0.11 0.14,-0.07 0.24,0.1 0.55,0.15 0.87,0.15 0.56,0 1.06,-0.17 1.47,-0.56 0.47,-0.46 0.74,-1.08 0.74,-1.89 0,-1.06 -0.75,-2.04 -1.77,-2.04 -0.47,0 -0.98,0.31 -1.37,0.75 -0.06,0.07 -0.11,0.06 -0.11,-0.04 z"
     style="font-style:normal;font-variant:normal;font-weight:normal;font-stretch:normal;font-size:10px;font-family:'Linux Libertine O', serif;-inkscape-font-specification:'Linux Libertine O, serif';text-align:center;text-anchor:middle"
     id="path1005" /><path
     d="m 25.73728,-4.29 c -0.14,0 -0.18,0.12 -0.18,0.2 v 0.13 c 0,0.05 0.01,0.06 0.05,0.06 h 0.59 v 3.01 c 0,0.71 0.31,0.99 0.77,0.99 0.46,0 0.96,-0.22 1.35,-0.66 -0.02,-0.1 -0.08,-0.16 -0.18,-0.17 -0.26,0.2 -0.56,0.28 -0.82,0.28 -0.27,0 -0.33,-0.3 -0.33,-0.92 V -3.9 h 1.04 c 0.1,0 0.24,-0.04 0.24,-0.13 v -0.2 c 0,-0.04 -0.03,-0.06 -0.08,-0.06 h -1.2 v -0.39 c 0,-0.65 0.04,-1.05 0.04,-1.05 0,-0.06 -0.03,-0.08 -0.08,-0.08 -0.05,0 -0.13,0.04 -0.22,0.09 -0.12,0.06 -0.22,0.1 -0.34,0.14 -0.12,0.03 -0.22,0.07 -0.22,0.13 0,0.12 0.03,0.05 0.03,1.16 z"
     style="font-style:normal;font-variant:normal;font-weight:normal;font-stretch:normal;font-size:10px;font-family:'Linux Libertine O', serif;-inkscape-font-specification:'Linux Libertine O, serif';text-align:center;text-anchor:middle"
     id="path1007" /><path
     d="m 31.401342,-2.33 v 1.32 c 0,0.13 -0.06,0.2 -0.14,0.26 -0.26,0.21 -0.6,0.44 -0.88,0.44 -0.5,0 -0.72,-0.4 -0.72,-0.71 0,-0.45 0.21,-0.91 0.95,-1.1 z m 0,1.85 c 0.06,0.31 0.16,0.58 0.67,0.58 0.38,0 0.74,-0.17 0.95,-0.37 -0.02,-0.12 -0.06,-0.2 -0.17,-0.27 -0.08,0.07 -0.25,0.16 -0.37,0.16 -0.29,0 -0.3,-0.39 -0.3,-0.85 V -2.7 c 0,-1.42 -0.78,-1.69 -1.51,-1.69 -0.82,0 -1.65,0.54 -1.65,1.11 0,0.24 0.12,0.36 0.35,0.36 0.29,0 0.47,-0.21 0.47,-0.34 0,-0.07 -0.01,-0.14 -0.03,-0.18 -0.01,-0.03 -0.02,-0.09 -0.02,-0.2 0,-0.31 0.42,-0.42 0.8,-0.42 0.34,0 0.81,0.17 0.81,1.3 0,0.07 -0.03,0.11 -0.06,0.12 l -0.86,0.21 c -0.96,0.24 -1.65,0.77 -1.65,1.45 0,0.82 0.56,1.08 1.26,1.08 0.34,0 0.65,-0.08 1.09,-0.42 l 0.2,-0.16 z"
     style="font-style:normal;font-variant:normal;font-weight:normal;font-stretch:normal;font-size:10px;font-family:'Linux Libertine O', serif;-inkscape-font-specification:'Linux Libertine O, serif';text-align:center;text-anchor:middle"
     id="path1009" /><path
     d="m 34.781655,-3.63 c 0.26,-0.23 0.56,-0.32 0.85,-0.32 0.61,0 1.11,0.74 1.11,1.71 0,1.14 -0.46,2 -1.41,2 -0.31,0 -0.52,-0.22 -0.72,-0.47 v -2.5 c 0,-0.21 0.04,-0.3 0.17,-0.42 z m -0.07,-0.31 c -0.07,0.06 -0.1,0.04 -0.1,-0.05 v -1.84 c 0,-0.65 0.04,-1.05 0.04,-1.05 0,-0.07 -0.04,-0.1 -0.13,-0.1 -0.25,0.1 -1,0.24 -1.4,0.27 -0.02,0.08 0,0.24 0.06,0.3 0.52,0.03 0.64,-0.02 0.64,0.82 v 4.88 c 0,0.39 -0.01,0.57 -0.04,0.71 0.05,0.08 0.1,0.12 0.22,0.12 0.06,-0.05 0.16,-0.15 0.23,-0.24 0.11,-0.12 0.17,-0.12 0.28,-0.02 0.22,0.19 0.52,0.24 0.88,0.24 1.02,0 2.21,-0.93 2.21,-2.52 0,-1.22 -0.9,-1.97 -1.77,-1.97 -0.43,0 -0.81,0.17 -1.12,0.45 z"
     style="font-style:normal;font-variant:normal;font-weight:normal;font-stretch:normal;font-size:10px;font-family:'Linux Libertine O', serif;-inkscape-font-specification:'Linux Libertine O, serif';text-align:center;text-anchor:middle"
     id="path1011" /><path
     d="m 38.91353,-1.22 c 0,0.83 -0.11,0.88 -0.72,0.91 -0.06,0.06 -0.06,0.27 0,0.33 0.35,-0.01 0.72,-0.02 1.12,-0.02 0.4,0 0.78,0.01 1.11,0.02 0.06,-0.06 0.06,-0.27 0,-0.33 -0.61,-0.03 -0.72,-0.08 -0.72,-0.91 v -4.61 c 0,-0.65 0.04,-1.05 0.04,-1.05 0,-0.07 -0.04,-0.1 -0.13,-0.1 -0.25,0.1 -1,0.24 -1.4,0.27 -0.02,0.08 0,0.24 0.06,0.3 0.58,0.04 0.64,0.07 0.64,0.82 z"
     style="font-style:normal;font-variant:normal;font-weight:normal;font-stretch:normal;font-size:10px;font-family:'Linux Libertine O', serif;-inkscape-font-specification:'Linux Libertine O, serif';text-align:center;text-anchor:middle"
     id="path1013" /><path
     d="m 41.840248,-2.82 c 0.19,-1.13 0.89,-1.22 1.13,-1.22 0.38,0 0.83,0.21 0.83,1.05 0,0.09 -0.04,0.14 -0.15,0.14 z m 2.62,1.89 c -0.37,0.38 -0.66,0.54 -1.24,0.54 -0.36,0 -0.78,-0.21 -1.09,-0.72 -0.2,-0.33 -0.32,-0.79 -0.32,-1.37 l 2.66,0.02 c 0.12,0 0.19,-0.06 0.19,-0.17 0,-0.84 -0.3,-1.74 -1.69,-1.74 -0.87,0 -2,0.83 -2,2.35 0,0.56 0.14,1.1 0.47,1.48 0.34,0.4 0.81,0.64 1.53,0.64 0.76,0 1.3,-0.35 1.7,-0.87 -0.03,-0.1 -0.09,-0.15 -0.21,-0.16 z"
     style="font-style:normal;font-variant:normal;font-weight:normal;font-stretch:normal;font-size:10px;font-family:'Linux Libertine O', serif;-inkscape-font-specification:'Linux Libertine O, serif';text-align:center;text-anchor:middle"
     id="path1015" /><path
     d="m 1.1751702,8.52 c 0.06,-0.06 0.06,-0.27 0,-0.33 -0.29999999,0.01 -0.64999999,0.02 -1.00999999,0.02 -0.38,0 -0.65,-0.01 -0.91,-0.02 -0.06,0.06 -0.06,0.27 0,0.33 0.47,0.05 0.58,0.15 0.79,0.67 l 1.30999999,3.23 c 0.06,0.14 0.14,0.2 0.24,0.2 0.09,0 0.17,-0.06 0.24,-0.22 l 1.01,-2.46 1.03,2.48 c 0.06,0.14 0.14,0.2 0.24,0.2 0.09,0 0.17,-0.06 0.23,-0.21 l 1.3,-3.17 c 0.17,-0.4 0.34,-0.69 0.85,-0.72 0.06,-0.06 0.06,-0.27 0,-0.33 -0.2,0.01 -0.42,0.02 -0.72,0.02 -0.3,0 -0.72,-0.01 -1.02,-0.02 -0.06,0.06 -0.06,0.27 0,0.33 0.75,0.04 0.64,0.33 0.5,0.68 l -0.83,2.08 c -0.1,0.25 -0.14,0.25 -0.23,0.04 l -0.86,-2.19 c -0.18,-0.47 -0.16,-0.57 0.37,-0.61 0.06,-0.06 0.06,-0.27 0,-0.33 -0.3,0.01 -0.7,0.02 -1,0.02 -0.25,0 -0.58,-0.01 -0.88,-0.02 -0.06,0.06 -0.06,0.27 0,0.33 0.47,0.05 0.58,0.34 0.76,0.78 l 0.07,0.16 -0.7,1.77 c -0.13,0.33 -0.16,0.35 -0.29,0.02 L 0.86517021,9.19 c -0.18,-0.48 -0.17,-0.64 0.30999999,-0.67 z"
     style="font-style:normal;font-variant:normal;font-weight:normal;font-stretch:normal;font-size:10px;font-family:'Linux Libertine O', serif;-inkscape-font-specification:'Linux Libertine O, serif';text-align:center;text-anchor:middle"
     id="path1017" /><path
     d="m 6.9379827,10.45 c 0,1.02 0.68,2.15 2.1,2.15 0.64,0 1.1200003,-0.22 1.4600003,-0.56 0.45,-0.43 0.66,-1.06 0.66,-1.68 0,-1.04 -0.57,-2.25 -2.1000003,-2.25 -0.66,0 -1.21,0.27 -1.57,0.7 -0.36,0.43 -0.55,1.01 -0.55,1.64 z m 1.97,-1.99 c 0.86,0 1.3900003,0.78 1.3900003,2.22 0,1.26 -0.6500003,1.57 -1.1200003,1.57 -1.04,0 -1.38,-1.26 -1.38,-2.03 0,-0.87 0.21,-1.76 1.11,-1.76 z"
     style="font-style:normal;font-variant:normal;font-weight:normal;font-stretch:normal;font-size:10px;font-family:'Linux Libertine O', serif;-inkscape-font-specification:'Linux Libertine O, serif';text-align:center;text-anchor:middle"
     id="path1019" /><path
     d="m 13.327045,8.92 c -0.02,-0.4 -0.04,-0.65 -0.08,-0.76 -0.03,-0.04 -0.04,-0.08 -0.12,-0.08 -0.28,0.11 -0.54,0.2 -1.23,0.29 -0.02,0.06 0,0.22 0.02,0.28 0.54,0.05 0.65,0.1 0.65,0.68 v 1.95 c 0,0.83 -0.12,0.87 -0.74,0.91 -0.06,0.06 -0.06,0.27 0,0.33 0.35,-0.01 0.74,-0.02 1.14,-0.02 0.4,0 0.86,0.01 1.21,0.02 0.06,-0.06 0.06,-0.27 0,-0.33 -0.7,-0.05 -0.82,-0.08 -0.82,-0.91 V 9.89 c 0,-0.26 0.12,-0.49 0.24,-0.67 0.11,-0.16 0.34,-0.49 0.46,-0.49 0.09,0 0.18,0.03 0.25,0.13 0.08,0.1 0.19,0.23 0.37,0.23 0.24,0 0.47,-0.25 0.47,-0.5 0,-0.19 -0.18,-0.48 -0.6,-0.48 -0.47,0 -0.88,0.44 -1.11,0.83 -0.06,0.11 -0.11,0.03 -0.11,-0.02 z"
     style="font-style:normal;font-variant:normal;font-weight:normal;font-stretch:normal;font-size:10px;font-family:'Linux Libertine O', serif;-inkscape-font-specification:'Linux Libertine O, serif';text-align:center;text-anchor:middle"
     id="path1021" /><path
     d="m 16.137983,11.28 c 0,0.83 -0.11,0.87 -0.67,0.91 -0.06,0.06 -0.06,0.27 0,0.33 0.33,-0.01 0.67,-0.02 1.07,-0.02 0.35,0 0.68,0.01 0.91,0.02 0.06,-0.06 0.06,-0.27 0,-0.33 -0.41,-0.04 -0.52,-0.08 -0.52,-0.91 v -0.86 c 0.19,0 0.33,0.02 0.43,0.05 0.11,0.07 0.2,0.16 0.32,0.32 l 0.73,0.98 c 0.29,0.4 0.4,0.59 0.42,0.7 0,0.03 0.01,0.05 0.04,0.05 0.2,-0.01 0.42,-0.02 0.62,-0.02 0.31,0 0.62,0.01 0.82,0.02 0.06,-0.06 0.06,-0.27 0,-0.33 -0.34,-0.04 -0.6,-0.08 -0.86,-0.42 l -1.32,-1.66 c -0.04,-0.04 -0.07,-0.09 -0.07,-0.14 0,-0.04 0,-0.06 0.04,-0.1 l 0.88,-0.91 c 0.3,-0.32 0.65,-0.4 1.05,-0.44 0.06,-0.06 0.06,-0.27 0,-0.33 -0.23,0.01 -0.51,0.02 -0.87,0.02 -0.38,0 -0.75,-0.01 -0.98,-0.02 -0.06,0.06 -0.06,0.27 0,0.33 0.56,0.04 0.32,0.4 0.23,0.51 -0.23,0.29 -0.55,0.63 -0.8,0.82 -0.23,0.17 -0.5,0.29 -0.68,0.31 V 6.67 c 0,-0.65 0.04,-1.05 0.04,-1.05 0,-0.07 -0.04,-0.1 -0.13,-0.1 -0.25,0.1 -1,0.24 -1.4,0.27 -0.02,0.08 0,0.24 0.06,0.3 0.52,0.03 0.64,-0.02 0.64,0.82 z"
     style="font-style:normal;font-variant:normal;font-weight:normal;font-stretch:normal;font-size:10px;font-family:'Linux Libertine O', serif;-inkscape-font-specification:'Linux Libertine O, serif';text-align:center;text-anchor:middle"
     id="path1023" /><path
     d="m 21.34517,11.28 c 0,0.83 -0.11,0.88 -0.72,0.91 -0.06,0.06 -0.06,0.27 0,0.33 0.35,-0.01 0.72,-0.02 1.12,-0.02 0.4,0 0.78,0.01 1.11,0.02 0.06,-0.06 0.06,-0.27 0,-0.33 -0.61,-0.03 -0.72,-0.08 -0.72,-0.91 V 6.67 c 0,-0.65 0.04,-1.05 0.04,-1.05 0,-0.07 -0.04,-0.1 -0.13,-0.1 -0.25,0.1 -1,0.24 -1.4,0.27 -0.02,0.08 0,0.24 0.06,0.3 0.58,0.04 0.64,0.07 0.64,0.82 z"
     style="font-style:normal;font-variant:normal;font-weight:normal;font-stretch:normal;font-size:10px;font-family:'Linux Libertine O', serif;-inkscape-font-specification:'Linux Libertine O, serif';text-align:center;text-anchor:middle"
     id="path1025" /><path
     d="m 23.441889,10.45 c 0,1.02 0.68,2.15 2.1,2.15 0.64,0 1.12,-0.22 1.46,-0.56 0.45,-0.43 0.66,-1.06 0.66,-1.68 0,-1.04 -0.57,-2.25 -2.1,-2.25 -0.66,0 -1.21,0.27 -1.57,0.7 -0.36,0.43 -0.55,1.01 -0.55,1.64 z m 1.97,-1.99 c 0.86,0 1.39,0.78 1.39,2.22 0,1.26 -0.65,1.57 -1.12,1.57 -1.04,0 -1.38,-1.26 -1.38,-2.03 0,-0.87 0.21,-1.76 1.11,-1.76 z"
     style="font-style:normal;font-variant:normal;font-weight:normal;font-stretch:normal;font-size:10px;font-family:'Linux Libertine O', serif;-inkscape-font-specification:'Linux Libertine O, serif';text-align:center;text-anchor:middle"
     id="path1027" /><path
     d="m 31.000951,10.17 v 1.32 c 0,0.13 -0.06,0.2 -0.14,0.26 -0.26,0.21 -0.6,0.44 -0.88,0.44 -0.5,0 -0.72,-0.4 -0.72,-0.71 0,-0.45 0.21,-0.91 0.95,-1.1 z m 0,1.85 c 0.06,0.31 0.16,0.58 0.67,0.58 0.38,0 0.74,-0.17 0.95,-0.37 -0.02,-0.12 -0.06,-0.2 -0.17,-0.27 -0.08,0.07 -0.25,0.16 -0.37,0.16 -0.29,0 -0.3,-0.39 -0.3,-0.85 V 9.8 c 0,-1.42 -0.78,-1.69 -1.51,-1.69 -0.82,0 -1.65,0.54 -1.65,1.11 0,0.24 0.12,0.36 0.35,0.36 0.29,0 0.47,-0.21 0.47,-0.34 0,-0.07 -0.01,-0.14 -0.03,-0.18 -0.01,-0.03 -0.02,-0.09 -0.02,-0.2 0,-0.31 0.42,-0.42 0.8,-0.42 0.34,0 0.81,0.17 0.81,1.3 0,0.07 -0.03,0.11 -0.06,0.12 l -0.86,0.21 c -0.96,0.24 -1.65,0.77 -1.65,1.45 0,0.82 0.56,1.08 1.26,1.08 0.34,0 0.65,-0.08 1.09,-0.42 l 0.2,-0.16 z"
     style="font-style:normal;font-variant:normal;font-weight:normal;font-stretch:normal;font-size:10px;font-family:'Linux Libertine O', serif;-inkscape-font-specification:'Linux Libertine O, serif';text-align:center;text-anchor:middle"
     id="path1029" /><path
     d="m 36.091264,11.26 c 0,0.19 -0.02,0.27 -0.16,0.39 -0.37,0.32 -0.69,0.48 -0.94,0.48 -0.54,0 -1.1,-0.59 -1.1,-1.84 0,-0.72 0.14,-1.12 0.29,-1.33 0.31,-0.47 0.73,-0.5 0.93,-0.5 0.36,0 0.61,0.13 0.81,0.36 0.14,0.16 0.17,0.23 0.17,0.54 z m -0.11,0.74 c 0.04,-0.04 0.14,-0.06 0.15,0.01 0.02,0.25 0.11,0.59 0.11,0.59 0.08,0.03 0.13,0.03 0.19,0 0.22,-0.18 0.57,-0.33 1.18,-0.4 0.06,-0.06 0.06,-0.21 0,-0.27 -0.64,-0.05 -0.73,-0.24 -0.73,-0.73 V 6.67 c 0,-0.65 0.04,-1.05 0.04,-1.05 0,-0.07 -0.04,-0.1 -0.13,-0.1 -0.25,0.1 -1,0.24 -1.4,0.27 -0.02,0.08 0,0.24 0.06,0.3 0.52,0.03 0.64,-0.02 0.64,0.82 v 1.28 c 0,0.07 -0.02,0.09 -0.09,0.09 -0.04,0 -0.45,-0.17 -0.78,-0.17 -0.66,0 -1.1,0.22 -1.5,0.6 -0.43,0.43 -0.69,1.02 -0.69,1.76 0,1.23 0.62,2.13 1.7,2.13 0.39,0 0.76,-0.2 1.25,-0.6 z"
     style="font-style:normal;font-variant:normal;font-weight:normal;font-stretch:normal;font-size:10px;font-family:'Linux Libertine O', serif;-inkscape-font-specification:'Linux Libertine O, serif';text-align:center;text-anchor:middle"
     id="path1031" /></g>
<g
   transform="matrix(1,0,0,-1,229.349,63.104)"
   style="font-variant:normal;font-weight:normal;font-size:6.97384977px;font-family:LinLibertineO;-inkscape-font-specification:LinLibertineO;writing-mode:lr-tb;fill:#000000;fill-opacity:0.8;fill-rule:nonzero;stroke:none"
   id="text210" />
<g
   id="g212"
   transform="translate(221.671,72.967)" /></g></g><g
                         id="g214"
                         transform="translate(-63.78,54.15)" /></g></g><g
                     id="g216"><path
                       d="M -14.17339,102.04868 C -65.53433,40.84006 -89.5554,-50.68771 -28.3468,-102.04868"
                       style="fill:none;stroke:#917f60;stroke-width:1.59404004;stroke-linecap:butt;stroke-linejoin:miter;stroke-miterlimit:10;stroke-dasharray:none;stroke-opacity:1"
                       id="path218"
                       inkscape:connector-curvature="0" /><g
                       id="g220"><g
                         id="g222"><path
                           d="m -14.17339,102.04868 -82.51387,22.11242 m 78.92092,-26.49965 -83.01946,20.13851 m 79.53145,-24.60991 -83.14484,18.09848 m 79.76346,-22.65082 -83.68309,16.16086 m 80.4102,-20.79117 -84.21931,14.21274 m 81.0569,-18.91834 -84.36031,12.1969 m 81.30884,-16.9784 -84.49002,10.16918 m 81.55419,-15.02127 -84.97443,8.16219 m 82.15713,-13.0827 -85.05603,6.0896 m 82.35894,-11.07976 -85.10767,3.98659 m 82.53633,-9.04123 -85.11981,1.84185 m 82.67834,-6.95912 -85.08384,-0.34771 m 82.77537,-4.83355 -85.30032,-2.59773 m 83.13155,-2.64235 -85.1334,-4.90239 m 83.1099,-0.3945 -84.89397,-7.27342 m 83.02182,1.92182 -84.57515,-9.71339 m 82.86015,4.30589 -84.17192,-12.22996 m 82.62352,6.77582 -83.88108,-14.86482 m 82.50619,9.36323 -83.25905,-17.55281 m 82.06711,12.01014 -82.68407,-20.37015 m 81.68425,14.7895 -81.8135,-23.24724 m 81.0157,17.63224 -80.91713,-26.26264 m 80.33238,20.62044 -79.83363,-29.37833 m 79.47354,23.71999 -78.55843,-32.59506 m 78.43418,26.92514 -77.0868,-35.91062 m 77.21042,30.24073 -75.4194,-39.32671 m 75.80246,33.66879 -73.48922,-42.81502 m 74.1431,37.18111 -71.30531,-46.3654 m 72.2404,40.77098 -68.87919,-49.97465 m 70.10408,44.43824 -66.22818,-53.6394 m 67.7505,48.17606 -63.1989,-57.2065 m 65.0229,51.83702 -59.75769,-60.57007 m 61.88479,55.31453 -56.31542,-64.08632 m 58.74414,58.96367 -52.31343,-67.06813 m 55.03932,62.09608 -48.41308,-70.24338 m 51.42669,65.4411 -44.24949,-73.0467 m 47.53947,68.42879 -39.88609,-75.44333 m 43.43783,71.02276 -35.40702,-77.38797 m 39.20257,73.17589 -31.05063,-79.29677 m 35.07138,75.30002 -26.71754,-80.82701"
                           style="fill:none;stroke:#917f60;stroke-width:0.49814001;stroke-linecap:butt;stroke-linejoin:miter;stroke-miterlimit:10;stroke-dasharray:none;stroke-opacity:0.5"
                           id="path224"
                           inkscape:connector-curvature="0" /></g></g><g
                       id="g226" /></g><g
                     id="g228"><g
                       id="g230"
                       transform="matrix(1.2685819,0,0,1,27.158251,0)"><path
                         d="m -101.11719,8.3736 h 26.48381 v 11.5996 h -26.48381 z"
                         style="fill:#ffffff;fill-opacity:0.8;fill-rule:nonzero;stroke:none"
                         id="path232"
                         inkscape:connector-curvature="0" /></g><g
                       id="g234"
                       transform="translate(-97.795,11.785)"><g
                         id="g236"
                         transform="translate(0.587)"><g
                           id="g238"
                           transform="translate(-60.683,-138.902)"><g
   aria-label="unsafe"
   transform="matrix(1,0,0,-1,60.683,138.902)"
   style="font-variant:normal;font-weight:normal;font-size:6.97384977px;font-family:LinLibertineO;-inkscape-font-specification:LinLibertineO;writing-mode:lr-tb;fill:#000000;fill-opacity:0.8;fill-rule:nonzero;stroke:none"
   id="text242"><path
     d="m 2.17,0.1 c 0.39,0 0.86,-0.2 1.35,-0.6 0.05,-0.04 0.14,-0.06 0.15,0.01 0.02,0.26 0.11,0.59 0.11,0.59 0.08,0.03 0.12,0.03 0.19,0 0.22,-0.18 0.57,-0.33 1.18,-0.4 0.06,-0.06 0.06,-0.21 0,-0.27 C 4.51,-0.62 4.42,-0.81 4.42,-1.3 v -1.92 c 0,-0.3 0.04,-1.03 0.04,-1.03 0,-0.03 -0.03,-0.06 -0.08,-0.06 -0.05,0.01 -0.2,0.02 -0.35,0.02 -0.32,0 -0.68,-0.01 -1.02,-0.02 -0.06,0.06 -0.06,0.27 0,0.33 0.49,0.03 0.62,0.15 0.62,0.81 v 1.93 c 0,0.19 -0.02,0.27 -0.16,0.39 -0.37,0.32 -0.75,0.48 -1,0.48 -0.3,0 -0.8,-0.14 -0.8,-1.03 v -1.82 c 0,-0.3 0.04,-1.03 0.04,-1.03 0,-0.03 -0.03,-0.06 -0.08,-0.06 -0.05,0.01 -0.2,0.02 -0.35,0.02 -0.32,0 -0.68,-0.01 -1.02,-0.02 -0.06,0.06 -0.06,0.27 0,0.33 0.48,0.04 0.62,0.15 0.62,0.8 v 1.92 c 0,0.69 0.3,1.36 1.29,1.36 z"
     style="font-style:normal;font-variant:normal;font-weight:normal;font-stretch:normal;font-size:10px;font-family:'Linux Libertine O', serif;-inkscape-font-specification:'Linux Libertine O, serif'"
     id="path908" /><path
     d="m 7.1525,-3.58 c -0.07,0.07 -0.12,0.1 -0.12,0 -0.01,-0.27 -0.04,-0.65 -0.08,-0.76 -0.03,-0.04 -0.04,-0.08 -0.12,-0.08 -0.28,0.11 -0.54,0.2 -1.23,0.29 -0.02,0.06 0,0.22 0.02,0.28 0.54,0.05 0.65,0.1 0.65,0.68 v 1.95 c 0,0.82 -0.1,0.86 -0.7,0.91 -0.06,0.06 -0.06,0.27 0,0.33 0.3,-0.01 0.7,-0.02 1.1,-0.02 0.4,0 0.7,0.01 1,0.02 0.06,-0.06 0.06,-0.27 0,-0.33 -0.51,-0.05 -0.61,-0.09 -0.61,-0.91 v -1.64 c 0,-0.21 0.09,-0.33 0.17,-0.42 0.38,-0.37 0.83,-0.59 1.22,-0.59 0.2,0 0.41,0.13 0.53,0.36 0.1,0.2 0.12,0.47 0.12,0.77 v 1.52 c 0,0.82 -0.1,0.86 -0.62,0.91 -0.05,0.06 -0.05,0.27 0,0.33 0.3,-0.01 0.62,-0.02 1.02,-0.02 0.4,0 0.76,0.01 1.06,0.02 0.05,-0.06 0.05,-0.27 0,-0.33 -0.56,-0.05 -0.67,-0.09 -0.67,-0.91 v -1.49 c 0,-0.55 -0.04,-1.03 -0.27,-1.34 -0.17,-0.22 -0.48,-0.34 -0.83,-0.34 -0.49,0 -1.05,0.13 -1.64,0.81 z"
     style="font-style:normal;font-variant:normal;font-weight:normal;font-stretch:normal;font-size:10px;font-family:'Linux Libertine O', serif;-inkscape-font-specification:'Linux Libertine O, serif'"
     id="path910" /><path
     d="m 11.222188,-1.38 c 0.04,0.49 0.07,0.96 0.07,1.38 0.1,-0.02 0.2,-0.03 0.25,-0.03 0.07,0 0.13,0 0.2,0.02 0.27,0.07 0.539999,0.11 0.91,0.11 0.559999,0 1.59,-0.27 1.59,-1.26 0,-0.68 -0.49,-1.08 -1.17,-1.33 -0.61,-0.22 -1,-0.38 -1,-0.93 0,-0.41 0.36,-0.64 0.7,-0.64 0.22,0 0.8,0.08 0.93,0.93 0.06,0.06 0.26,0.05 0.32,-0.01 0.03,-0.36 0.05,-0.73 0.06,-1.06 -0.310001,-0.05 -0.79,-0.19 -1.31,-0.19 -0.740001,0 -1.410001,0.48 -1.410001,1.12 0,0.73 0.33,1.04 1.100001,1.36 0.83,0.34 1.02,0.55 1.02,0.98 0,0.49 -0.48,0.7 -0.85,0.7 -0.39,0 -0.610001,-0.13 -0.71,-0.24 -0.22,-0.23 -0.33,-0.67 -0.390001,-0.92 -0.06,-0.06 -0.25,-0.05 -0.309999,0.01 z"
     style="font-style:normal;font-variant:normal;font-weight:normal;font-stretch:normal;font-size:10px;font-family:'Linux Libertine O', serif;-inkscape-font-specification:'Linux Libertine O, serif'"
     id="path912" /><path
     d="m 17.578437,-2.33 v 1.32 c 0,0.13 -0.06,0.2 -0.14,0.26 -0.26,0.21 -0.599999,0.44 -0.88,0.44 -0.5,0 -0.719999,-0.4 -0.719999,-0.71 0,-0.45 0.209999,-0.91 0.949999,-1.1 z m 0,1.85 c 0.06,0.31 0.16,0.58 0.670001,0.58 0.379999,0 0.739999,-0.17 0.949999,-0.37 -0.02,-0.12 -0.06,-0.2 -0.17,-0.27 -0.08,0.07 -0.249999,0.16 -0.37,0.16 -0.29,0 -0.3,-0.39 -0.3,-0.85 V -2.7 c 0,-1.42 -0.78,-1.69 -1.51,-1.69 -0.82,0 -1.649999,0.54 -1.649999,1.11 0,0.24 0.12,0.36 0.35,0.36 0.29,0 0.469999,-0.21 0.469999,-0.34 0,-0.07 -0.01,-0.14 -0.03,-0.18 -0.01,-0.03 -0.02,-0.09 -0.02,-0.2 0,-0.31 0.42,-0.42 0.799999,-0.42 0.34,0 0.81,0.17 0.81,1.3 0,0.07 -0.03,0.11 -0.06,0.12 l -0.859999,0.21 c -0.96,0.24 -1.650001,0.77 -1.650001,1.45 0,0.82 0.560001,1.08 1.26,1.08 0.34,0 0.65,-0.08 1.09,-0.42 l 0.2,-0.16 z"
     style="font-style:normal;font-variant:normal;font-weight:normal;font-stretch:normal;font-size:10px;font-family:'Linux Libertine O', serif;-inkscape-font-specification:'Linux Libertine O, serif'"
     id="path914" /><path
     d="M 20.96875,-1.22 V -3.9 h 0.93 c 0.09,0 0.23,-0.04 0.23,-0.13 v -0.2 c 0,-0.04 -0.03,-0.06 -0.08,-0.06 h -1.08 v -0.57 c 0,-1.54 0.46,-1.78 0.79,-1.78 0.3,0 0.46,0.12 0.6,0.47 0.08,0.18 0.19,0.32 0.4,0.32 0.17,0 0.41,-0.21 0.41,-0.41 0,-0.17 -0.11,-0.35 -0.32,-0.51 -0.26,-0.18 -0.52,-0.21 -0.9,-0.21 -0.84,0 -1.77,0.73 -1.77,2.29 v 0.4 h -0.51 c -0.18,0 -0.23,0.12 -0.23,0.2 v 0.13 c 0,0.05 0.01,0.06 0.05,0.06 h 0.69 v 2.68 c 0,0.83 -0.16,0.87 -0.7,0.91 -0.06,0.06 -0.06,0.27 0,0.33 0.35,-0.01 0.7,-0.02 1.1,-0.02 0.4,0 0.88,0.01 1.23,0.02 0.06,-0.06 0.06,-0.27 0,-0.33 -0.78,-0.04 -0.84,-0.08 -0.84,-0.91 z"
     style="font-style:normal;font-variant:normal;font-weight:normal;font-stretch:normal;font-size:10px;font-family:'Linux Libertine O', serif;-inkscape-font-specification:'Linux Libertine O, serif'"
     id="path916" /><path
     d="m 23.564219,-2.82 c 0.19,-1.13 0.89,-1.22 1.13,-1.22 0.38,0 0.83,0.21 0.83,1.05 0,0.09 -0.04,0.14 -0.15,0.14 z m 2.62,1.89 c -0.37,0.38 -0.66,0.54 -1.24,0.54 -0.36,0 -0.78,-0.21 -1.09,-0.72 -0.2,-0.33 -0.32,-0.79 -0.32,-1.37 l 2.66,0.02 c 0.12,0 0.19,-0.06 0.19,-0.17 0,-0.84 -0.3,-1.74 -1.69,-1.74 -0.87,0 -2,0.83 -2,2.35 0,0.56 0.14,1.1 0.47,1.48 0.34,0.4 0.81,0.64 1.53,0.64 0.76,0 1.3,-0.35 1.7,-0.87 -0.03,-0.1 -0.09,-0.15 -0.21,-0.16 z"
     style="font-style:normal;font-variant:normal;font-weight:normal;font-stretch:normal;font-size:10px;font-family:'Linux Libertine O', serif;-inkscape-font-specification:'Linux Libertine O, serif'"
     id="path918" /></g>
<g
   id="g244"
   transform="translate(60.096,138.902)" /></g></g><g
                         id="g246"
                         transform="translate(97.795,-11.785)" /></g></g></g></g><g
                 id="g248"
                 transform="translate(9.9999997e-6,9.9999997e-6)"><g
                   id="g250"><g
                     id="g252"
                     transform="translate(-56.693,-1.604)"><g
                       id="g254"
                       transform="translate(29.017)"><g
                         id="g256"
                         transform="translate(-130.215,-125.513)"><g
   aria-label="space of possibilities"
   transform="matrix(1,0,0,-1,130.215,125.513)"
   style="font-variant:normal;font-weight:normal;font-size:6.97384977px;font-family:LinLibertineOI;-inkscape-font-specification:LinLibertineOI;writing-mode:lr-tb;fill:#0000a0;fill-opacity:1;fill-rule:nonzero;stroke:none"
   id="text260"><path
     d="m 1.914,0.11 h 0.165 c 1.078,0 1.727,-0.594 1.727,-1.408 0,-0.517 -0.297,-1.023 -1.309,-1.694 -0.33,-0.22 -0.44,-0.418 -0.44,-0.693 0,-0.385 0.22,-0.781 0.693,-0.781 0.275,0 0.462,0.088 0.495,0.319 0.033,0.264 0.22,0.572 0.506,0.572 0.308,0 0.396,-0.198 0.396,-0.374 0,-0.396 -0.572,-0.88 -1.254,-0.88 -0.957,0 -1.54,0.704 -1.54,1.375 0,0.44 0.242,0.913 0.957,1.397 0.583,0.396 0.671,0.759 0.671,0.99 0,0.605 -0.44,0.814 -0.935,0.814 -0.286,0 -0.44,-0.055 -0.473,-0.297 -0.033,-0.253 -0.187,-0.583 -0.517,-0.583 -0.319,0 -0.407,0.264 -0.407,0.385 0,0.407 0.506,0.814 1.265,0.858 z"
     style="font-style:italic;font-variant:normal;font-weight:normal;font-stretch:normal;font-size:11px;font-family:'Linux Libertine O', serif;-inkscape-font-specification:'Linux Libertine O, serif Italic'"
     id="path921" /><path
     d="m 6.8146719,-4.444 c 0.033,-0.187 0.143,-0.528 0.143,-0.66 0,-0.187 -0.11,-0.297 -0.462,-0.297 -0.418,0 -0.418,0.484 -0.506,0.902 l -0.143,0.649 c -0.55,0.396 -0.957,0.726 -1.265,1.111 0.033,0.165 0.143,0.231 0.341,0.231 0.242,-0.319 0.484,-0.517 0.792,-0.77 l -1.133,5.049 c -0.066,0.308 -0.231,0.44 -0.583,0.495 l -0.209,0.033 c -0.055,0.011 -0.11,0.022 -0.11,0.088 v 0.209 l 0.022,0.022 c 0,0 0.748,-0.055 1.144,-0.055 0.429,0 1.177,0.022 1.177,0.022 l 0.022,-0.022 v -0.22 c 0,-0.055 -0.022,-0.077 -0.066,-0.088 l -0.209,-0.033 c -0.165,-0.022 -0.451,-0.077 -0.363,-0.451 l 0.484,-2.024 c 0.165,0.176 0.473,0.363 0.803,0.363 0.781,0 1.419,-0.429 1.903,-1.023 0.594,-0.726 0.891,-1.474 0.891,-2.266 0,-0.924 -0.308,-1.65 -1.408,-1.65 -0.561,0 -0.968,0.209 -1.265,0.385 z m 1.771,1.441 c 0,0.539 -0.22,1.298 -0.638,1.947 -0.297,0.451 -0.726,0.781 -1.144,0.781 -0.286,0 -0.583,-0.143 -0.814,-0.462 l 0.726,-3.212 c 0.275,-0.176 0.594,-0.374 1.012,-0.374 0.748,0 0.858,0.781 0.858,1.32 z"
     style="font-style:italic;font-variant:normal;font-weight:normal;font-stretch:normal;font-size:11px;font-family:'Linux Libertine O', serif;-inkscape-font-specification:'Linux Libertine O, serif Italic'"
     id="path923" /><path
     d="m 13.769766,-4.763 c -0.297,-0.033 -0.44,-0.066 -0.88,-0.066 -1.177,0 -2.772,1.727 -2.772,3.454 0,0.616 0.143,1.485 1.067,1.485 0.583,0 1.199,-0.605 1.859,-1.584 l 0.022,0.022 -0.143,0.462 c -0.077,0.253 -0.11,0.473 -0.11,0.605 0,0.209 0.077,0.495 0.451,0.495 0.682,0 1.122,-0.44 1.408,-1.067 -0.066,-0.088 -0.11,-0.176 -0.253,-0.176 -0.297,0.407 -0.506,0.583 -0.616,0.583 -0.033,0 -0.132,-0.022 -0.132,-0.154 0,-0.099 0.066,-0.407 0.11,-0.616 l 0.759,-3.421 c -0.264,0 -0.55,0.033 -0.77,-0.022 z m -0.55,2.354 c -0.539,0.99 -1.386,1.914 -1.738,1.914 -0.374,0 -0.484,-0.44 -0.484,-1.056 0,-1.166 0.913,-2.937 1.925,-2.937 0.231,0 0.473,0.077 0.682,0.209 0,0 -0.11,1.166 -0.385,1.87 z"
     style="font-style:italic;font-variant:normal;font-weight:normal;font-stretch:normal;font-size:11px;font-family:'Linux Libertine O', serif;-inkscape-font-specification:'Linux Libertine O, serif Italic'"
     id="path925" /><path
     d="m 16.908375,0.11 c 0.792,0 1.507,-0.561 2.035,-1.298 -0.033,-0.11 -0.143,-0.187 -0.242,-0.187 -0.429,0.484 -0.869,0.836 -1.452,0.836 -0.187,0 -0.396,-0.044 -0.55,-0.253 -0.165,-0.209 -0.275,-0.418 -0.275,-1.089 0,-1.639 0.77,-2.607 1.617,-2.607 0.154,0 0.462,0.055 0.462,0.418 0,0.066 -0.022,0.154 -0.055,0.209 -0.033,0.055 -0.055,0.165 -0.055,0.231 0,0.176 0.11,0.352 0.297,0.352 0.297,0 0.572,-0.22 0.572,-0.495 0,-0.429 -0.044,-1.056 -1.232,-1.056 -0.44,0 -1.155,0.297 -1.606,0.781 -0.539,0.572 -0.902,1.43 -0.902,2.409 0,0.374 0.066,0.869 0.33,1.221 0.22,0.319 0.605,0.528 1.056,0.528 z"
     style="font-style:italic;font-variant:normal;font-weight:normal;font-stretch:normal;font-size:11px;font-family:'Linux Libertine O', serif;-inkscape-font-specification:'Linux Libertine O, serif Italic'"
     id="path927" /><path
     d="m 22.789766,-4.07 c 0,0.99 -1.166,1.353 -2.002,1.463 0.396,-1.551 1.001,-1.881 1.463,-1.881 0.396,0 0.539,0.099 0.539,0.418 z m -2.068,1.881 c 2.871,-0.561 2.827,-1.408 2.827,-1.826 0,-0.275 -0.253,-0.814 -1.045,-0.814 -1.914,0 -2.706,1.87 -2.706,3.267 0,0.935 0.44,1.672 1.353,1.672 0.737,0 1.408,-0.385 2.057,-1.221 -0.055,-0.121 -0.121,-0.176 -0.253,-0.176 -0.627,0.638 -0.88,0.737 -1.408,0.737 -0.495,0 -0.836,-0.264 -0.836,-1.265 0,-0.055 0,-0.286 0.011,-0.374 z"
     style="font-style:italic;font-variant:normal;font-weight:normal;font-stretch:normal;font-size:11px;font-family:'Linux Libertine O', serif;-inkscape-font-specification:'Linux Libertine O, serif Italic'"
     id="path929" /><path
     d="m 27.810062,-1.87 c 0,-0.99 0.429,-2.596 1.595,-2.596 0.330001,0 0.506,0.176 0.66,0.484 0.143,0.286 0.176,0.682 0.176,1.012 0,0.44 -0.077,1.386 -0.473,2.002 -0.308,0.473 -0.759,0.671 -1.166,0.671 -0.319,0 -0.792,-0.418 -0.792,-1.573 z m -0.913,0.088 c 0,0.583 0.143,1.892 1.54,1.892 0.352,0 0.682,-0.044 1.012,-0.209 0.957,-0.473 1.705001,-1.639 1.705001,-2.948 0,-0.792 -0.198,-1.782 -1.551001,-1.782 -1.837,0 -2.706,1.727 -2.706,3.047 z"
     style="font-style:italic;font-variant:normal;font-weight:normal;font-stretch:normal;font-size:11px;font-family:'Linux Libertine O', serif;-inkscape-font-specification:'Linux Libertine O, serif Italic'"
     id="path931" /><path
     d="m 33.026984,-4.29 c -0.22,1.254 -0.341,1.914 -0.451,2.739 -0.143,1.078 -0.352,2.849 -0.759,3.476 -0.121,0.198 -0.33,0.33 -0.495,0.33 -0.154,0 -0.209,-0.077 -0.275,-0.176 -0.088,-0.154 -0.308,-0.363 -0.55,-0.363 -0.297,0 -0.407,0.209 -0.407,0.396 0,0.253 0.275,0.506 1.023,0.506 0.451,0 0.935,-0.22 1.276,-0.693 0.297,-0.418 0.55,-1.265 0.968,-3.355 0.176,-0.858 0.363,-1.749 0.528,-2.673 l 0.033,-0.187 h 1.023 c 0.099,0 0.264,-0.044 0.286,-0.132 0,0 0.055,-0.231 0.055,-0.242 0,-0.033 -0.022,-0.055 -0.077,-0.055 h -1.21 l 0.121,-0.627 c 0.077,-0.418 0.198,-0.792 0.33,-1.089 0.275,-0.682 0.726,-0.88 0.913,-0.88 0.253,0 0.374,0.066 0.418,0.286 0.044,0.242 0.143,0.55 0.517,0.55 0.33,0 0.418,-0.275 0.418,-0.374 0,-0.44 -0.484,-0.825 -1.265,-0.825 -0.308,0 -0.99,0.165 -1.441,0.704 -0.385,0.451 -0.671,1.309 -0.869,2.255 l -0.726,0.033 c -0.209,0.011 -0.286,0.099 -0.308,0.187 -0.011,0.033 -0.044,0.165 -0.044,0.187 0,0.022 0.033,0.022 0.066,0.022 z"
     style="font-style:italic;font-variant:normal;font-weight:normal;font-stretch:normal;font-size:11px;font-family:'Linux Libertine O', serif;-inkscape-font-specification:'Linux Libertine O, serif Italic'"
     id="path933" /><path
     d="m 40.093969,-4.444 c 0.033,-0.187 0.143,-0.528 0.143,-0.66 0,-0.187 -0.11,-0.297 -0.462,-0.297 -0.418,0 -0.418,0.484 -0.506,0.902 l -0.143,0.649 c -0.55,0.396 -0.957,0.726 -1.265,1.111 0.033,0.165 0.143,0.231 0.341,0.231 0.242,-0.319 0.484,-0.517 0.792,-0.77 l -1.133,5.049 c -0.066,0.308 -0.231,0.44 -0.583,0.495 l -0.209,0.033 c -0.055,0.011 -0.11,0.022 -0.11,0.088 v 0.209 l 0.022,0.022 c 0,0 0.748,-0.055 1.144,-0.055 0.429,0 1.177,0.022 1.177,0.022 l 0.022,-0.022 v -0.22 c 0,-0.055 -0.022,-0.077 -0.066,-0.088 l -0.209,-0.033 c -0.165,-0.022 -0.451,-0.077 -0.363,-0.451 l 0.484,-2.024 c 0.165,0.176 0.473,0.363 0.803,0.363 0.781,0 1.419,-0.429 1.903,-1.023 0.594,-0.726 0.891,-1.474 0.891,-2.266 0,-0.924 -0.308,-1.65 -1.408,-1.65 -0.561,0 -0.968,0.209 -1.265,0.385 z m 1.771,1.441 c 0,0.539 -0.22,1.298 -0.638,1.947 -0.297,0.451 -0.726,0.781 -1.144,0.781 -0.286,0 -0.583,-0.143 -0.814,-0.462 l 0.726,-3.212 c 0.275,-0.176 0.594,-0.374 1.012,-0.374 0.748,0 0.858,0.781 0.858,1.32 z"
     style="font-style:italic;font-variant:normal;font-weight:normal;font-stretch:normal;font-size:11px;font-family:'Linux Libertine O', serif;-inkscape-font-specification:'Linux Libertine O, serif Italic'"
     id="path935" /><path
     d="m 44.396,-1.87 c 0,-0.99 0.429,-2.596 1.595,-2.596 0.33,0 0.506,0.176 0.66,0.484 0.143,0.286 0.176,0.682 0.176,1.012 0,0.44 -0.077,1.386 -0.473,2.002 -0.308,0.473 -0.759,0.671 -1.166,0.671 -0.319,0 -0.792,-0.418 -0.792,-1.573 z m -0.913,0.088 c 0,0.583 0.143,1.892 1.54,1.892 0.352,0 0.682,-0.044 1.012,-0.209 0.957,-0.473 1.705,-1.639 1.705,-2.948 0,-0.792 -0.198,-1.782 -1.551,-1.782 -1.837,0 -2.706,1.727 -2.706,3.047 z"
     style="font-style:italic;font-variant:normal;font-weight:normal;font-stretch:normal;font-size:11px;font-family:'Linux Libertine O', serif;-inkscape-font-specification:'Linux Libertine O, serif Italic'"
     id="path937" /><path
     d="m 49.458922,0.11 h 0.165 c 1.078,0 1.727,-0.594 1.727,-1.408 0,-0.517 -0.297,-1.023 -1.309,-1.694 -0.33,-0.22 -0.44,-0.418 -0.44,-0.693 0,-0.385 0.22,-0.781 0.693,-0.781 0.275,0 0.462,0.088 0.495,0.319 0.033,0.264 0.22,0.572 0.506,0.572 0.308,0 0.396,-0.198 0.396,-0.374 0,-0.396 -0.572,-0.88 -1.254,-0.88 -0.957,0 -1.54,0.704 -1.54,1.375 0,0.44 0.242,0.913 0.957,1.397 0.583,0.396 0.671,0.759 0.671,0.99 0,0.605 -0.44,0.814 -0.935,0.814 -0.286,0 -0.44,-0.055 -0.473,-0.297 -0.033,-0.253 -0.187,-0.583 -0.517,-0.583 -0.319,0 -0.407,0.264 -0.407,0.385 0,0.407 0.506,0.814 1.265,0.858 z"
     style="font-style:italic;font-variant:normal;font-weight:normal;font-stretch:normal;font-size:11px;font-family:'Linux Libertine O', serif;-inkscape-font-specification:'Linux Libertine O, serif Italic'"
     id="path939" /><path
     d="m 53.347594,0.11 h 0.165 c 1.078,0 1.727,-0.594 1.727,-1.408 0,-0.517 -0.297,-1.023 -1.309,-1.694 -0.33,-0.22 -0.44,-0.418 -0.44,-0.693 0,-0.385 0.22,-0.781 0.693,-0.781 0.275,0 0.462,0.088 0.495,0.319 0.033,0.264 0.22,0.572 0.506,0.572 0.308,0 0.396,-0.198 0.396,-0.374 0,-0.396 -0.572,-0.88 -1.254,-0.88 -0.957,0 -1.54,0.704 -1.54,1.375 0,0.44 0.242,0.913 0.957,1.397 0.583,0.396 0.671,0.759 0.671,0.99 0,0.605 -0.44,0.814 -0.935,0.814 -0.286,0 -0.44,-0.055 -0.473,-0.297 -0.033,-0.253 -0.187,-0.583 -0.517,-0.583 -0.319,0 -0.407,0.264 -0.407,0.385 0,0.407 0.506,0.814 1.265,0.858 z"
     style="font-style:italic;font-variant:normal;font-weight:normal;font-stretch:normal;font-size:11px;font-family:'Linux Libertine O', serif;-inkscape-font-specification:'Linux Libertine O, serif Italic'"
     id="path941" /><path
     d="m 57.533266,-6.27 c 0,0.286 0.242,0.528 0.528,0.528 0.286,0 0.528,-0.242 0.528,-0.528 0,-0.286 -0.242,-0.528 -0.528,-0.528 -0.286,0 -0.528,0.242 -0.528,0.528 z m 0.484,2.75 c 0.099,-0.429 0.22,-0.847 0.22,-1.034 0,-0.154 -0.077,-0.242 -0.22,-0.242 -0.352,0 -0.847,0.077 -1.364,0.143 -0.077,0.088 -0.055,0.209 0.011,0.308 l 0.44,0.033 c 0.132,0.011 0.198,0.11 0.198,0.22 0,0.11 -0.033,0.253 -0.099,0.561 l -0.517,2.266 c -0.077,0.352 -0.187,0.803 -0.187,1.012 0,0.209 0.121,0.363 0.451,0.363 0.528,0 1.023,-0.374 1.529,-1.023 -0.033,-0.099 -0.099,-0.187 -0.253,-0.187 -0.286,0.33 -0.605,0.55 -0.715,0.55 -0.088,0 -0.11,-0.055 -0.11,-0.187 0,-0.099 0.055,-0.341 0.121,-0.627 z"
     style="font-style:italic;font-variant:normal;font-weight:normal;font-stretch:normal;font-size:11px;font-family:'Linux Libertine O', serif;-inkscape-font-specification:'Linux Libertine O, serif Italic'"
     id="path943" /><path
     d="m 61.486562,-6.413 c 0.154001,-0.704 0.275,-1.155 0.275,-1.155 0,-0.077 -0.033,-0.11 -0.132,-0.11 -0.296999,0.11 -1.089,0.253 -1.54,0.286 l -0.033,0.264 c 0,0.033 0.011,0.055 0.055,0.055 l 0.341,0.022 c 0.143,0 0.231,0.066 0.231,0.308 0,0.121 -0.022,0.308 -0.077,0.55 l -1.133001,5.027 c -0.153999,0.682 0.132,1.276 1.122,1.276 0.341,0 0.770001,-0.143 1.155,-0.407 1.001,-0.682 2.013,-2.09 2.013,-3.223 0,-0.748 -0.153999,-1.309 -1.155,-1.309 -0.759,0 -1.32,0.693 -1.705,1.144 l -0.022,-0.011 z m 1.375,3.102 c 0,1.595 -1.375,3.036 -2.211,3.036 -0.406999,0 -0.473,-0.418 -0.286,-1.177 l 0.374,-1.584 c 0.517,-0.605 1.012,-1.276 1.54,-1.276 0.33,0 0.583,0.253 0.583,1.001 z"
     style="font-style:italic;font-variant:normal;font-weight:normal;font-stretch:normal;font-size:11px;font-family:'Linux Libertine O', serif;-inkscape-font-specification:'Linux Libertine O, serif Italic'"
     id="path945" /><path
     d="m 65.826234,-6.27 c 0,0.286 0.242,0.528 0.528,0.528 0.286,0 0.528,-0.242 0.528,-0.528 0,-0.286 -0.242,-0.528 -0.528,-0.528 -0.286,0 -0.528,0.242 -0.528,0.528 z m 0.484,2.75 c 0.099,-0.429 0.22,-0.847 0.22,-1.034 0,-0.154 -0.077,-0.242 -0.22,-0.242 -0.352,0 -0.847,0.077 -1.364,0.143 -0.077,0.088 -0.055,0.209 0.011,0.308 l 0.44,0.033 c 0.132,0.011 0.198,0.11 0.198,0.22 0,0.11 -0.033,0.253 -0.099,0.561 l -0.517,2.266 c -0.077,0.352 -0.187,0.803 -0.187,1.012 0,0.209 0.121,0.363 0.451,0.363 0.528,0 1.023,-0.374 1.529,-1.023 -0.033,-0.099 -0.099,-0.187 -0.253,-0.187 -0.286,0.33 -0.605,0.55 -0.715,0.55 -0.088,0 -0.11,-0.055 -0.11,-0.187 0,-0.099 0.055,-0.341 0.121,-0.627 z"
     style="font-style:italic;font-variant:normal;font-weight:normal;font-stretch:normal;font-size:11px;font-family:'Linux Libertine O', serif;-inkscape-font-specification:'Linux Libertine O, serif Italic'"
     id="path947" /><path
     d="m 69.790531,-6.413 c 0.154,-0.704 0.275,-1.155 0.275,-1.155 0,-0.077 -0.033,-0.11 -0.132,-0.11 -0.297,0.11 -1.089,0.253 -1.54,0.286 l -0.033,0.264 c 0,0.033 0.011,0.055 0.055,0.055 l 0.341,0.022 c 0.143,0 0.231,0.066 0.231,0.308 0,0.121 -0.033,0.319 -0.077,0.55 l -1.089,4.884 c -0.088,0.352 -0.154,0.726 -0.154,0.935 0,0.209 0.044,0.484 0.462,0.484 0.495,0 1.089,-0.275 1.595,-1.111 -0.044,-0.11 -0.099,-0.187 -0.242,-0.187 -0.33,0.396 -0.682,0.638 -0.814,0.638 -0.088,0 -0.132,-0.066 -0.132,-0.154 0,-0.088 0.033,-0.253 0.132,-0.693 z"
     style="font-style:italic;font-variant:normal;font-weight:normal;font-stretch:normal;font-size:11px;font-family:'Linux Libertine O', serif;-inkscape-font-specification:'Linux Libertine O, serif Italic'"
     id="path949" /><path
     d="m 71.777406,-6.27 c 0,0.286 0.242,0.528 0.528,0.528 0.286,0 0.528,-0.242 0.528,-0.528 0,-0.286 -0.242,-0.528 -0.528,-0.528 -0.286,0 -0.528,0.242 -0.528,0.528 z m 0.484,2.75 c 0.099,-0.429 0.22,-0.847 0.22,-1.034 0,-0.154 -0.077,-0.242 -0.22,-0.242 -0.352,0 -0.847,0.077 -1.364,0.143 -0.077,0.088 -0.055,0.209 0.011,0.308 l 0.44,0.033 c 0.132,0.011 0.198,0.11 0.198,0.22 0,0.11 -0.033,0.253 -0.099,0.561 l -0.517,2.266 c -0.077,0.352 -0.187,0.803 -0.187,1.012 0,0.209 0.121,0.363 0.451,0.363 0.528,0 1.023,-0.374 1.529,-1.023 -0.033,-0.099 -0.099,-0.187 -0.253,-0.187 -0.286,0.33 -0.605,0.55 -0.715,0.55 -0.088,0 -0.11,-0.055 -0.11,-0.187 0,-0.099 0.055,-0.341 0.121,-0.627 z"
     style="font-style:italic;font-variant:normal;font-weight:normal;font-stretch:normal;font-size:11px;font-family:'Linux Libertine O', serif;-inkscape-font-specification:'Linux Libertine O, serif Italic'"
     id="path951" /><path
     d="m 74.641703,-4.719 -0.583,0.033 c -0.209,0.011 -0.286,0.099 -0.308,0.187 -0.011,0.033 -0.044,0.165 -0.044,0.187 0,0.022 0.033,0.022 0.066,0.022 h 0.77 l -0.671,2.992 c -0.088,0.363 -0.154,0.693 -0.154,0.902 0,0.396 0.198,0.506 0.539,0.506 0.484,0 1.21,-0.451 1.595,-1.133 -0.033,-0.143 -0.11,-0.209 -0.242,-0.209 -0.506,0.572 -0.704,0.682 -0.88,0.682 -0.033,0 -0.143,-0.022 -0.143,-0.154 0,-0.099 0.033,-0.319 0.121,-0.693 l 0.649,-2.893 h 1.078 c 0.132,-0.055 0.231,-0.341 0.11,-0.429 h -1.089 l 0.11,-0.495 c 0.044,-0.198 0.143,-0.528 0.143,-0.66 0,-0.187 -0.088,-0.297 -0.44,-0.297 -0.396,0 -0.385,0.495 -0.484,0.902 z"
     style="font-style:italic;font-variant:normal;font-weight:normal;font-stretch:normal;font-size:11px;font-family:'Linux Libertine O', serif;-inkscape-font-specification:'Linux Libertine O, serif Italic'"
     id="path953" /><path
     d="m 78.17975,-6.27 c 0,0.286 0.242,0.528 0.528,0.528 0.286,0 0.528,-0.242 0.528,-0.528 0,-0.286 -0.242,-0.528 -0.528,-0.528 -0.286,0 -0.528,0.242 -0.528,0.528 z m 0.484,2.75 c 0.099,-0.429 0.22,-0.847 0.22,-1.034 0,-0.154 -0.077,-0.242 -0.22,-0.242 -0.352,0 -0.847,0.077 -1.364,0.143 -0.077,0.088 -0.055,0.209 0.011,0.308 l 0.44,0.033 c 0.132,0.011 0.198,0.11 0.198,0.22 0,0.11 -0.033,0.253 -0.099,0.561 l -0.517,2.266 c -0.077,0.352 -0.187,0.803 -0.187,1.012 0,0.209 0.121,0.363 0.451,0.363 0.528,0 1.023,-0.374 1.529,-1.023 -0.033,-0.099 -0.099,-0.187 -0.253,-0.187 -0.286,0.33 -0.605,0.55 -0.715,0.55 -0.088,0 -0.11,-0.055 -0.11,-0.187 0,-0.099 0.055,-0.341 0.121,-0.627 z"
     style="font-style:italic;font-variant:normal;font-weight:normal;font-stretch:normal;font-size:11px;font-family:'Linux Libertine O', serif;-inkscape-font-specification:'Linux Libertine O, serif Italic'"
     id="path955" /><path
     d="m 82.903047,-4.07 c 0,0.99 -1.166,1.353 -2.002,1.463 0.396,-1.551 1.001,-1.881 1.463,-1.881 0.396,0 0.539,0.099 0.539,0.418 z m -2.068,1.881 c 2.871,-0.561 2.827,-1.408 2.827,-1.826 0,-0.275 -0.253,-0.814 -1.045,-0.814 -1.914,0 -2.706,1.87 -2.706,3.267 0,0.935 0.44,1.672 1.353,1.672 0.737,0 1.408,-0.385 2.057,-1.221 -0.055,-0.121 -0.121,-0.176 -0.253,-0.176 -0.627,0.638 -0.88,0.737 -1.408,0.737 -0.495,0 -0.836,-0.264 -0.836,-1.265 0,-0.055 0,-0.286 0.011,-0.374 z"
     style="font-style:italic;font-variant:normal;font-weight:normal;font-stretch:normal;font-size:11px;font-family:'Linux Libertine O', serif;-inkscape-font-specification:'Linux Libertine O, serif Italic'"
     id="path957" /><path
     d="m 85.316344,0.11 h 0.165 c 1.078,0 1.727,-0.594 1.727,-1.408 0,-0.517 -0.297,-1.023 -1.309,-1.694 -0.33,-0.22 -0.44,-0.418 -0.44,-0.693 0,-0.385 0.22,-0.781 0.693,-0.781 0.275,0 0.462,0.088 0.495,0.319 0.033,0.264 0.22,0.572 0.506,0.572 0.308,0 0.396,-0.198 0.396,-0.374 0,-0.396 -0.572,-0.88 -1.254,-0.88 -0.957,0 -1.54,0.704 -1.54,1.375 0,0.44 0.242,0.913 0.957,1.397 0.583,0.396 0.671,0.759 0.671,0.99 0,0.605 -0.44,0.814 -0.935,0.814 -0.286,0 -0.44,-0.055 -0.473,-0.297 -0.033,-0.253 -0.187,-0.583 -0.517,-0.583 -0.319,0 -0.407,0.264 -0.407,0.385 0,0.407 0.506,0.814 1.265,0.858 z"
     style="font-style:italic;font-variant:normal;font-weight:normal;font-stretch:normal;font-size:11px;font-family:'Linux Libertine O', serif;-inkscape-font-specification:'Linux Libertine O, serif Italic'"
     id="path959" /></g>
<g
   id="g262"
   transform="translate(101.198,125.513)" /></g></g><g
                       id="g264"
                       transform="translate(56.693,1.604)" /></g></g></g></g></g><g
             id="g818"
             transform="translate(-126.627,-107.776)" /></g></g></g></g></svg>