<svg version="1.1" viewBox="0.0 0.0 1059.0 655.0" fill="none" stroke="none" stroke-linecap="square" stroke-miterlimit="10" width="1059" height="655" xmlns:xlink="http://www.w3.org/1999/xlink" xmlns="http://www.w3.org/2000/svg"><path fill="#ffffff" d="M0 0L1059.0 0L1059.0 655.0L0 655.0L0 0Z" fill-rule="nonzero"/><path stroke="#333333" stroke-width="1.0" stroke-linecap="butt" d="M55.5 565.5L1026.5 565.5" fill-rule="nonzero"/><path stroke="#cccccc" stroke-width="1.0" stroke-linecap="butt" d="M55.5 444.5L1026.5 444.5" fill-rule="nonzero"/><path stroke="#cccccc" stroke-width="1.0" stroke-linecap="butt" d="M55.5 324.5L1026.5 324.5" fill-rule="nonzero"/><path stroke="#cccccc" stroke-width="1.0" stroke-linecap="butt" d="M55.5 203.5L1026.5 203.5" fill-rule="nonzero"/><path stroke="#cccccc" stroke-width="1.0" stroke-linecap="butt" d="M55.5 83.5L1026.5 83.5" fill-rule="nonzero"/><clipPath id="id_0"><path d="M55.75 83.083336L1026.25 83.083336L1026.25 565.4167L55.75 565.4167L55.75 83.083336Z" clip-rule="nonzero"/></clipPath><path stroke="#1c4587" stroke-width="3.0" stroke-linecap="butt" clip-path="url(#id_0)" d="M104.275 420.71667L201.325 348.36667L298.375 493.06668L395.425 336.30832L492.475 107.2L589.525 426.74582L686.575 294.10416L783.625 468.95L880.675 161.4625L977.725 215.725" fill-rule="nonzero"/><path stroke="#6d9eeb" stroke-width="3.0" stroke-linecap="butt" clip-path="url(#id_0)" d="M104.275 426.74582L201.325 366.45416L298.375 505.125L395.425 384.54166L492.475 203.66667L589.525 456.89166L686.575 342.3375L783.625 523.2125L880.675 324.25L977.725 354.39584" fill-rule="nonzero"/><path fill="#000000" fill-opacity="0.0" clip-path="url(#id_0)" d="M107.275 420.71667C107.275 422.37354 105.931854 423.71667 104.275 423.71667C102.61815 423.71667 101.275 422.37354 101.275 420.71667C101.275 419.0598 102.61815 417.71667 104.275 417.71667C105.931854 417.71667 107.275 419.0598 107.275 420.71667Z" fill-rule="nonzero"/><path fill="#000000" fill-opacity="0.0" clip-path="url(#id_0)" d="M204.325 348.36667C204.325 350.02353 202.98186 351.36667 201.325 351.36667C199.66815 351.36667 198.325 350.02353 198.325 348.36667C198.325 346.7098 199.66815 345.36667 201.325 345.36667C202.98186 345.36667 204.325 346.7098 204.325 348.36667Z" fill-rule="nonzero"/><path fill="#000000" fill-opacity="0.0" clip-path="url(#id_0)" d="M301.375 493.06668C301.375 494.7235 300.03186 496.06668 298.375 496.06668C296.71814 496.06668 295.375 494.7235 295.375 493.06668C295.375 491.40982 296.71814 490.06668 298.375 490.06668C300.03186 490.06668 301.375 491.40982 301.375 493.06668Z" fill-rule="nonzero"/><path fill="#000000" fill-opacity="0.0" clip-path="url(#id_0)" d="M398.425 336.30832C398.425 337.96518 397.08185 339.30832 395.425 339.30832C393.76816 339.30832 392.425 337.96518 392.425 336.30832C392.425 334.6515 393.76816 333.30832 395.425 333.30832C397.08185 333.30832 398.425 334.6515 398.425 336.30832Z" fill-rule="nonzero"/><path fill="#000000" fill-opacity="0.0" clip-path="url(#id_0)" d="M495.475 107.2C495.475 108.85686 494.13187 110.2 492.475 110.2C490.81815 110.2 489.475 108.85686 489.475 107.2C489.475 105.543144 490.81815 104.2 492.475 104.2C494.13187 104.2 495.475 105.543144 495.475 107.2Z" fill-rule="nonzero"/><path fill="#000000" fill-opacity="0.0" clip-path="url(#id_0)" d="M592.525 426.74582C592.525 428.40268 591.1819 429.74582 589.525 429.74582C587.86816 429.74582 586.525 428.40268 586.525 426.74582C586.525 425.089 587.86816 423.74582 589.525 423.74582C591.1819 423.74582 592.525 425.089 592.525 426.74582Z" fill-rule="nonzero"/><path fill="#000000" fill-opacity="0.0" clip-path="url(#id_0)" d="M689.575 294.10416C689.575 295.76102 688.2319 297.10416 686.575 297.10416C684.91815 297.10416 683.575 295.76102 683.575 294.10416C683.575 292.44733 684.91815 291.10416 686.575 291.10416C688.2319 291.10416 689.575 292.44733 689.575 294.10416Z" fill-rule="nonzero"/><path fill="#000000" fill-opacity="0.0" clip-path="url(#id_0)" d="M786.625 468.95C786.625 470.60684 785.28186 471.95 783.625 471.95C781.96814 471.95 780.625 470.60684 780.625 468.95C780.625 467.29315 781.96814 465.95 783.625 465.95C785.28186 465.95 786.625 467.29315 786.625 468.95Z" fill-rule="nonzero"/><path fill="#000000" fill-opacity="0.0" clip-path="url(#id_0)" d="M883.675 161.4625C883.675 163.11935 882.33185 164.4625 880.675 164.4625C879.0181 164.4625 877.675 163.11935 877.675 161.4625C877.675 159.80565 879.0181 158.4625 880.675 158.4625C882.33185 158.4625 883.675 159.80565 883.675 161.4625Z" fill-rule="nonzero"/><path fill="#000000" fill-opacity="0.0" clip-path="url(#id_0)" d="M980.725 215.725C980.725 217.38185 979.38184 218.725 977.725 218.725C976.0681 218.725 974.725 217.38185 974.725 215.725C974.725 214.06815 976.0681 212.725 977.725 212.725C979.38184 212.725 980.725 214.06815 980.725 215.725Z" fill-rule="nonzero"/><path fill="#000000" fill-opacity="0.0" clip-path="url(#id_0)" d="M107.275 426.74582C107.275 428.40268 105.931854 429.74582 104.275 429.74582C102.61815 429.74582 101.275 428.40268 101.275 426.74582C101.275 425.089 102.61815 423.74582 104.275 423.74582C105.931854 423.74582 107.275 425.089 107.275 426.74582Z" fill-rule="nonzero"/><path fill="#000000" fill-opacity="0.0" clip-path="url(#id_0)" d="M204.325 366.45416C204.325 368.11102 202.98186 369.45416 201.325 369.45416C199.66815 369.45416 198.325 368.11102 198.325 366.45416C198.325 364.7973 199.66815 363.45416 201.325 363.45416C202.98186 363.45416 204.325 364.7973 204.325 366.45416Z" fill-rule="nonzero"/><path fill="#000000" fill-opacity="0.0" clip-path="url(#id_0)" d="M301.375 505.125C301.375 506.78186 300.03186 508.125 298.375 508.125C296.71814 508.125 295.375 506.78186 295.375 505.125C295.375 503.46814 296.71814 502.125 298.375 502.125C300.03186 502.125 301.375 503.46814 301.375 505.125Z" fill-rule="nonzero"/><path fill="#000000" fill-opacity="0.0" clip-path="url(#id_0)" d="M398.425 384.54166C398.425 386.19852 397.08185 387.54166 395.425 387.54166C393.76816 387.54166 392.425 386.19852 392.425 384.54166C392.425 382.88483 393.76816 381.54166 395.425 381.54166C397.08185 381.54166 398.425 382.88483 398.425 384.54166Z" fill-rule="nonzero"/><path fill="#000000" fill-opacity="0.0" clip-path="url(#id_0)" d="M495.475 203.66667C495.475 205.32352 494.13187 206.66667 492.475 206.66667C490.81815 206.66667 489.475 205.32352 489.475 203.66667C489.475 202.00981 490.81815 200.66667 492.475 200.66667C494.13187 200.66667 495.475 202.00981 495.475 203.66667Z" fill-rule="nonzero"/><path fill="#000000" fill-opacity="0.0" clip-path="url(#id_0)" d="M592.525 456.89166C592.525 458.54852 591.1819 459.89166 589.525 459.89166C587.86816 459.89166 586.525 458.54852 586.525 456.89166C586.525 455.2348 587.86816 453.89166 589.525 453.89166C591.1819 453.89166 592.525 455.2348 592.525 456.89166Z" fill-rule="nonzero"/><path fill="#000000" fill-opacity="0.0" clip-path="url(#id_0)" d="M689.575 342.3375C689.575 343.99435 688.2319 345.3375 686.575 345.3375C684.91815 345.3375 683.575 343.99435 683.575 342.3375C683.575 340.68063 684.91815 339.3375 686.575 339.3375C688.2319 339.3375 689.575 340.68063 689.575 342.3375Z" fill-rule="nonzero"/><path fill="#000000" fill-opacity="0.0" clip-path="url(#id_0)" d="M786.625 523.2125C786.625 524.8694 785.28186 526.2125 783.625 526.2125C781.96814 526.2125 780.625 524.8694 780.625 523.2125C780.625 521.55566 781.96814 520.2125 783.625 520.2125C785.28186 520.2125 786.625 521.55566 786.625 523.2125Z" fill-rule="nonzero"/><path fill="#000000" fill-opacity="0.0" clip-path="url(#id_0)" d="M883.675 324.25C883.675 325.90686 882.33185 327.25 880.675 327.25C879.0181 327.25 877.675 325.90686 877.675 324.25C877.675 322.59314 879.0181 321.25 880.675 321.25C882.33185 321.25 883.675 322.59314 883.675 324.25Z" fill-rule="nonzero"/><path fill="#000000" fill-opacity="0.0" clip-path="url(#id_0)" d="M980.725 354.39584C980.725 356.05267 979.38184 357.39584 977.725 357.39584C976.0681 357.39584 974.725 356.05267 974.725 354.39584C974.725 352.73898 976.0681 351.39584 977.725 351.39584C979.38184 351.39584 980.725 352.73898 980.725 354.39584Z" fill-rule="nonzero"/><path fill="#b7b7b7" d="M49.796875 565.88544Q49.796875 567.46356 49.25 568.2448Q48.71875 569.01044 47.5625 569.01044Q46.421875 569.01044 45.875 568.26044Q45.328125 567.51044 45.3125 566.01044L45.3125 564.8073Q45.3125 563.2292 45.84375 562.4792Q46.390625 561.71356 47.546875 561.71356Q48.703125 561.71356 49.234375 562.44794Q49.78125 563.1823 49.796875 564.71356L49.796875 565.88544ZM48.890625 564.65106Q48.890625 563.4948 48.5625 562.9792Q48.25 562.44794 47.546875 562.44794Q46.859375 562.44794 46.53125 562.9792Q46.21875 563.4948 46.21875 564.57294L46.21875 566.02606Q46.21875 567.1823 46.546875 567.7292Q46.890625 568.27606 47.5625 568.27606Q48.234375 568.27606 48.546875 567.76044Q48.875 567.2448 48.890625 566.13544L48.890625 564.65106Z" fill-rule="nonzero"/><path fill="#b7b7b7" d="M38.0 448.33334L33.34375 448.33334L33.34375 447.6771L35.796875 444.94272Q36.34375 444.33334 36.546875 443.94272Q36.765625 443.5521 36.765625 443.13022Q36.765625 442.58334 36.421875 442.22397Q36.09375 441.8646 35.53125 441.8646Q34.859375 441.8646 34.484375 442.25522Q34.109375 442.63022 34.109375 443.31772L33.203125 443.31772Q33.203125 442.33334 33.828125 441.7396Q34.46875 441.13022 35.53125 441.13022Q36.515625 441.13022 37.09375 441.64584Q37.671875 442.16147 37.671875 443.03647Q37.671875 444.08334 36.328125 445.53647L34.4375 447.59897L38.0 447.59897L38.0 448.33334ZM43.796875 445.3021Q43.796875 446.88022 43.25 447.66147Q42.71875 448.4271 41.5625 448.4271Q40.421875 448.4271 39.875 447.6771Q39.328125 446.9271 39.3125 445.4271L39.3125 444.22397Q39.3125 442.64584 39.84375 441.89584Q40.390625 441.13022 41.546875 441.13022Q42.703125 441.13022 43.234375 441.8646Q43.78125 442.59897 43.796875 444.13022L43.796875 445.3021ZM42.890625 444.06772Q42.890625 442.91147 42.5625 442.39584Q42.25 441.8646 41.546875 441.8646Q40.859375 441.8646 40.53125 442.39584Q40.21875 442.91147 40.21875 443.9896L40.21875 445.44272Q40.21875 446.59897 40.546875 447.14584Q40.890625 447.69272 41.5625 447.69272Q42.234375 447.69272 42.546875 447.1771Q42.875 446.66147 42.890625 445.5521L42.890625 444.06772ZM49.796875 445.3021Q49.796875 446.88022 49.25 447.66147Q48.71875 448.4271 47.5625 448.4271Q46.421875 448.4271 45.875 447.6771Q45.328125 446.9271 45.3125 445.4271L45.3125 444.22397Q45.3125 442.64584 45.84375 441.89584Q46.390625 441.13022 47.546875 441.13022Q48.703125 441.13022 49.234375 441.8646Q49.78125 442.59897 49.796875 444.13022L49.796875 445.3021ZM48.890625 444.06772Q48.890625 442.91147 48.5625 442.39584Q48.25 441.8646 47.546875 441.8646Q46.859375 441.8646 46.53125 442.39584Q46.21875 442.91147 46.21875 443.9896L46.21875 445.44272Q46.21875 446.59897 46.546875 447.14584Q46.890625 447.69272 47.5625 447.69272Q48.234375 447.69272 48.546875 447.1771Q48.875 446.66147 48.890625 445.5521L48.890625 444.06772Z" fill-rule="nonzero"/><path fill="#b7b7b7" d="M37.15625 325.35938L38.140625 325.35938L38.140625 326.09375L37.15625 326.09375L37.15625 327.75L36.25 327.75L36.25 326.09375L33.015625 326.09375L33.015625 325.5625L36.1875 320.64062L37.15625 320.64062L37.15625 325.35938ZM34.03125 325.35938L36.25 325.35938L36.25 321.875L36.140625 322.07812L34.03125 325.35938ZM43.796875 324.71875Q43.796875 326.29688 43.25 327.07812Q42.71875 327.84375 41.5625 327.84375Q40.421875 327.84375 39.875 327.09375Q39.328125 326.34375 39.3125 324.84375L39.3125 323.64062Q39.3125 322.0625 39.84375 321.3125Q40.390625 320.54688 41.546875 320.54688Q42.703125 320.54688 43.234375 321.28125Q43.78125 322.01562 43.796875 323.54688L43.796875 324.71875ZM42.890625 323.48438Q42.890625 322.32812 42.5625 321.8125Q42.25 321.28125 41.546875 321.28125Q40.859375 321.28125 40.53125 321.8125Q40.21875 322.32812 40.21875 323.40625L40.21875 324.85938Q40.21875 326.01562 40.546875 326.5625Q40.890625 327.10938 41.5625 327.10938Q42.234375 327.10938 42.546875 326.59375Q42.875 326.07812 42.890625 324.96875L42.890625 323.48438ZM49.796875 324.71875Q49.796875 326.29688 49.25 327.07812Q48.71875 327.84375 47.5625 327.84375Q46.421875 327.84375 45.875 327.09375Q45.328125 326.34375 45.3125 324.84375L45.3125 323.64062Q45.3125 322.0625 45.84375 321.3125Q46.390625 320.54688 47.546875 320.54688Q48.703125 320.54688 49.234375 321.28125Q49.78125 322.01562 49.796875 323.54688L49.796875 324.71875ZM48.890625 323.48438Q48.890625 322.32812 48.5625 321.8125Q48.25 321.28125 47.546875 321.28125Q46.859375 321.28125 46.53125 321.8125Q46.21875 322.32812 46.21875 323.40625L46.21875 324.85938Q46.21875 326.01562 46.546875 326.5625Q46.890625 327.10938 47.5625 327.10938Q48.234375 327.10938 48.546875 326.59375Q48.875 326.07812 48.890625 324.96875L48.890625 323.48438Z" fill-rule="nonzero"/><path fill="#b7b7b7" d="M36.890625 200.0573L36.890625 200.82292L36.71875 200.82292Q35.671875 200.83855 35.046875 201.44792Q34.421875 202.04167 34.3125 203.15105Q34.875 202.51042 35.84375 202.51042Q36.78125 202.51042 37.328125 203.16667Q37.890625 203.8073 37.890625 204.85417Q37.890625 205.94792 37.28125 206.60417Q36.6875 207.26042 35.6875 207.26042Q34.671875 207.26042 34.03125 206.47917Q33.390625 205.69792 33.390625 204.46355L33.390625 204.1198Q33.390625 202.15105 34.21875 201.1198Q35.0625 200.07292 36.71875 200.0573L36.890625 200.0573ZM35.703125 203.26042Q35.234375 203.26042 34.84375 203.54167Q34.453125 203.8073 34.296875 204.22917L34.296875 204.5573Q34.296875 205.44792 34.6875 205.97917Q35.09375 206.51042 35.6875 206.51042Q36.296875 206.51042 36.640625 206.07292Q37.0 205.6198 37.0 204.88542Q37.0 204.15105 36.640625 203.71355Q36.28125 203.26042 35.703125 203.26042ZM43.796875 204.13542Q43.796875 205.71355 43.25 206.4948Q42.71875 207.26042 41.5625 207.26042Q40.421875 207.26042 39.875 206.51042Q39.328125 205.76042 39.3125 204.26042L39.3125 203.0573Q39.3125 201.47917 39.84375 200.72917Q40.390625 199.96355 41.546875 199.96355Q42.703125 199.96355 43.234375 200.69792Q43.78125 201.4323 43.796875 202.96355L43.796875 204.13542ZM42.890625 202.90105Q42.890625 201.7448 42.5625 201.22917Q42.25 200.69792 41.546875 200.69792Q40.859375 200.69792 40.53125 201.22917Q40.21875 201.7448 40.21875 202.82292L40.21875 204.27605Q40.21875 205.4323 40.546875 205.97917Q40.890625 206.52605 41.5625 206.52605Q42.234375 206.52605 42.546875 206.01042Q42.875 205.4948 42.890625 204.38542L42.890625 202.90105ZM49.796875 204.13542Q49.796875 205.71355 49.25 206.4948Q48.71875 207.26042 47.5625 207.26042Q46.421875 207.26042 45.875 206.51042Q45.328125 205.76042 45.3125 204.26042L45.3125 203.0573Q45.3125 201.47917 45.84375 200.72917Q46.390625 199.96355 47.546875 199.96355Q48.703125 199.96355 49.234375 200.69792Q49.78125 201.4323 49.796875 202.96355L49.796875 204.13542ZM48.890625 202.90105Q48.890625 201.7448 48.5625 201.22917Q48.25 200.69792 47.546875 200.69792Q46.859375 200.69792 46.53125 201.22917Q46.21875 201.7448 46.21875 202.82292L46.21875 204.27605Q46.21875 205.4323 46.546875 205.97917Q46.890625 206.52605 47.5625 206.52605Q48.234375 206.52605 48.546875 206.01042Q48.875 205.4948 48.890625 204.38542L48.890625 202.90105Z" fill-rule="nonzero"/><path fill="#b7b7b7" d="M37.65625 81.333336Q37.65625 81.864586 37.375 82.28646Q37.09375 82.69271 36.609375 82.927086Q37.171875 83.16146 37.484375 83.63021Q37.8125 84.083336 37.8125 84.66146Q37.8125 85.583336 37.1875 86.13021Q36.578125 86.677086 35.5625 86.677086Q34.53125 86.677086 33.90625 86.13021Q33.296875 85.583336 33.296875 84.66146Q33.296875 84.083336 33.609375 83.63021Q33.921875 83.16146 34.484375 82.927086Q34.015625 82.69271 33.734375 82.270836Q33.46875 81.84896 33.46875 81.333336Q33.46875 80.427086 34.03125 79.91146Q34.609375 79.38021 35.5625 79.38021Q36.5 79.38021 37.078125 79.91146Q37.65625 80.427086 37.65625 81.333336ZM36.921875 84.645836Q36.921875 84.052086 36.53125 83.677086Q36.15625 83.302086 35.546875 83.302086Q34.9375 83.302086 34.5625 83.677086Q34.203125 84.03646 34.203125 84.645836Q34.203125 85.25521 34.5625 85.59896Q34.921875 85.94271 35.5625 85.94271Q36.1875 85.94271 36.546875 85.59896Q36.921875 85.239586 36.921875 84.645836ZM35.5625 80.114586Q35.03125 80.114586 34.6875 80.44271Q34.359375 80.770836 34.359375 81.34896Q34.359375 81.88021 34.6875 82.22396Q35.015625 82.552086 35.546875 82.552086Q36.09375 82.552086 36.421875 82.22396Q36.75 81.88021 36.75 81.34896Q36.75 80.802086 36.40625 80.458336Q36.078125 80.114586 35.5625 80.114586ZM43.796875 83.552086Q43.796875 85.13021 43.25 85.91146Q42.71875 86.677086 41.5625 86.677086Q40.421875 86.677086 39.875 85.927086Q39.328125 85.177086 39.3125 83.677086L39.3125 82.47396Q39.3125 80.895836 39.84375 80.145836Q40.390625 79.38021 41.546875 79.38021Q42.703125 79.38021 43.234375 80.114586Q43.78125 80.84896 43.796875 82.38021L43.796875 83.552086ZM42.890625 82.31771Q42.890625 81.16146 42.5625 80.645836Q42.25 80.114586 41.546875 80.114586Q40.859375 80.114586 40.53125 80.645836Q40.21875 81.16146 40.21875 82.239586L40.21875 83.69271Q40.21875 84.84896 40.546875 85.395836Q40.890625 85.94271 41.5625 85.94271Q42.234375 85.94271 42.546875 85.427086Q42.875 84.91146 42.890625 83.802086L42.890625 82.31771ZM49.796875 83.552086Q49.796875 85.13021 49.25 85.91146Q48.71875 86.677086 47.5625 86.677086Q46.421875 86.677086 45.875 85.927086Q45.328125 85.177086 45.3125 83.677086L45.3125 82.47396Q45.3125 80.895836 45.84375 80.145836Q46.390625 79.38021 47.546875 79.38021Q48.703125 79.38021 49.234375 80.114586Q49.78125 80.84896 49.796875 82.38021L49.796875 83.552086ZM48.890625 82.31771Q48.890625 81.16146 48.5625 80.645836Q48.25 80.114586 47.546875 80.114586Q46.859375 80.114586 46.53125 80.645836Q46.21875 81.16146 46.21875 82.239586L46.21875 83.69271Q46.21875 84.84896 46.546875 85.395836Q46.890625 85.94271 47.5625 85.94271Q48.234375 85.94271 48.546875 85.427086Q48.875 84.91146 48.890625 83.802086L48.890625 82.31771Z" fill-rule="nonzero"/><path fill="#000000" d="M90.0875 579.4792L86.38438 579.4792L86.38438 582.4948L90.68125 582.4948L90.68125 583.4167L85.25938 583.4167L85.25938 574.88544L90.63438 574.88544L90.63438 575.8073L86.38438 575.8073L86.38438 578.5573L90.0875 578.5573L90.0875 579.4792ZM94.18125 581.94794L95.75938 577.07294L96.86875 577.07294L94.5875 583.4167L93.75938 583.4167L91.4625 577.07294L92.57188 577.07294L94.18125 581.94794ZM100.72813 583.5417Q99.43125 583.5417 98.61875 582.69794Q97.82188 581.83856 97.82188 580.4167L97.82188 580.2292Q97.82188 579.27606 98.18125 578.5417Q98.54063 577.7917 99.18125 577.38544Q99.8375 576.96356 100.5875 576.96356Q101.82188 576.96356 102.50938 577.77606Q103.19688 578.58856 103.19688 580.1042L103.19688 580.5573L98.9 580.5573Q98.93125 581.4948 99.44688 582.07294Q99.97813 582.65106 100.79063 582.65106Q101.35313 582.65106 101.74375 582.4167Q102.15 582.1823 102.4625 581.7917L103.11875 582.3073Q102.32188 583.5417 100.72813 583.5417ZM100.5875 577.8542Q99.93125 577.8542 99.47813 578.33856Q99.04063 578.8073 98.94688 579.6667L102.11875 579.6667L102.11875 579.58856Q102.07188 578.76044 101.66563 578.3073Q101.275 577.8542 100.5875 577.8542ZM105.11875 577.07294L105.15 577.8698Q105.88438 576.96356 107.05625 576.96356Q109.07188 576.96356 109.0875 579.2292L109.0875 583.4167L107.99375 583.4167L107.99375 579.21356Q107.99375 578.5417 107.68125 578.21356Q107.38438 577.88544 106.72813 577.88544Q106.19688 577.88544 105.79063 578.1667Q105.4 578.44794 105.18125 578.90106L105.18125 583.4167L104.10313 583.4167L104.10313 577.07294L105.11875 577.07294ZM112.57188 575.5417L112.57188 577.07294L113.74375 577.07294L113.74375 577.9167L112.57188 577.9167L112.57188 581.83856Q112.57188 582.2292 112.72813 582.4167Q112.88438 582.6042 113.25938 582.6042Q113.44688 582.6042 113.775 582.5417L113.775 583.4167Q113.35313 583.5417 112.94688 583.5417Q112.22813 583.5417 111.85313 583.1042Q111.47813 582.65106 111.47813 581.83856L111.47813 577.9167L110.32188 577.9167L110.32188 577.07294L111.47813 577.07294L111.47813 575.5417L112.57188 575.5417ZM121.54063 583.4167L120.4625 583.4167L120.4625 576.19794L118.275 576.9948L118.275 576.01044L121.38438 574.83856L121.54063 574.83856L121.54063 583.4167Z" fill-rule="nonzero"/><path fill="#000000" d="M187.1375 579.4792L183.43437 579.4792L183.43437 582.4948L187.73125 582.4948L187.73125 583.4167L182.30937 583.4167L182.30937 574.88544L187.68437 574.88544L187.68437 575.8073L183.43437 575.8073L183.43437 578.5573L187.1375 578.5573L187.1375 579.4792ZM191.23125 581.94794L192.80937 577.07294L193.91875 577.07294L191.6375 583.4167L190.80937 583.4167L188.5125 577.07294L189.62187 577.07294L191.23125 581.94794ZM197.77812 583.5417Q196.48125 583.5417 195.66875 582.69794Q194.87187 581.83856 194.87187 580.4167L194.87187 580.2292Q194.87187 579.27606 195.23125 578.5417Q195.59062 577.7917 196.23125 577.38544Q196.8875 576.96356 197.6375 576.96356Q198.87187 576.96356 199.55937 577.77606Q200.24687 578.58856 200.24687 580.1042L200.24687 580.5573L195.95 580.5573Q195.98125 581.4948 196.49687 582.07294Q197.02812 582.65106 197.84062 582.65106Q198.40312 582.65106 198.79375 582.4167Q199.2 582.1823 199.5125 581.7917L200.16875 582.3073Q199.37187 583.5417 197.77812 583.5417ZM197.6375 577.8542Q196.98125 577.8542 196.52812 578.33856Q196.09062 578.8073 195.99687 579.6667L199.16875 579.6667L199.16875 579.58856Q199.12187 578.76044 198.71562 578.3073Q198.325 577.8542 197.6375 577.8542ZM202.16875 577.07294L202.2 577.8698Q202.93437 576.96356 204.10625 576.96356Q206.12187 576.96356 206.1375 579.2292L206.1375 583.4167L205.04375 583.4167L205.04375 579.21356Q205.04375 578.5417 204.73125 578.21356Q204.43437 577.88544 203.77812 577.88544Q203.24687 577.88544 202.84062 578.1667Q202.45 578.44794 202.23125 578.90106L202.23125 583.4167L201.15312 583.4167L201.15312 577.07294L202.16875 577.07294ZM209.62187 575.5417L209.62187 577.07294L210.79375 577.07294L210.79375 577.9167L209.62187 577.9167L209.62187 581.83856Q209.62187 582.2292 209.77812 582.4167Q209.93437 582.6042 210.30937 582.6042Q210.49687 582.6042 210.825 582.5417L210.825 583.4167Q210.40312 583.5417 209.99687 583.5417Q209.27812 583.5417 208.90312 583.1042Q208.52812 582.65106 208.52812 581.83856L208.52812 577.9167L207.37187 577.9167L207.37187 577.07294L208.52812 577.07294L208.52812 575.5417L209.62187 575.5417ZM220.62187 583.4167L215.02812 583.4167L215.02812 582.63544L217.98125 579.3542Q218.6375 578.6042 218.8875 578.15106Q219.1375 577.6823 219.1375 577.1823Q219.1375 576.51044 218.73125 576.08856Q218.34062 575.65106 217.65312 575.65106Q216.85625 575.65106 216.40312 576.1198Q215.95 576.57294 215.95 577.40106L214.87187 577.40106Q214.87187 576.21356 215.62187 575.4948Q216.3875 574.76044 217.65312 574.76044Q218.85625 574.76044 219.54375 575.38544Q220.23125 576.01044 220.23125 577.0573Q220.23125 578.3073 218.62187 580.0573L216.34062 582.52606L220.62187 582.52606L220.62187 583.4167Z" fill-rule="nonzero"/><path fill="#000000" d="M284.1875 579.4792L280.48438 579.4792L280.48438 582.4948L284.78125 582.4948L284.78125 583.4167L279.35938 583.4167L279.35938 574.88544L284.73438 574.88544L284.73438 575.8073L280.48438 575.8073L280.48438 578.5573L284.1875 578.5573L284.1875 579.4792ZM288.28125 581.94794L289.85938 577.07294L290.96875 577.07294L288.6875 583.4167L287.85938 583.4167L285.5625 577.07294L286.67188 577.07294L288.28125 581.94794ZM294.82812 583.5417Q293.53125 583.5417 292.71875 582.69794Q291.92188 581.83856 291.92188 580.4167L291.92188 580.2292Q291.92188 579.27606 292.28125 578.5417Q292.64062 577.7917 293.28125 577.38544Q293.9375 576.96356 294.6875 576.96356Q295.92188 576.96356 296.60938 577.77606Q297.29688 578.58856 297.29688 580.1042L297.29688 580.5573L293.0 580.5573Q293.03125 581.4948 293.54688 582.07294Q294.07812 582.65106 294.89062 582.65106Q295.45312 582.65106 295.84375 582.4167Q296.25 582.1823 296.5625 581.7917L297.21875 582.3073Q296.42188 583.5417 294.82812 583.5417ZM294.6875 577.8542Q294.03125 577.8542 293.57812 578.33856Q293.14062 578.8073 293.04688 579.6667L296.21875 579.6667L296.21875 579.58856Q296.17188 578.76044 295.76562 578.3073Q295.375 577.8542 294.6875 577.8542ZM299.21875 577.07294L299.25 577.8698Q299.98438 576.96356 301.15625 576.96356Q303.17188 576.96356 303.1875 579.2292L303.1875 583.4167L302.09375 583.4167L302.09375 579.21356Q302.09375 578.5417 301.78125 578.21356Q301.48438 577.88544 300.82812 577.88544Q300.29688 577.88544 299.89062 578.1667Q299.5 578.44794 299.28125 578.90106L299.28125 583.4167L298.20312 583.4167L298.20312 577.07294L299.21875 577.07294ZM306.67188 575.5417L306.67188 577.07294L307.84375 577.07294L307.84375 577.9167L306.67188 577.9167L306.67188 581.83856Q306.67188 582.2292 306.82812 582.4167Q306.98438 582.6042 307.35938 582.6042Q307.54688 582.6042 307.875 582.5417L307.875 583.4167Q307.45312 583.5417 307.04688 583.5417Q306.32812 583.5417 305.95312 583.1042Q305.57812 582.65106 305.57812 581.83856L305.57812 577.9167L304.42188 577.9167L304.42188 577.07294L305.57812 577.07294L305.57812 575.5417L306.67188 575.5417ZM313.65625 578.6198L314.46875 578.6198Q315.25 578.6042 315.6875 578.21356Q316.125 577.82294 316.125 577.15106Q316.125 575.65106 314.625 575.65106Q313.92188 575.65106 313.5 576.0573Q313.09375 576.46356 313.09375 577.1198L312.0 577.1198Q312.0 576.1042 312.73438 575.4323Q313.48438 574.76044 314.625 574.76044Q315.82812 574.76044 316.51562 575.40106Q317.20312 576.0417 317.20312 577.1823Q317.20312 577.7448 316.84375 578.26044Q316.48438 578.77606 315.85938 579.0417Q316.5625 579.26044 316.9375 579.77606Q317.32812 580.2917 317.32812 581.0417Q317.32812 582.1823 316.57812 582.8698Q315.82812 583.5417 314.625 583.5417Q313.4375 583.5417 312.67188 582.88544Q311.92188 582.2292 311.92188 581.1667L313.01562 581.1667Q313.01562 581.83856 313.45312 582.2448Q313.89062 582.65106 314.64062 582.65106Q315.42188 582.65106 315.82812 582.2448Q316.25 581.82294 316.25 581.0573Q316.25 580.32294 315.79688 579.9323Q315.34375 579.52606 314.46875 579.51044L313.65625 579.51044L313.65625 578.6198Z" fill-rule="nonzero"/><path fill="#000000" d="M381.2375 579.4792L377.53436 579.4792L377.53436 582.4948L381.83124 582.4948L381.83124 583.4167L376.40936 583.4167L376.40936 574.88544L381.78436 574.88544L381.78436 575.8073L377.53436 575.8073L377.53436 578.5573L381.2375 578.5573L381.2375 579.4792ZM385.33124 581.94794L386.90936 577.07294L388.01874 577.07294L385.7375 583.4167L384.90936 583.4167L382.6125 577.07294L383.72186 577.07294L385.33124 581.94794ZM391.8781 583.5417Q390.58124 583.5417 389.76874 582.69794Q388.97186 581.83856 388.97186 580.4167L388.97186 580.2292Q388.97186 579.27606 389.33124 578.5417Q389.6906 577.7917 390.33124 577.38544Q390.9875 576.96356 391.7375 576.96356Q392.97186 576.96356 393.65936 577.77606Q394.34686 578.58856 394.34686 580.1042L394.34686 580.5573L390.05 580.5573Q390.08124 581.4948 390.59686 582.07294Q391.1281 582.65106 391.9406 582.65106Q392.5031 582.65106 392.89374 582.4167Q393.3 582.1823 393.6125 581.7917L394.26874 582.3073Q393.47186 583.5417 391.8781 583.5417ZM391.7375 577.8542Q391.08124 577.8542 390.6281 578.33856Q390.1906 578.8073 390.09686 579.6667L393.26874 579.6667L393.26874 579.58856Q393.22186 578.76044 392.8156 578.3073Q392.425 577.8542 391.7375 577.8542ZM396.26874 577.07294L396.3 577.8698Q397.03436 576.96356 398.20624 576.96356Q400.22186 576.96356 400.2375 579.2292L400.2375 583.4167L399.14374 583.4167L399.14374 579.21356Q399.14374 578.5417 398.83124 578.21356Q398.53436 577.88544 397.8781 577.88544Q397.34686 577.88544 396.9406 578.1667Q396.55 578.44794 396.33124 578.90106L396.33124 583.4167L395.2531 583.4167L395.2531 577.07294L396.26874 577.07294ZM403.72186 575.5417L403.72186 577.07294L404.89374 577.07294L404.89374 577.9167L403.72186 577.9167L403.72186 581.83856Q403.72186 582.2292 403.8781 582.4167Q404.03436 582.6042 404.40936 582.6042Q404.59686 582.6042 404.925 582.5417L404.925 583.4167Q404.5031 583.5417 404.09686 583.5417Q403.3781 583.5417 403.0031 583.1042Q402.6281 582.65106 402.6281 581.83856L402.6281 577.9167L401.47186 577.9167L401.47186 577.07294L402.6281 577.07294L402.6281 575.5417L403.72186 575.5417ZM413.70624 580.5573L414.89374 580.5573L414.89374 581.4323L413.70624 581.4323L413.70624 583.4167L412.6281 583.4167L412.6281 581.4323L408.7375 581.4323L408.7375 580.7917L412.55 574.88544L413.70624 574.88544L413.70624 580.5573ZM409.97186 580.5573L412.6281 580.5573L412.6281 576.3698L412.4875 576.6042L409.97186 580.5573Z" fill-rule="nonzero"/><path fill="#000000" d="M478.2875 579.4792L474.58438 579.4792L474.58438 582.4948L478.88126 582.4948L478.88126 583.4167L473.45938 583.4167L473.45938 574.88544L478.83438 574.88544L478.83438 575.8073L474.58438 575.8073L474.58438 578.5573L478.2875 578.5573L478.2875 579.4792ZM482.38126 581.94794L483.95938 577.07294L485.06876 577.07294L482.7875 583.4167L481.95938 583.4167L479.6625 577.07294L480.77188 577.07294L482.38126 581.94794ZM488.92813 583.5417Q487.63126 583.5417 486.81876 582.69794Q486.02188 581.83856 486.02188 580.4167L486.02188 580.2292Q486.02188 579.27606 486.38126 578.5417Q486.74063 577.7917 487.38126 577.38544Q488.0375 576.96356 488.7875 576.96356Q490.02188 576.96356 490.70938 577.77606Q491.39688 578.58856 491.39688 580.1042L491.39688 580.5573L487.1 580.5573Q487.13126 581.4948 487.64688 582.07294Q488.17813 582.65106 488.99063 582.65106Q489.55313 582.65106 489.94376 582.4167Q490.35 582.1823 490.6625 581.7917L491.31876 582.3073Q490.52188 583.5417 488.92813 583.5417ZM488.7875 577.8542Q488.13126 577.8542 487.67813 578.33856Q487.24063 578.8073 487.14688 579.6667L490.31876 579.6667L490.31876 579.58856Q490.27188 578.76044 489.86563 578.3073Q489.475 577.8542 488.7875 577.8542ZM493.31876 577.07294L493.35 577.8698Q494.08438 576.96356 495.25626 576.96356Q497.27188 576.96356 497.2875 579.2292L497.2875 583.4167L496.19376 583.4167L496.19376 579.21356Q496.19376 578.5417 495.88126 578.21356Q495.58438 577.88544 494.92813 577.88544Q494.39688 577.88544 493.99063 578.1667Q493.6 578.44794 493.38126 578.90106L493.38126 583.4167L492.30313 583.4167L492.30313 577.07294L493.31876 577.07294ZM500.77188 575.5417L500.77188 577.07294L501.94376 577.07294L501.94376 577.9167L500.77188 577.9167L500.77188 581.83856Q500.77188 582.2292 500.92813 582.4167Q501.08438 582.6042 501.45938 582.6042Q501.64688 582.6042 501.975 582.5417L501.975 583.4167Q501.55313 583.5417 501.14688 583.5417Q500.42813 583.5417 500.05313 583.1042Q499.67813 582.65106 499.67813 581.83856L499.67813 577.9167L498.52188 577.9167L498.52188 577.07294L499.67813 577.07294L499.67813 575.5417L500.77188 575.5417ZM506.67813 579.13544L507.11563 574.88544L511.49063 574.88544L511.49063 575.88544L508.0375 575.88544L507.77188 578.21356Q508.4125 577.83856 509.20938 577.83856Q510.36563 577.83856 511.05313 578.6198Q511.74063 579.38544 511.74063 580.69794Q511.74063 582.01044 511.02188 582.77606Q510.31876 583.5417 509.0375 583.5417Q507.9125 583.5417 507.19376 582.9167Q506.475 582.27606 506.38126 581.1667L507.39688 581.1667Q507.50626 581.90106 507.92813 582.27606Q508.35 582.65106 509.0375 582.65106Q509.7875 582.65106 510.225 582.13544Q510.6625 581.6198 510.6625 580.71356Q510.6625 579.8542 510.19376 579.33856Q509.725 578.82294 508.94376 578.82294Q508.24063 578.82294 507.83438 579.1198L507.55313 579.3542L506.67813 579.13544Z" fill-rule="nonzero"/><path fill="#000000" d="M575.3375 579.4792L571.6344 579.4792L571.6344 582.4948L575.9313 582.4948L575.9313 583.4167L570.5094 583.4167L570.5094 574.88544L575.8844 574.88544L575.8844 575.8073L571.6344 575.8073L571.6344 578.5573L575.3375 578.5573L575.3375 579.4792ZM579.4313 581.94794L581.0094 577.07294L582.1188 577.07294L579.8375 583.4167L579.0094 583.4167L576.7125 577.07294L577.8219 577.07294L579.4313 581.94794ZM585.97815 583.5417Q584.6813 583.5417 583.8688 582.69794Q583.0719 581.83856 583.0719 580.4167L583.0719 580.2292Q583.0719 579.27606 583.4313 578.5417Q583.79065 577.7917 584.4313 577.38544Q585.0875 576.96356 585.8375 576.96356Q587.0719 576.96356 587.7594 577.77606Q588.4469 578.58856 588.4469 580.1042L588.4469 580.5573L584.15 580.5573Q584.1813 581.4948 584.6969 582.07294Q585.22815 582.65106 586.04065 582.65106Q586.60315 582.65106 586.9938 582.4167Q587.4 582.1823 587.7125 581.7917L588.3688 582.3073Q587.5719 583.5417 585.97815 583.5417ZM585.8375 577.8542Q585.1813 577.8542 584.72815 578.33856Q584.29065 578.8073 584.1969 579.6667L587.3688 579.6667L587.3688 579.58856Q587.3219 578.76044 586.91565 578.3073Q586.525 577.8542 585.8375 577.8542ZM590.3688 577.07294L590.4 577.8698Q591.1344 576.96356 592.3063 576.96356Q594.3219 576.96356 594.3375 579.2292L594.3375 583.4167L593.2438 583.4167L593.2438 579.21356Q593.2438 578.5417 592.9313 578.21356Q592.6344 577.88544 591.97815 577.88544Q591.4469 577.88544 591.04065 578.1667Q590.65 578.44794 590.4313 578.90106L590.4313 583.4167L589.35315 583.4167L589.35315 577.07294L590.3688 577.07294ZM597.8219 575.5417L597.8219 577.07294L598.9938 577.07294L598.9938 577.9167L597.8219 577.9167L597.8219 581.83856Q597.8219 582.2292 597.97815 582.4167Q598.1344 582.6042 598.5094 582.6042Q598.6969 582.6042 599.025 582.5417L599.025 583.4167Q598.60315 583.5417 598.1969 583.5417Q597.47815 583.5417 597.10315 583.1042Q596.72815 582.65106 596.72815 581.83856L596.72815 577.9167L595.5719 577.9167L595.5719 577.07294L596.72815 577.07294L596.72815 575.5417L597.8219 575.5417ZM607.4938 574.88544L607.4938 575.7917L607.29065 575.7917Q606.025 575.82294 605.275 576.5573Q604.525 577.27606 604.4 578.58856Q605.0875 577.82294 606.2438 577.82294Q607.35315 577.82294 608.025 578.6042Q608.6969 579.38544 608.6969 580.63544Q608.6969 581.94794 607.97815 582.7448Q607.2594 583.5417 606.04065 583.5417Q604.8219 583.5417 604.0563 582.6042Q603.3063 581.65106 603.3063 580.1667L603.3063 579.76044Q603.3063 577.40106 604.3063 576.15106Q605.3063 574.90106 607.29065 574.88544L607.4938 574.88544ZM606.0719 578.7292Q605.5094 578.7292 605.04065 579.0573Q604.5719 579.38544 604.3844 579.90106L604.3844 580.2917Q604.3844 581.3542 604.85315 581.9948Q605.3375 582.63544 606.04065 582.63544Q606.775 582.63544 607.1969 582.1042Q607.6188 581.5573 607.6188 580.6823Q607.6188 579.8073 607.1969 579.27606Q606.775 578.7292 606.0719 578.7292Z" fill-rule="nonzero"/><path fill="#000000" d="M672.3875 579.4792L668.6844 579.4792L668.6844 582.4948L672.98126 582.4948L672.98126 583.4167L667.5594 583.4167L667.5594 574.88544L672.9344 574.88544L672.9344 575.8073L668.6844 575.8073L668.6844 578.5573L672.3875 578.5573L672.3875 579.4792ZM676.48126 581.94794L678.0594 577.07294L679.16876 577.07294L676.8875 583.4167L676.0594 583.4167L673.7625 577.07294L674.8719 577.07294L676.48126 581.94794ZM683.02814 583.5417Q681.73126 583.5417 680.91876 582.69794Q680.1219 581.83856 680.1219 580.4167L680.1219 580.2292Q680.1219 579.27606 680.48126 578.5417Q680.84064 577.7917 681.48126 577.38544Q682.1375 576.96356 682.8875 576.96356Q684.1219 576.96356 684.8094 577.77606Q685.4969 578.58856 685.4969 580.1042L685.4969 580.5573L681.2 580.5573Q681.23126 581.4948 681.7469 582.07294Q682.27814 582.65106 683.09064 582.65106Q683.65314 582.65106 684.04376 582.4167Q684.45 582.1823 684.7625 581.7917L685.41876 582.3073Q684.6219 583.5417 683.02814 583.5417ZM682.8875 577.8542Q682.23126 577.8542 681.77814 578.33856Q681.34064 578.8073 681.2469 579.6667L684.41876 579.6667L684.41876 579.58856Q684.3719 578.76044 683.96564 578.3073Q683.575 577.8542 682.8875 577.8542ZM687.41876 577.07294L687.45 577.8698Q688.1844 576.96356 689.35626 576.96356Q691.3719 576.96356 691.3875 579.2292L691.3875 583.4167L690.29376 583.4167L690.29376 579.21356Q690.29376 578.5417 689.98126 578.21356Q689.6844 577.88544 689.02814 577.88544Q688.4969 577.88544 688.09064 578.1667Q687.7 578.44794 687.48126 578.90106L687.48126 583.4167L686.40314 583.4167L686.40314 577.07294L687.41876 577.07294ZM694.8719 575.5417L694.8719 577.07294L696.04376 577.07294L696.04376 577.9167L694.8719 577.9167L694.8719 581.83856Q694.8719 582.2292 695.02814 582.4167Q695.1844 582.6042 695.5594 582.6042Q695.7469 582.6042 696.075 582.5417L696.075 583.4167Q695.65314 583.5417 695.2469 583.5417Q694.52814 583.5417 694.15314 583.1042Q693.77814 582.65106 693.77814 581.83856L693.77814 577.9167L692.6219 577.9167L692.6219 577.07294L693.77814 577.07294L693.77814 575.5417L694.8719 575.5417ZM705.79376 575.4948L702.2625 583.4167L701.1219 583.4167L704.6375 575.77606L700.02814 575.77606L700.02814 574.88544L705.79376 574.88544L705.79376 575.4948Z" fill-rule="nonzero"/><path fill="#000000" d="M769.4375 579.4792L765.7344 579.4792L765.7344 582.4948L770.03125 582.4948L770.03125 583.4167L764.6094 583.4167L764.6094 574.88544L769.9844 574.88544L769.9844 575.8073L765.7344 575.8073L765.7344 578.5573L769.4375 578.5573L769.4375 579.4792ZM773.53125 581.94794L775.1094 577.07294L776.21875 577.07294L773.9375 583.4167L773.1094 583.4167L770.8125 577.07294L771.9219 577.07294L773.53125 581.94794ZM780.0781 583.5417Q778.78125 583.5417 777.96875 582.69794Q777.1719 581.83856 777.1719 580.4167L777.1719 580.2292Q777.1719 579.27606 777.53125 578.5417Q777.8906 577.7917 778.53125 577.38544Q779.1875 576.96356 779.9375 576.96356Q781.1719 576.96356 781.8594 577.77606Q782.5469 578.58856 782.5469 580.1042L782.5469 580.5573L778.25 580.5573Q778.28125 581.4948 778.7969 582.07294Q779.3281 582.65106 780.1406 582.65106Q780.7031 582.65106 781.09375 582.4167Q781.5 582.1823 781.8125 581.7917L782.46875 582.3073Q781.6719 583.5417 780.0781 583.5417ZM779.9375 577.8542Q779.28125 577.8542 778.8281 578.33856Q778.3906 578.8073 778.2969 579.6667L781.46875 579.6667L781.46875 579.58856Q781.4219 578.76044 781.0156 578.3073Q780.625 577.8542 779.9375 577.8542ZM784.46875 577.07294L784.5 577.8698Q785.2344 576.96356 786.40625 576.96356Q788.4219 576.96356 788.4375 579.2292L788.4375 583.4167L787.34375 583.4167L787.34375 579.21356Q787.34375 578.5417 787.03125 578.21356Q786.7344 577.88544 786.0781 577.88544Q785.5469 577.88544 785.1406 578.1667Q784.75 578.44794 784.53125 578.90106L784.53125 583.4167L783.4531 583.4167L783.4531 577.07294L784.46875 577.07294ZM791.9219 575.5417L791.9219 577.07294L793.09375 577.07294L793.09375 577.9167L791.9219 577.9167L791.9219 581.83856Q791.9219 582.2292 792.0781 582.4167Q792.2344 582.6042 792.6094 582.6042Q792.7969 582.6042 793.125 582.5417L793.125 583.4167Q792.7031 583.5417 792.2969 583.5417Q791.5781 583.5417 791.2031 583.1042Q790.8281 582.65106 790.8281 581.83856L790.8281 577.9167L789.6719 577.9167L789.6719 577.07294L790.8281 577.07294L790.8281 575.5417L791.9219 575.5417ZM802.5156 577.1042Q802.5156 577.7448 802.1719 578.2448Q801.8281 578.7448 801.2656 579.02606Q801.9219 579.3073 802.3125 579.8698Q802.7031 580.4167 802.7031 581.1198Q802.7031 582.21356 801.9531 582.88544Q801.21875 583.5417 800.0 583.5417Q798.7656 583.5417 798.0156 582.88544Q797.28125 582.21356 797.28125 581.1198Q797.28125 580.4167 797.65625 579.8698Q798.03125 579.3073 798.7031 579.02606Q798.1406 578.7448 797.8125 578.2448Q797.4844 577.7448 797.4844 577.1042Q797.4844 576.02606 798.1719 575.40106Q798.8594 574.76044 800.0 574.76044Q801.125 574.76044 801.8125 575.40106Q802.5156 576.02606 802.5156 577.1042ZM801.625 581.08856Q801.625 580.3698 801.1719 579.9323Q800.71875 579.4792 799.9844 579.4792Q799.25 579.4792 798.7969 579.9323Q798.3594 580.3698 798.3594 581.1042Q798.3594 581.82294 798.7969 582.2448Q799.2344 582.65106 800.0 582.65106Q800.75 582.65106 801.1875 582.2292Q801.625 581.8073 801.625 581.08856ZM800.0 575.65106Q799.3594 575.65106 798.9531 576.0573Q798.5625 576.44794 798.5625 577.13544Q798.5625 577.77606 798.9531 578.1823Q799.34375 578.58856 799.9844 578.58856Q800.6406 578.58856 801.03125 578.1823Q801.4219 577.77606 801.4219 577.13544Q801.4219 576.4792 801.0156 576.07294Q800.6094 575.65106 800.0 575.65106Z" fill-rule="nonzero"/><path fill="#000000" d="M866.4875 579.4792L862.78436 579.4792L862.78436 582.4948L867.08124 582.4948L867.08124 583.4167L861.65936 583.4167L861.65936 574.88544L867.03436 574.88544L867.03436 575.8073L862.78436 575.8073L862.78436 578.5573L866.4875 578.5573L866.4875 579.4792ZM870.58124 581.94794L872.15936 577.07294L873.26874 577.07294L870.9875 583.4167L870.15936 583.4167L867.8625 577.07294L868.97186 577.07294L870.58124 581.94794ZM877.1281 583.5417Q875.83124 583.5417 875.01874 582.69794Q874.22186 581.83856 874.22186 580.4167L874.22186 580.2292Q874.22186 579.27606 874.58124 578.5417Q874.9406 577.7917 875.58124 577.38544Q876.2375 576.96356 876.9875 576.96356Q878.22186 576.96356 878.90936 577.77606Q879.59686 578.58856 879.59686 580.1042L879.59686 580.5573L875.3 580.5573Q875.33124 581.4948 875.84686 582.07294Q876.3781 582.65106 877.1906 582.65106Q877.7531 582.65106 878.14374 582.4167Q878.55 582.1823 878.8625 581.7917L879.51874 582.3073Q878.72186 583.5417 877.1281 583.5417ZM876.9875 577.8542Q876.33124 577.8542 875.8781 578.33856Q875.4406 578.8073 875.34686 579.6667L878.51874 579.6667L878.51874 579.58856Q878.47186 578.76044 878.0656 578.3073Q877.675 577.8542 876.9875 577.8542ZM881.51874 577.07294L881.55 577.8698Q882.28436 576.96356 883.45624 576.96356Q885.47186 576.96356 885.4875 579.2292L885.4875 583.4167L884.39374 583.4167L884.39374 579.21356Q884.39374 578.5417 884.08124 578.21356Q883.78436 577.88544 883.1281 577.88544Q882.59686 577.88544 882.1906 578.1667Q881.8 578.44794 881.58124 578.90106L881.58124 583.4167L880.5031 583.4167L880.5031 577.07294L881.51874 577.07294ZM888.97186 575.5417L888.97186 577.07294L890.14374 577.07294L890.14374 577.9167L888.97186 577.9167L888.97186 581.83856Q888.97186 582.2292 889.1281 582.4167Q889.28436 582.6042 889.65936 582.6042Q889.84686 582.6042 890.175 582.5417L890.175 583.4167Q889.7531 583.5417 889.34686 583.5417Q888.6281 583.5417 888.2531 583.1042Q887.8781 582.65106 887.8781 581.83856L887.8781 577.9167L886.72186 577.9167L886.72186 577.07294L887.8781 577.07294L887.8781 575.5417L888.97186 575.5417ZM898.53436 579.6667Q898.20624 580.07294 897.72186 580.32294Q897.2531 580.5573 896.6906 580.5573Q895.95624 580.5573 895.40936 580.19794Q894.8625 579.83856 894.5656 579.1823Q894.26874 578.51044 894.26874 577.71356Q894.26874 576.8698 894.58124 576.1823Q894.90936 575.4948 895.5031 575.13544Q896.1125 574.76044 896.90936 574.76044Q898.175 574.76044 898.89374 575.71356Q899.6281 576.6667 899.6281 578.2917L899.6281 578.6042Q899.6281 581.1042 898.64374 582.2448Q897.65936 583.38544 895.675 583.4167L895.45624 583.4167L895.45624 582.51044L895.6906 582.51044Q897.03436 582.4792 897.7531 581.8073Q898.47186 581.13544 898.53436 579.6667ZM896.8625 579.6667Q897.40936 579.6667 897.8625 579.33856Q898.33124 578.9948 898.55 578.51044L898.55 578.07294Q898.55 577.01044 898.08124 576.33856Q897.6125 575.6667 896.90936 575.6667Q896.1906 575.6667 895.7531 576.21356Q895.33124 576.76044 895.33124 577.6667Q895.33124 578.5417 895.7375 579.1042Q896.15936 579.6667 896.8625 579.6667Z" fill-rule="nonzero"/><path fill="#000000" d="M960.0375 579.4792L956.33435 579.4792L956.33435 582.4948L960.6312 582.4948L960.6312 583.4167L955.20935 583.4167L955.20935 574.88544L960.58435 574.88544L960.58435 575.8073L956.33435 575.8073L956.33435 578.5573L960.0375 578.5573L960.0375 579.4792ZM964.1312 581.94794L965.70935 577.07294L966.8187 577.07294L964.5375 583.4167L963.70935 583.4167L961.4125 577.07294L962.52185 577.07294L964.1312 581.94794ZM970.6781 583.5417Q969.3812 583.5417 968.5687 582.69794Q967.77185 581.83856 967.77185 580.4167L967.77185 580.2292Q967.77185 579.27606 968.1312 578.5417Q968.4906 577.7917 969.1312 577.38544Q969.7875 576.96356 970.5375 576.96356Q971.77185 576.96356 972.45935 577.77606Q973.14685 578.58856 973.14685 580.1042L973.14685 580.5573L968.85 580.5573Q968.8812 581.4948 969.39685 582.07294Q969.9281 582.65106 970.7406 582.65106Q971.3031 582.65106 971.6937 582.4167Q972.1 582.1823 972.4125 581.7917L973.0687 582.3073Q972.27185 583.5417 970.6781 583.5417ZM970.5375 577.8542Q969.8812 577.8542 969.4281 578.33856Q968.9906 578.8073 968.89685 579.6667L972.0687 579.6667L972.0687 579.58856Q972.02185 578.76044 971.6156 578.3073Q971.225 577.8542 970.5375 577.8542ZM975.0687 577.07294L975.1 577.8698Q975.83435 576.96356 977.0062 576.96356Q979.02185 576.96356 979.0375 579.2292L979.0375 583.4167L977.9437 583.4167L977.9437 579.21356Q977.9437 578.5417 977.6312 578.21356Q977.33435 577.88544 976.6781 577.88544Q976.14685 577.88544 975.7406 578.1667Q975.35 578.44794 975.1312 578.90106L975.1312 583.4167L974.0531 583.4167L974.0531 577.07294L975.0687 577.07294ZM982.52185 575.5417L982.52185 577.07294L983.6937 577.07294L983.6937 577.9167L982.52185 577.9167L982.52185 581.83856Q982.52185 582.2292 982.6781 582.4167Q982.83435 582.6042 983.20935 582.6042Q983.39685 582.6042 983.725 582.5417L983.725 583.4167Q983.3031 583.5417 982.89685 583.5417Q982.1781 583.5417 981.8031 583.1042Q981.4281 582.65106 981.4281 581.83856L981.4281 577.9167L980.27185 577.9167L980.27185 577.07294L981.4281 577.07294L981.4281 575.5417L982.52185 575.5417ZM991.4906 583.4167L990.4125 583.4167L990.4125 576.19794L988.225 576.9948L988.225 576.01044L991.33435 574.83856L991.4906 574.83856L991.4906 583.4167ZM1000.2875 579.77606Q1000.2875 581.6823 999.6312 582.6198Q998.9906 583.5417 997.6 583.5417Q996.2406 583.5417 995.58435 582.63544Q994.9281 581.7292 994.89685 579.9167L994.89685 578.4792Q994.89685 576.58856 995.5375 575.6823Q996.1937 574.76044 997.58435 574.76044Q998.95935 574.76044 999.6156 575.65106Q1000.27185 576.52606 1000.2875 578.3698L1000.2875 579.77606ZM999.1937 578.2917Q999.1937 576.9167 998.8031 576.2917Q998.4281 575.65106 997.58435 575.65106Q996.7562 575.65106 996.3656 576.2917Q995.9906 576.9167 995.9906 578.21356L995.9906 579.94794Q995.9906 581.32294 996.3812 581.9948Q996.7875 582.65106 997.6 582.65106Q998.39685 582.65106 998.7875 582.02606Q999.1781 581.40106 999.1937 580.07294L999.1937 578.2917Z" fill-rule="nonzero"/><path stroke="#1c4587" stroke-width="4.0" stroke-linecap="butt" d="M375.5 615.25L387.5 615.25" fill-rule="nonzero"/><path fill="#666666" d="M398.09375 616.78125L398.25 617.8125L398.46875 616.8906L400.01562 611.4219L400.875 611.4219L402.39062 616.8906L402.60938 617.8281L402.76562 616.78125L403.98438 611.4219L405.01562 611.4219L403.125 619.25L402.1875 619.25L400.57812 613.5469L400.45312 612.9531L400.32812 613.5469L398.65625 619.25L397.71875 619.25L395.82812 611.4219L396.85938 611.4219L398.09375 616.78125ZM407.32812 619.25L406.34375 619.25L406.34375 613.4375L407.32812 613.4375L407.32812 619.25ZM406.25 611.8906Q406.25 611.65625 406.39062 611.5Q406.54688 611.3281 406.84375 611.3281Q407.14062 611.3281 407.28125 611.5Q407.4375 611.65625 407.4375 611.90625Q407.4375 612.1406 407.28125 612.2969Q407.14062 612.4531 406.84375 612.4531Q406.54688 612.4531 406.39062 612.2969Q406.25 612.1406 406.25 611.8906ZM410.59375 612.03125L410.59375 613.4375L411.6875 613.4375L411.6875 614.2031L410.59375 614.2031L410.59375 617.8125Q410.59375 618.15625 410.73438 618.34375Q410.89062 618.5156 411.23438 618.5156Q411.40625 618.5156 411.71875 618.4375L411.71875 619.25Q411.3125 619.3594 410.95312 619.3594Q410.28125 619.3594 409.9375 618.9531Q409.60938 618.5469 409.60938 617.8125L409.60938 614.2031L408.54688 614.2031L408.54688 613.4375L409.60938 613.4375L409.60938 612.03125L410.59375 612.03125ZM414.25 614.1406Q414.90625 613.3281 415.96875 613.3281Q417.8125 613.3281 417.82812 615.40625L417.82812 619.25L416.82812 619.25L416.82812 615.40625Q416.82812 614.78125 416.54688 614.4844Q416.26562 614.1719 415.65625 614.1719Q415.1875 614.1719 414.8125 614.4375Q414.45312 614.6875 414.25 615.1094L414.25 619.25L413.25 619.25L413.25 611.0L414.25 611.0L414.25 614.1406ZM418.98438 616.2969Q418.98438 615.4375 419.3125 614.7656Q419.65625 614.0781 420.25 613.7031Q420.85938 613.3281 421.625 613.3281Q422.8125 613.3281 423.54688 614.15625Q424.28125 614.96875 424.28125 616.34375L424.28125 616.40625Q424.28125 617.25 423.95312 617.9375Q423.625 618.6094 423.01562 618.9844Q422.42188 619.3594 421.64062 619.3594Q420.45312 619.3594 419.71875 618.5469Q418.98438 617.71875 418.98438 616.3594L418.98438 616.2969ZM419.98438 616.40625Q419.98438 617.375 420.4375 617.96875Q420.89062 618.5469 421.64062 618.5469Q422.39062 618.5469 422.82812 617.9531Q423.28125 617.3594 423.28125 616.2969Q423.28125 615.3281 422.82812 614.7344Q422.375 614.1406 421.625 614.1406Q420.89062 614.1406 420.4375 614.7344Q419.98438 615.3125 419.98438 616.40625ZM428.84375 618.6719Q428.26562 619.3594 427.14062 619.3594Q426.20312 619.3594 425.71875 618.8281Q425.23438 618.28125 425.23438 617.21875L425.23438 613.4375L426.21875 613.4375L426.21875 617.1875Q426.21875 618.5156 427.29688 618.5156Q428.4375 618.5156 428.8125 617.6719L428.8125 613.4375L429.8125 613.4375L429.8125 619.25L428.85938 619.25L428.84375 618.6719ZM432.59375 612.03125L432.59375 613.4375L433.6875 613.4375L433.6875 614.2031L432.59375 614.2031L432.59375 617.8125Q432.59375 618.15625 432.73438 618.34375Q432.89062 618.5156 433.23438 618.5156Q433.40625 618.5156 433.71875 618.4375L433.71875 619.25Q433.3125 619.3594 432.95312 619.3594Q432.28125 619.3594 431.9375 618.9531Q431.60938 618.5469 431.60938 617.8125L431.60938 614.2031L430.54688 614.2031L430.54688 613.4375L431.60938 613.4375L431.60938 612.03125L432.59375 612.03125ZM444.15625 616.7656Q444.01562 618.0156 443.23438 618.6875Q442.46875 619.3594 441.20312 619.3594Q439.8125 619.3594 438.96875 618.375Q438.14062 617.375 438.14062 615.7031L438.14062 614.9531Q438.14062 613.8594 438.53125 613.03125Q438.92188 612.2031 439.625 611.7656Q440.34375 611.3281 441.28125 611.3281Q442.53125 611.3281 443.28125 612.03125Q444.03125 612.71875 444.15625 613.9375L443.125 613.9375Q442.98438 613.0156 442.53125 612.59375Q442.09375 612.1719 441.28125 612.1719Q440.29688 612.1719 439.73438 612.90625Q439.17188 613.625 439.17188 614.9844L439.17188 615.7344Q439.17188 617.0156 439.70312 617.7656Q440.23438 618.5156 441.20312 618.5156Q442.0625 618.5156 442.51562 618.125Q442.96875 617.7344 443.125 616.7656L444.15625 616.7656ZM446.25 614.1406Q446.90625 613.3281 447.96875 613.3281Q449.8125 613.3281 449.82812 615.40625L449.82812 619.25L448.82812 619.25L448.82812 615.40625Q448.82812 614.78125 448.54688 614.4844Q448.26562 614.1719 447.65625 614.1719Q447.1875 614.1719 446.8125 614.4375Q446.45312 614.6875 446.25 615.1094L446.25 619.25L445.25 619.25L445.25 611.0L446.25 611.0L446.25 614.1406ZM454.84375 619.25Q454.75 619.0781 454.70312 618.6406Q454.0 619.3594 453.04688 619.3594Q452.1875 619.3594 451.625 618.875Q451.07812 618.3906 451.07812 617.6406Q451.07812 616.7344 451.76562 616.2344Q452.46875 615.71875 453.71875 615.71875L454.6875 615.71875L454.6875 615.2656Q454.6875 614.75 454.375 614.4375Q454.0625 614.125 453.45312 614.125Q452.92188 614.125 452.5625 614.40625Q452.20312 614.6719 452.20312 615.0469L451.20312 615.0469Q451.20312 614.6094 451.51562 614.2031Q451.82812 613.7969 452.34375 613.5625Q452.875 613.3281 453.51562 613.3281Q454.51562 613.3281 455.07812 613.8281Q455.65625 614.3281 455.67188 615.21875L455.67188 617.8906Q455.67188 618.6875 455.875 619.15625L455.875 619.25L454.84375 619.25ZM453.1875 618.5Q453.65625 618.5 454.07812 618.2656Q454.5 618.0156 454.6875 617.625L454.6875 616.4375L453.90625 616.4375Q452.07812 616.4375 452.07812 617.5Q452.07812 617.96875 452.39062 618.2344Q452.70312 618.5 453.1875 618.5ZM456.98438 616.2969Q456.98438 615.4375 457.3125 614.7656Q457.65625 614.0781 458.25 613.7031Q458.85938 613.3281 459.625 613.3281Q460.8125 613.3281 461.54688 614.15625Q462.28125 614.96875 462.28125 616.34375L462.28125 616.40625Q462.28125 617.25 461.95312 617.9375Q461.625 618.6094 461.01562 618.9844Q460.42188 619.3594 459.64062 619.3594Q458.45312 619.3594 457.71875 618.5469Q456.98438 617.71875 456.98438 616.3594L456.98438 616.2969ZM457.98438 616.40625Q457.98438 617.375 458.4375 617.96875Q458.89062 618.5469 459.64062 618.5469Q460.39062 618.5469 460.82812 617.9531Q461.28125 617.3594 461.28125 616.2969Q461.28125 615.3281 460.82812 614.7344Q460.375 614.1406 459.625 614.1406Q458.89062 614.1406 458.4375 614.7344Q457.98438 615.3125 457.98438 616.40625ZM466.64062 617.7031Q466.64062 617.3125 466.32812 617.09375Q466.03125 616.8594 465.26562 616.7031Q464.51562 616.53125 464.07812 616.3125Q463.64062 616.09375 463.42188 615.78125Q463.20312 615.46875 463.20312 615.03125Q463.20312 614.3125 463.8125 613.8281Q464.42188 613.3281 465.35938 613.3281Q466.34375 613.3281 466.95312 613.84375Q467.57812 614.34375 467.57812 615.1406L466.57812 615.1406Q466.57812 614.7344 466.23438 614.4375Q465.89062 614.1406 465.35938 614.1406Q464.8125 614.1406 464.5 614.3906Q464.20312 614.625 464.20312 615.0Q464.20312 615.3594 464.48438 615.5469Q464.76562 615.71875 465.51562 615.8906Q466.26562 616.0625 466.71875 616.2969Q467.1875 616.5156 467.40625 616.84375Q467.625 617.1719 467.625 617.6406Q467.625 618.4219 467.0 618.8906Q466.39062 619.3594 465.39062 619.3594Q464.6875 619.3594 464.15625 619.1094Q463.625 618.8594 463.3125 618.4219Q463.01562 617.9844 463.01562 617.46875L464.0 617.46875Q464.03125 617.9531 464.40625 618.25Q464.78125 618.5469 465.39062 618.5469Q465.95312 618.5469 466.29688 618.3281Q466.64062 618.09375 466.64062 617.7031ZM476.82812 615.6406L473.4375 615.6406L473.4375 618.40625L477.375 618.40625L477.375 619.25L472.40625 619.25L472.40625 611.4219L477.32812 611.4219L477.32812 612.28125L473.4375 612.28125L473.4375 614.7969L476.82812 614.7969L476.82812 615.6406ZM479.1875 613.4375L479.21875 614.1719Q479.89062 613.3281 480.96875 613.3281Q482.8125 613.3281 482.82812 615.40625L482.82812 619.25L481.82812 619.25L481.82812 615.40625Q481.82812 614.78125 481.54688 614.4844Q481.26562 614.1719 480.65625 614.1719Q480.1875 614.1719 479.8125 614.4375Q479.45312 614.6875 479.25 615.1094L479.25 619.25L478.25 619.25L478.25 613.4375L479.1875 613.4375ZM484.01562 616.2969Q484.01562 614.9375 484.64062 614.1406Q485.26562 613.3281 486.3125 613.3281Q487.375 613.3281 487.96875 614.0781L488.01562 613.4375L488.92188 613.4375L488.92188 619.1094Q488.92188 620.2344 488.25 620.875Q487.59375 621.53125 486.45312 621.53125Q485.82812 621.53125 485.21875 621.2656Q484.625 621.0 484.3125 620.53125L484.82812 619.9375Q485.46875 620.7344 486.39062 620.7344Q487.10938 620.7344 487.51562 620.3125Q487.92188 619.90625 487.92188 619.1719L487.92188 618.6719Q487.32812 619.3594 486.29688 619.3594Q485.28125 619.3594 484.64062 618.5469Q484.01562 617.71875 484.01562 616.2969ZM485.01562 616.40625Q485.01562 617.3906 485.42188 617.9531Q485.82812 618.5156 486.54688 618.5156Q487.48438 618.5156 487.92188 617.65625L487.92188 615.0Q487.46875 614.1719 486.5625 614.1719Q485.82812 614.1719 485.42188 614.7344Q485.01562 615.2969 485.01562 616.40625ZM491.32812 619.25L490.34375 619.25L490.34375 613.4375L491.32812 613.4375L491.32812 619.25ZM490.25 611.8906Q490.25 611.65625 490.39062 611.5Q490.54688 611.3281 490.84375 611.3281Q491.14062 611.3281 491.28125 611.5Q491.4375 611.65625 491.4375 611.90625Q491.4375 612.1406 491.28125 612.2969Q491.14062 612.4531 490.84375 612.4531Q490.54688 612.4531 490.39062 612.2969Q490.25 612.1406 490.25 611.8906ZM494.1875 613.4375L494.21875 614.1719Q494.89062 613.3281 495.96875 613.3281Q497.8125 613.3281 497.82812 615.40625L497.82812 619.25L496.82812 619.25L496.82812 615.40625Q496.82812 614.78125 496.54688 614.4844Q496.26562 614.1719 495.65625 614.1719Q495.1875 614.1719 494.8125 614.4375Q494.45312 614.6875 494.25 615.1094L494.25 619.25L493.25 619.25L493.25 613.4375L494.1875 613.4375ZM501.65625 619.3594Q500.48438 619.3594 499.73438 618.59375Q499.0 617.8125 499.0 616.5L499.0 616.3281Q499.0 615.4531 499.32812 614.78125Q499.65625 614.09375 500.25 613.71875Q500.84375 613.3281 501.54688 613.3281Q502.67188 613.3281 503.29688 614.0781Q503.9375 614.8281 503.9375 616.21875L503.9375 616.625L500.0 616.625Q500.01562 617.4844 500.48438 618.0156Q500.96875 618.5469 501.71875 618.5469Q502.25 618.5469 502.60938 618.3281Q502.96875 618.1094 503.25 617.7656L503.85938 618.2344Q503.125 619.3594 501.65625 619.3594ZM501.54688 614.1406Q500.9375 614.1406 500.53125 614.5781Q500.125 615.0156 500.03125 615.8125L502.9375 615.8125L502.9375 615.7344Q502.89062 614.9844 502.51562 614.5625Q502.15625 614.1406 501.54688 614.1406ZM507.65625 619.3594Q506.48438 619.3594 505.73438 618.59375Q505.0 617.8125 505.0 616.5L505.0 616.3281Q505.0 615.4531 505.32812 614.78125Q505.65625 614.09375 506.25 613.71875Q506.84375 613.3281 507.54688 613.3281Q508.67188 613.3281 509.29688 614.0781Q509.9375 614.8281 509.9375 616.21875L509.9375 616.625L506.0 616.625Q506.01562 617.4844 506.48438 618.0156Q506.96875 618.5469 507.71875 618.5469Q508.25 618.5469 508.60938 618.3281Q508.96875 618.1094 509.25 617.7656L509.85938 618.2344Q509.125 619.3594 507.65625 619.3594ZM507.54688 614.1406Q506.9375 614.1406 506.53125 614.5781Q506.125 615.0156 506.03125 615.8125L508.9375 615.8125L508.9375 615.7344Q508.89062 614.9844 508.51562 614.5625Q508.15625 614.1406 507.54688 614.1406ZM514.0625 614.3281Q513.8281 614.2969 513.5781 614.2969Q512.59375 614.2969 512.25 615.125L512.25 619.25L511.25 619.25L511.25 613.4375L512.21875 613.4375L512.2344 614.1094Q512.71875 613.3281 513.625 613.3281Q513.90625 613.3281 514.0625 613.40625L514.0625 614.3281ZM516.3281 619.25L515.34375 619.25L515.34375 613.4375L516.3281 613.4375L516.3281 619.25ZM515.25 611.8906Q515.25 611.65625 515.3906 611.5Q515.5469 611.3281 515.84375 611.3281Q516.1406 611.3281 516.28125 611.5Q516.4375 611.65625 516.4375 611.90625Q516.4375 612.1406 516.28125 612.2969Q516.1406 612.4531 515.84375 612.4531Q515.5469 612.4531 515.3906 612.2969Q515.25 612.1406 515.25 611.8906ZM519.1875 613.4375L519.21875 614.1719Q519.8906 613.3281 520.96875 613.3281Q522.8125 613.3281 522.8281 615.40625L522.8281 619.25L521.8281 619.25L521.8281 615.40625Q521.8281 614.78125 521.5469 614.4844Q521.2656 614.1719 520.65625 614.1719Q520.1875 614.1719 519.8125 614.4375Q519.4531 614.6875 519.25 615.1094L519.25 619.25L518.25 619.25L518.25 613.4375L519.1875 613.4375ZM524.0156 616.2969Q524.0156 614.9375 524.6406 614.1406Q525.2656 613.3281 526.3125 613.3281Q527.375 613.3281 527.96875 614.0781L528.0156 613.4375L528.9219 613.4375L528.9219 619.1094Q528.9219 620.2344 528.25 620.875Q527.59375 621.53125 526.4531 621.53125Q525.8281 621.53125 525.21875 621.2656Q524.625 621.0 524.3125 620.53125L524.8281 619.9375Q525.46875 620.7344 526.3906 620.7344Q527.1094 620.7344 527.5156 620.3125Q527.9219 619.90625 527.9219 619.1719L527.9219 618.6719Q527.3281 619.3594 526.2969 619.3594Q525.28125 619.3594 524.6406 618.5469Q524.0156 617.71875 524.0156 616.2969ZM525.0156 616.40625Q525.0156 617.3906 525.4219 617.9531Q525.8281 618.5156 526.5469 618.5156Q527.4844 618.5156 527.9219 617.65625L527.9219 615.0Q527.46875 614.1719 526.5625 614.1719Q525.8281 614.1719 525.4219 614.7344Q525.0156 615.2969 525.0156 616.40625Z" fill-rule="nonzero"/><path stroke="#6d9eeb" stroke-width="4.0" stroke-linecap="butt" d="M545.5 615.25L557.5 615.25" fill-rule="nonzero"/><path fill="#666666" d="M568.09375 616.78125L568.25 617.8125L568.46875 616.8906L570.0156 611.4219L570.875 611.4219L572.3906 616.8906L572.6094 617.8281L572.7656 616.78125L573.9844 611.4219L575.0156 611.4219L573.125 619.25L572.1875 619.25L570.5781 613.5469L570.4531 612.9531L570.3281 613.5469L568.65625 619.25L567.71875 619.25L565.8281 611.4219L566.8594 611.4219L568.09375 616.78125ZM577.3281 619.25L576.34375 619.25L576.34375 613.4375L577.3281 613.4375L577.3281 619.25ZM576.25 611.8906Q576.25 611.65625 576.3906 611.5Q576.5469 611.3281 576.84375 611.3281Q577.1406 611.3281 577.28125 611.5Q577.4375 611.65625 577.4375 611.90625Q577.4375 612.1406 577.28125 612.2969Q577.1406 612.4531 576.84375 612.4531Q576.5469 612.4531 576.3906 612.2969Q576.25 612.1406 576.25 611.8906ZM580.59375 612.03125L580.59375 613.4375L581.6875 613.4375L581.6875 614.2031L580.59375 614.2031L580.59375 617.8125Q580.59375 618.15625 580.7344 618.34375Q580.8906 618.5156 581.2344 618.5156Q581.40625 618.5156 581.71875 618.4375L581.71875 619.25Q581.3125 619.3594 580.9531 619.3594Q580.28125 619.3594 579.9375 618.9531Q579.6094 618.5469 579.6094 617.8125L579.6094 614.2031L578.5469 614.2031L578.5469 613.4375L579.6094 613.4375L579.6094 612.03125L580.59375 612.03125ZM584.25 614.1406Q584.90625 613.3281 585.96875 613.3281Q587.8125 613.3281 587.8281 615.40625L587.8281 619.25L586.8281 619.25L586.8281 615.40625Q586.8281 614.78125 586.5469 614.4844Q586.2656 614.1719 585.65625 614.1719Q585.1875 614.1719 584.8125 614.4375Q584.4531 614.6875 584.25 615.1094L584.25 619.25L583.25 619.25L583.25 611.0L584.25 611.0L584.25 614.1406ZM598.15625 616.7656Q598.0156 618.0156 597.2344 618.6875Q596.46875 619.3594 595.2031 619.3594Q593.8125 619.3594 592.96875 618.375Q592.1406 617.375 592.1406 615.7031L592.1406 614.9531Q592.1406 613.8594 592.53125 613.03125Q592.9219 612.2031 593.625 611.7656Q594.34375 611.3281 595.28125 611.3281Q596.53125 611.3281 597.28125 612.03125Q598.03125 612.71875 598.15625 613.9375L597.125 613.9375Q596.9844 613.0156 596.53125 612.59375Q596.09375 612.1719 595.28125 612.1719Q594.2969 612.1719 593.7344 612.90625Q593.1719 613.625 593.1719 614.9844L593.1719 615.7344Q593.1719 617.0156 593.7031 617.7656Q594.2344 618.5156 595.2031 618.5156Q596.0625 618.5156 596.5156 618.125Q596.96875 617.7344 597.125 616.7656L598.15625 616.7656ZM600.25 614.1406Q600.90625 613.3281 601.96875 613.3281Q603.8125 613.3281 603.8281 615.40625L603.8281 619.25L602.8281 619.25L602.8281 615.40625Q602.8281 614.78125 602.5469 614.4844Q602.2656 614.1719 601.65625 614.1719Q601.1875 614.1719 600.8125 614.4375Q600.4531 614.6875 600.25 615.1094L600.25 619.25L599.25 619.25L599.25 611.0L600.25 611.0L600.25 614.1406ZM608.84375 619.25Q608.75 619.0781 608.7031 618.6406Q608.0 619.3594 607.0469 619.3594Q606.1875 619.3594 605.625 618.875Q605.0781 618.3906 605.0781 617.6406Q605.0781 616.7344 605.7656 616.2344Q606.46875 615.71875 607.71875 615.71875L608.6875 615.71875L608.6875 615.2656Q608.6875 614.75 608.375 614.4375Q608.0625 614.125 607.4531 614.125Q606.9219 614.125 606.5625 614.40625Q606.2031 614.6719 606.2031 615.0469L605.2031 615.0469Q605.2031 614.6094 605.5156 614.2031Q605.8281 613.7969 606.34375 613.5625Q606.875 613.3281 607.5156 613.3281Q608.5156 613.3281 609.0781 613.8281Q609.65625 614.3281 609.6719 615.21875L609.6719 617.8906Q609.6719 618.6875 609.875 619.15625L609.875 619.25L608.84375 619.25ZM607.1875 618.5Q607.65625 618.5 608.0781 618.2656Q608.5 618.0156 608.6875 617.625L608.6875 616.4375L607.90625 616.4375Q606.0781 616.4375 606.0781 617.5Q606.0781 617.96875 606.3906 618.2344Q606.7031 618.5 607.1875 618.5ZM610.9844 616.2969Q610.9844 615.4375 611.3125 614.7656Q611.65625 614.0781 612.25 613.7031Q612.8594 613.3281 613.625 613.3281Q614.8125 613.3281 615.5469 614.15625Q616.28125 614.96875 616.28125 616.34375L616.28125 616.40625Q616.28125 617.25 615.9531 617.9375Q615.625 618.6094 615.0156 618.9844Q614.4219 619.3594 613.6406 619.3594Q612.4531 619.3594 611.71875 618.5469Q610.9844 617.71875 610.9844 616.3594L610.9844 616.2969ZM611.9844 616.40625Q611.9844 617.375 612.4375 617.96875Q612.8906 618.5469 613.6406 618.5469Q614.3906 618.5469 614.8281 617.9531Q615.28125 617.3594 615.28125 616.2969Q615.28125 615.3281 614.8281 614.7344Q614.375 614.1406 613.625 614.1406Q612.8906 614.1406 612.4375 614.7344Q611.9844 615.3125 611.9844 616.40625ZM620.6406 617.7031Q620.6406 617.3125 620.3281 617.09375Q620.03125 616.8594 619.2656 616.7031Q618.5156 616.53125 618.0781 616.3125Q617.6406 616.09375 617.4219 615.78125Q617.2031 615.46875 617.2031 615.03125Q617.2031 614.3125 617.8125 613.8281Q618.4219 613.3281 619.3594 613.3281Q620.34375 613.3281 620.9531 613.84375Q621.5781 614.34375 621.5781 615.1406L620.5781 615.1406Q620.5781 614.7344 620.2344 614.4375Q619.8906 614.1406 619.3594 614.1406Q618.8125 614.1406 618.5 614.3906Q618.2031 614.625 618.2031 615.0Q618.2031 615.3594 618.4844 615.5469Q618.7656 615.71875 619.5156 615.8906Q620.2656 616.0625 620.71875 616.2969Q621.1875 616.5156 621.40625 616.84375Q621.625 617.1719 621.625 617.6406Q621.625 618.4219 621.0 618.8906Q620.3906 619.3594 619.3906 619.3594Q618.6875 619.3594 618.15625 619.1094Q617.625 618.8594 617.3125 618.4219Q617.0156 617.9844 617.0156 617.46875L618.0 617.46875Q618.03125 617.9531 618.40625 618.25Q618.78125 618.5469 619.3906 618.5469Q619.9531 618.5469 620.2969 618.3281Q620.6406 618.09375 620.6406 617.7031ZM630.8281 615.6406L627.4375 615.6406L627.4375 618.40625L631.375 618.40625L631.375 619.25L626.40625 619.25L626.40625 611.4219L631.3281 611.4219L631.3281 612.28125L627.4375 612.28125L627.4375 614.7969L630.8281 614.7969L630.8281 615.6406ZM633.1875 613.4375L633.21875 614.1719Q633.8906 613.3281 634.96875 613.3281Q636.8125 613.3281 636.8281 615.40625L636.8281 619.25L635.8281 619.25L635.8281 615.40625Q635.8281 614.78125 635.5469 614.4844Q635.2656 614.1719 634.65625 614.1719Q634.1875 614.1719 633.8125 614.4375Q633.4531 614.6875 633.25 615.1094L633.25 619.25L632.25 619.25L632.25 613.4375L633.1875 613.4375ZM638.0156 616.2969Q638.0156 614.9375 638.6406 614.1406Q639.2656 613.3281 640.3125 613.3281Q641.375 613.3281 641.96875 614.0781L642.0156 613.4375L642.9219 613.4375L642.9219 619.1094Q642.9219 620.2344 642.25 620.875Q641.59375 621.53125 640.4531 621.53125Q639.8281 621.53125 639.21875 621.2656Q638.625 621.0 638.3125 620.53125L638.8281 619.9375Q639.46875 620.7344 640.3906 620.7344Q641.1094 620.7344 641.5156 620.3125Q641.9219 619.90625 641.9219 619.1719L641.9219 618.6719Q641.3281 619.3594 640.2969 619.3594Q639.28125 619.3594 638.6406 618.5469Q638.0156 617.71875 638.0156 616.2969ZM639.0156 616.40625Q639.0156 617.3906 639.4219 617.9531Q639.8281 618.5156 640.5469 618.5156Q641.4844 618.5156 641.9219 617.65625L641.9219 615.0Q641.46875 614.1719 640.5625 614.1719Q639.8281 614.1719 639.4219 614.7344Q639.0156 615.2969 639.0156 616.40625ZM645.3281 619.25L644.34375 619.25L644.34375 613.4375L645.3281 613.4375L645.3281 619.25ZM644.25 611.8906Q644.25 611.65625 644.3906 611.5Q644.5469 611.3281 644.84375 611.3281Q645.1406 611.3281 645.28125 611.5Q645.4375 611.65625 645.4375 611.90625Q645.4375 612.1406 645.28125 612.2969Q645.1406 612.4531 644.84375 612.4531Q644.5469 612.4531 644.3906 612.2969Q644.25 612.1406 644.25 611.8906ZM648.1875 613.4375L648.21875 614.1719Q648.8906 613.3281 649.96875 613.3281Q651.8125 613.3281 651.8281 615.40625L651.8281 619.25L650.8281 619.25L650.8281 615.40625Q650.8281 614.78125 650.5469 614.4844Q650.2656 614.1719 649.65625 614.1719Q649.1875 614.1719 648.8125 614.4375Q648.4531 614.6875 648.25 615.1094L648.25 619.25L647.25 619.25L647.25 613.4375L648.1875 613.4375ZM655.65625 619.3594Q654.4844 619.3594 653.7344 618.59375Q653.0 617.8125 653.0 616.5L653.0 616.3281Q653.0 615.4531 653.3281 614.78125Q653.65625 614.09375 654.25 613.71875Q654.84375 613.3281 655.5469 613.3281Q656.6719 613.3281 657.2969 614.0781Q657.9375 614.8281 657.9375 616.21875L657.9375 616.625L654.0 616.625Q654.0156 617.4844 654.4844 618.0156Q654.96875 618.5469 655.71875 618.5469Q656.25 618.5469 656.6094 618.3281Q656.96875 618.1094 657.25 617.7656L657.8594 618.2344Q657.125 619.3594 655.65625 619.3594ZM655.5469 614.1406Q654.9375 614.1406 654.53125 614.5781Q654.125 615.0156 654.03125 615.8125L656.9375 615.8125L656.9375 615.7344Q656.8906 614.9844 656.5156 614.5625Q656.15625 614.1406 655.5469 614.1406ZM661.65625 619.3594Q660.4844 619.3594 659.7344 618.59375Q659.0 617.8125 659.0 616.5L659.0 616.3281Q659.0 615.4531 659.3281 614.78125Q659.65625 614.09375 660.25 613.71875Q660.84375 613.3281 661.5469 613.3281Q662.6719 613.3281 663.2969 614.0781Q663.9375 614.8281 663.9375 616.21875L663.9375 616.625L660.0 616.625Q660.0156 617.4844 660.4844 618.0156Q660.96875 618.5469 661.71875 618.5469Q662.25 618.5469 662.6094 618.3281Q662.96875 618.1094 663.25 617.7656L663.8594 618.2344Q663.125 619.3594 661.65625 619.3594ZM661.5469 614.1406Q660.9375 614.1406 660.53125 614.5781Q660.125 615.0156 660.03125 615.8125L662.9375 615.8125L662.9375 615.7344Q662.8906 614.9844 662.5156 614.5625Q662.15625 614.1406 661.5469 614.1406ZM668.0625 614.3281Q667.8281 614.2969 667.5781 614.2969Q666.59375 614.2969 666.25 615.125L666.25 619.25L665.25 619.25L665.25 613.4375L666.21875 613.4375L666.2344 614.1094Q666.71875 613.3281 667.625 613.3281Q667.90625 613.3281 668.0625 613.40625L668.0625 614.3281ZM670.3281 619.25L669.34375 619.25L669.34375 613.4375L670.3281 613.4375L670.3281 619.25ZM669.25 611.8906Q669.25 611.65625 669.3906 611.5Q669.5469 611.3281 669.84375 611.3281Q670.1406 611.3281 670.28125 611.5Q670.4375 611.65625 670.4375 611.90625Q670.4375 612.1406 670.28125 612.2969Q670.1406 612.4531 669.84375 612.4531Q669.5469 612.4531 669.3906 612.2969Q669.25 612.1406 669.25 611.8906ZM673.1875 613.4375L673.21875 614.1719Q673.8906 613.3281 674.96875 613.3281Q676.8125 613.3281 676.8281 615.40625L676.8281 619.25L675.8281 619.25L675.8281 615.40625Q675.8281 614.78125 675.5469 614.4844Q675.2656 614.1719 674.65625 614.1719Q674.1875 614.1719 673.8125 614.4375Q673.4531 614.6875 673.25 615.1094L673.25 619.25L672.25 619.25L672.25 613.4375L673.1875 613.4375ZM678.0156 616.2969Q678.0156 614.9375 678.6406 614.1406Q679.2656 613.3281 680.3125 613.3281Q681.375 613.3281 681.96875 614.0781L682.0156 613.4375L682.9219 613.4375L682.9219 619.1094Q682.9219 620.2344 682.25 620.875Q681.59375 621.53125 680.4531 621.53125Q679.8281 621.53125 679.21875 621.2656Q678.625 621.0 678.3125 620.53125L678.8281 619.9375Q679.46875 620.7344 680.3906 620.7344Q681.1094 620.7344 681.5156 620.3125Q681.9219 619.90625 681.9219 619.1719L681.9219 618.6719Q681.3281 619.3594 680.2969 619.3594Q679.28125 619.3594 678.6406 618.5469Q678.0156 617.71875 678.0156 616.2969ZM679.0156 616.40625Q679.0156 617.3906 679.4219 617.9531Q679.8281 618.5156 680.5469 618.5156Q681.4844 618.5156 681.9219 617.65625L681.9219 615.0Q681.46875 614.1719 680.5625 614.1719Q679.8281 614.1719 679.4219 614.7344Q679.0156 615.2969 679.0156 616.40625Z" fill-rule="nonzero"/><path fill="#000000" d="M43.65625 45.6875Q43.40625 47.71875 42.140625 48.828125Q40.890625 49.921875 38.796875 49.921875Q36.53125 49.921875 35.15625 48.296875Q33.796875 46.671875 33.796875 43.953125L33.796875 42.71875Q33.796875 40.9375 34.4375 39.59375Q35.078125 38.234375 36.234375 37.515625Q37.40625 36.78125 38.953125 36.78125Q40.984375 36.78125 42.21875 37.921875Q43.453125 39.046875 43.65625 41.0625L41.953125 41.0625Q41.734375 39.53125 41.0 38.859375Q40.265625 38.171875 38.953125 38.171875Q37.328125 38.171875 36.40625 39.375Q35.5 40.5625 35.5 42.765625L35.5 44.0Q35.5 46.078125 36.359375 47.3125Q37.234375 48.546875 38.796875 48.546875Q40.203125 48.546875 40.953125 47.90625Q41.703125 47.265625 41.953125 45.6875L43.65625 45.6875ZM45.546875 44.90625Q45.546875 43.515625 46.09375 42.40625Q46.65625 41.28125 47.625 40.671875Q48.609375 40.0625 49.859375 40.0625Q51.8125 40.0625 53.0 41.40625Q54.203125 42.75 54.203125 44.984375L54.203125 45.09375Q54.203125 46.484375 53.671875 47.59375Q53.140625 48.6875 52.15625 49.3125Q51.171875 49.921875 49.890625 49.921875Q47.953125 49.921875 46.75 48.578125Q45.546875 47.234375 45.546875 45.015625L45.546875 44.90625ZM47.1875 45.09375Q47.1875 46.6875 47.921875 47.640625Q48.65625 48.59375 49.890625 48.59375Q51.125 48.59375 51.84375 47.625Q52.578125 46.65625 52.578125 44.90625Q52.578125 43.34375 51.828125 42.375Q51.09375 41.40625 49.859375 41.40625Q48.65625 41.40625 47.921875 42.359375Q47.1875 43.3125 47.1875 45.09375ZM61.515625 47.234375Q61.515625 46.5625 61.015625 46.203125Q60.53125 45.84375 59.296875 45.578125Q58.0625 45.3125 57.328125 44.953125Q56.609375 44.578125 56.25 44.0625Q55.90625 43.546875 55.90625 42.84375Q55.90625 41.6875 56.890625 40.875Q57.890625 40.0625 59.421875 40.0625Q61.046875 40.0625 62.046875 40.90625Q63.0625 41.734375 63.0625 43.03125L61.421875 43.03125Q61.421875 42.359375 60.84375 41.890625Q60.28125 41.40625 59.421875 41.40625Q58.53125 41.40625 58.03125 41.796875Q57.53125 42.171875 57.53125 42.796875Q57.53125 43.390625 58.0 43.6875Q58.46875 43.984375 59.6875 44.265625Q60.90625 44.53125 61.65625 44.90625Q62.421875 45.28125 62.78125 45.8125Q63.140625 46.34375 63.140625 47.109375Q63.140625 48.390625 62.125 49.15625Q61.109375 49.921875 59.484375 49.921875Q58.34375 49.921875 57.453125 49.515625Q56.578125 49.109375 56.078125 48.390625Q55.578125 47.671875 55.578125 46.828125L57.21875 46.828125Q57.25 47.640625 57.859375 48.125Q58.484375 48.59375 59.484375 48.59375Q60.40625 48.59375 60.953125 48.21875Q61.515625 47.84375 61.515625 47.234375ZM67.1875 37.9375L67.1875 40.234375L68.96875 40.234375L68.96875 41.5L67.1875 41.5L67.1875 47.390625Q67.1875 47.96875 67.421875 48.25Q67.65625 48.53125 68.234375 48.53125Q68.515625 48.53125 69.0 48.4375L69.0 49.75Q68.359375 49.921875 67.765625 49.921875Q66.671875 49.921875 66.109375 49.265625Q65.5625 48.609375 65.5625 47.390625L65.5625 41.5L63.828125 41.5L63.828125 40.234375L65.5625 40.234375L65.5625 37.9375L67.1875 37.9375ZM76.515625 47.234375Q76.515625 46.5625 76.015625 46.203125Q75.53125 45.84375 74.296875 45.578125Q73.0625 45.3125 72.328125 44.953125Q71.609375 44.578125 71.25 44.0625Q70.90625 43.546875 70.90625 42.84375Q70.90625 41.6875 71.890625 40.875Q72.890625 40.0625 74.421875 40.0625Q76.046875 40.0625 77.046875 40.90625Q78.0625 41.734375 78.0625 43.03125L76.421875 43.03125Q76.421875 42.359375 75.84375 41.890625Q75.28125 41.40625 74.421875 41.40625Q73.53125 41.40625 73.03125 41.796875Q72.53125 42.171875 72.53125 42.796875Q72.53125 43.390625 73.0 43.6875Q73.46875 43.984375 74.6875 44.265625Q75.90625 44.53125 76.65625 44.90625Q77.421875 45.28125 77.78125 45.8125Q78.140625 46.34375 78.140625 47.109375Q78.140625 48.390625 77.125 49.15625Q76.109375 49.921875 74.484375 49.921875Q73.34375 49.921875 72.453125 49.515625Q71.578125 49.109375 71.078125 48.390625Q70.578125 47.671875 70.578125 46.828125L72.21875 46.828125Q72.25 47.640625 72.859375 48.125Q73.484375 48.59375 74.484375 48.59375Q75.40625 48.59375 75.953125 48.21875Q76.515625 47.84375 76.515625 47.234375ZM83.546875 44.90625Q83.546875 43.515625 84.09375 42.40625Q84.65625 41.28125 85.625 40.671875Q86.609375 40.0625 87.859375 40.0625Q89.8125 40.0625 91.0 41.40625Q92.203125 42.75 92.203125 44.984375L92.203125 45.09375Q92.203125 46.484375 91.671875 47.59375Q91.140625 48.6875 90.15625 49.3125Q89.171875 49.921875 87.890625 49.921875Q85.953125 49.921875 84.75 48.578125Q83.546875 47.234375 83.546875 45.015625L83.546875 44.90625ZM85.1875 45.09375Q85.1875 46.6875 85.921875 47.640625Q86.65625 48.59375 87.890625 48.59375Q89.125 48.59375 89.84375 47.625Q90.578125 46.65625 90.578125 44.90625Q90.578125 43.34375 89.828125 42.375Q89.09375 41.40625 87.859375 41.40625Q86.65625 41.40625 85.921875 42.359375Q85.1875 43.3125 85.1875 45.09375ZM94.78125 49.75L94.78125 41.5L93.28125 41.5L93.28125 40.234375L94.78125 40.234375L94.78125 39.265625Q94.78125 37.734375 95.59375 36.90625Q96.421875 36.0625 97.90625 36.0625Q98.46875 36.0625 99.03125 36.21875L98.9375 37.53125Q98.53125 37.453125 98.0625 37.453125Q97.265625 37.453125 96.828125 37.921875Q96.40625 38.375 96.40625 39.234375L96.40625 40.234375L98.4375 40.234375L98.4375 41.5L96.40625 41.5L96.40625 49.75L94.78125 49.75ZM107.921875 49.921875Q106.0 49.921875 104.78125 48.65625Q103.5625 47.390625 103.5625 45.265625L103.5625 44.953125Q103.5625 43.546875 104.109375 42.4375Q104.65625 41.328125 105.625 40.703125Q106.59375 40.0625 107.71875 40.0625Q109.578125 40.0625 110.609375 41.28125Q111.640625 42.5 111.640625 44.78125L111.640625 45.453125L105.1875 45.453125Q105.234375 46.859375 106.015625 47.734375Q106.796875 48.59375 108.015625 48.59375Q108.875 48.59375 109.46875 48.25Q110.078125 47.890625 110.515625 47.3125L111.515625 48.09375Q110.3125 49.921875 107.921875 49.921875ZM107.71875 41.40625Q106.734375 41.40625 106.0625 42.125Q105.40625 42.828125 105.25 44.125L110.015625 44.125L110.015625 44.0Q109.9375 42.765625 109.34375 42.09375Q108.75 41.40625 107.71875 41.40625ZM117.125 47.546875L119.46875 40.234375L121.140625 40.234375L117.71875 49.75L116.484375 49.75L113.046875 40.234375L114.703125 40.234375L117.125 47.546875ZM126.921875 49.921875Q125.0 49.921875 123.78125 48.65625Q122.5625 47.390625 122.5625 45.265625L122.5625 44.953125Q122.5625 43.546875 123.109375 42.4375Q123.65625 41.328125 124.625 40.703125Q125.59375 40.0625 126.71875 40.0625Q128.57812 40.0625 129.60938 41.28125Q130.64062 42.5 130.64062 44.78125L130.64062 45.453125L124.1875 45.453125Q124.234375 46.859375 125.015625 47.734375Q125.796875 48.59375 127.015625 48.59375Q127.875 48.59375 128.46875 48.25Q129.07812 47.890625 129.51562 47.3125L130.51562 48.09375Q129.3125 49.921875 126.921875 49.921875ZM126.71875 41.40625Q125.734375 41.40625 125.0625 42.125Q124.40625 42.828125 124.25 44.125L129.01562 44.125L129.01562 44.0Q128.9375 42.765625 128.34375 42.09375Q127.75 41.40625 126.71875 41.40625ZM134.51562 40.234375L134.57812 41.4375Q135.65625 40.0625 137.42188 40.0625Q140.4375 40.0625 140.45312 43.46875L140.45312 49.75L138.82812 49.75L138.82812 43.453125Q138.82812 42.421875 138.35938 41.9375Q137.90625 41.4375 136.92188 41.4375Q136.14062 41.4375 135.53125 41.859375Q134.9375 42.28125 134.60938 42.96875L134.60938 49.75L132.98438 49.75L132.98438 40.234375L134.51562 40.234375ZM145.1875 37.9375L145.1875 40.234375L146.96875 40.234375L146.96875 41.5L145.1875 41.5L145.1875 47.390625Q145.1875 47.96875 145.42188 48.25Q145.65625 48.53125 146.23438 48.53125Q146.51562 48.53125 147.0 48.4375L147.0 49.75Q146.35938 49.921875 145.76562 49.921875Q144.67188 49.921875 144.10938 49.265625Q143.5625 48.609375 143.5625 47.390625L143.5625 41.5L141.82812 41.5L141.82812 40.234375L143.5625 40.234375L143.5625 37.9375L145.1875 37.9375ZM154.51562 47.234375Q154.51562 46.5625 154.01562 46.203125Q153.53125 45.84375 152.29688 45.578125Q151.0625 45.3125 150.32812 44.953125Q149.60938 44.578125 149.25 44.0625Q148.90625 43.546875 148.90625 42.84375Q148.90625 41.6875 149.89062 40.875Q150.89062 40.0625 152.42188 40.0625Q154.04688 40.0625 155.04688 40.90625Q156.0625 41.734375 156.0625 43.03125L154.42188 43.03125Q154.42188 42.359375 153.84375 41.890625Q153.28125 41.40625 152.42188 41.40625Q151.53125 41.40625 151.03125 41.796875Q150.53125 42.171875 150.53125 42.796875Q150.53125 43.390625 151.0 43.6875Q151.46875 43.984375 152.6875 44.265625Q153.90625 44.53125 154.65625 44.90625Q155.42188 45.28125 155.78125 45.8125Q156.14062 46.34375 156.14062 47.109375Q156.14062 48.390625 155.125 49.15625Q154.10938 49.921875 152.48438 49.921875Q151.34375 49.921875 150.45312 49.515625Q149.57812 49.109375 149.07812 48.390625Q148.57812 47.671875 148.57812 46.828125L150.21875 46.828125Q150.25 47.640625 150.85938 48.125Q151.48438 48.59375 152.48438 48.59375Q153.40625 48.59375 153.95312 48.21875Q154.51562 47.84375 154.51562 47.234375ZM161.54688 44.90625Q161.54688 43.515625 162.09375 42.40625Q162.65625 41.28125 163.625 40.671875Q164.60938 40.0625 165.85938 40.0625Q167.8125 40.0625 169.0 41.40625Q170.20312 42.75 170.20312 44.984375L170.20312 45.09375Q170.20312 46.484375 169.67188 47.59375Q169.14062 48.6875 168.15625 49.3125Q167.17188 49.921875 165.89062 49.921875Q163.95312 49.921875 162.75 48.578125Q161.54688 47.234375 161.54688 45.015625L161.54688 44.90625ZM163.1875 45.09375Q163.1875 46.6875 163.92188 47.640625Q164.65625 48.59375 165.89062 48.59375Q167.125 48.59375 167.84375 47.625Q168.57812 46.65625 168.57812 44.90625Q168.57812 43.34375 167.82812 42.375Q167.09375 41.40625 165.85938 41.40625Q164.65625 41.40625 163.92188 42.359375Q163.1875 43.3125 163.1875 45.09375ZM175.125 47.546875L177.46875 40.234375L179.14062 40.234375L175.71875 49.75L174.48438 49.75L171.04688 40.234375L172.70312 40.234375L175.125 47.546875ZM184.92188 49.921875Q183.0 49.921875 181.78125 48.65625Q180.5625 47.390625 180.5625 45.265625L180.5625 44.953125Q180.5625 43.546875 181.10938 42.4375Q181.65625 41.328125 182.625 40.703125Q183.59375 40.0625 184.71875 40.0625Q186.57812 40.0625 187.60938 41.28125Q188.64062 42.5 188.64062 44.78125L188.64062 45.453125L182.1875 45.453125Q182.23438 46.859375 183.01562 47.734375Q183.79688 48.59375 185.01562 48.59375Q185.875 48.59375 186.46875 48.25Q187.07812 47.890625 187.51562 47.3125L188.51562 48.09375Q187.3125 49.921875 184.92188 49.921875ZM184.71875 41.40625Q183.73438 41.40625 183.0625 42.125Q182.40625 42.828125 182.25 44.125L187.01562 44.125L187.01562 44.0Q186.9375 42.765625 186.34375 42.09375Q185.75 41.40625 184.71875 41.40625ZM195.57812 41.703125Q195.20312 41.640625 194.78125 41.640625Q193.17188 41.640625 192.60938 43.0L192.60938 49.75L190.98438 49.75L190.98438 40.234375L192.5625 40.234375L192.59375 41.34375Q193.39062 40.0625 194.85938 40.0625Q195.32812 40.0625 195.57812 40.1875L195.57812 41.703125ZM203.1875 37.9375L203.1875 40.234375L204.96875 40.234375L204.96875 41.5L203.1875 41.5L203.1875 47.390625Q203.1875 47.96875 203.42188 48.25Q203.65625 48.53125 204.23438 48.53125Q204.51562 48.53125 205.0 48.4375L205.0 49.75Q204.35938 49.921875 203.76562 49.921875Q202.67188 49.921875 202.10938 49.265625Q201.5625 48.609375 201.5625 47.390625L201.5625 41.5L199.82812 41.5L199.82812 40.234375L201.5625 40.234375L201.5625 37.9375L203.1875 37.9375ZM208.75 49.75L207.125 49.75L207.125 40.234375L208.75 40.234375L208.75 49.75ZM206.98438 37.71875Q206.98438 37.328125 207.21875 37.0625Q207.46875 36.78125 207.9375 36.78125Q208.42188 36.78125 208.67188 37.0625Q208.92188 37.328125 208.92188 37.71875Q208.92188 38.109375 208.67188 38.375Q208.42188 38.640625 207.9375 38.640625Q207.46875 38.640625 207.21875 38.375Q206.98438 38.109375 206.98438 37.71875ZM212.51562 40.234375L212.54688 41.296875Q213.59375 40.0625 215.375 40.0625Q217.375 40.0625 218.09375 41.59375Q218.5625 40.90625 219.32812 40.484375Q220.09375 40.0625 221.125 40.0625Q224.25 40.0625 224.3125 43.375L224.3125 49.75L222.67188 49.75L222.67188 43.46875Q222.67188 42.453125 222.20312 41.953125Q221.75 41.4375 220.65625 41.4375Q219.75 41.4375 219.14062 41.984375Q218.54688 42.53125 218.45312 43.4375L218.45312 49.75L216.8125 49.75L216.8125 43.515625Q216.8125 41.4375 214.78125 41.4375Q213.1875 41.4375 212.59375 42.8125L212.59375 49.75L210.96875 49.75L210.96875 40.234375L212.51562 40.234375ZM230.92188 49.921875Q229.0 49.921875 227.78125 48.65625Q226.5625 47.390625 226.5625 45.265625L226.5625 44.953125Q226.5625 43.546875 227.10938 42.4375Q227.65625 41.328125 228.625 40.703125Q229.59375 40.0625 230.71875 40.0625Q232.57812 40.0625 233.60938 41.28125Q234.64062 42.5 234.64062 44.78125L234.64062 45.453125L228.1875 45.453125Q228.23438 46.859375 229.01562 47.734375Q229.79688 48.59375 231.01562 48.59375Q231.875 48.59375 232.46875 48.25Q233.07812 47.890625 233.51562 47.3125L234.51562 48.09375Q233.3125 49.921875 230.92188 49.921875ZM230.71875 41.40625Q229.73438 41.40625 229.0625 42.125Q228.40625 42.828125 228.25 44.125L233.01562 44.125L233.01562 44.0Q232.9375 42.765625 232.34375 42.09375Q231.75 41.40625 230.71875 41.40625Z" fill-rule="nonzero"/></svg>