<svg version="1.1" viewBox="0.0 0.0 1059.0 655.0" fill="none" stroke="none" stroke-linecap="square" stroke-miterlimit="10" width="1059" height="655" xmlns:xlink="http://www.w3.org/1999/xlink" xmlns="http://www.w3.org/2000/svg"><path fill="#ffffff" d="M0 0L1059.0 0L1059.0 655.0L0 655.0L0 0Z" fill-rule="nonzero"/><path stroke="#333333" stroke-width="1.0" stroke-linecap="butt" d="M55.5 601.5L1026.5 601.5" fill-rule="nonzero"/><path stroke="#cccccc" stroke-width="1.0" stroke-linecap="butt" d="M55.5 471.5L1026.5 471.5" fill-rule="nonzero"/><path stroke="#cccccc" stroke-width="1.0" stroke-linecap="butt" d="M55.5 342.5L1026.5 342.5" fill-rule="nonzero"/><path stroke="#cccccc" stroke-width="1.0" stroke-linecap="butt" d="M55.5 212.5L1026.5 212.5" fill-rule="nonzero"/><path stroke="#cccccc" stroke-width="1.0" stroke-linecap="butt" d="M55.5 83.5L1026.5 83.5" fill-rule="nonzero"/><clipPath id="id_0"><path d="M55.75 83.083336L1026.25 83.083336L1026.25 601.25L55.75 601.25L55.75 83.083336Z" clip-rule="nonzero"/></clipPath><path stroke="#1c4587" stroke-width="3.0" stroke-linecap="butt" clip-path="url(#id_0)" d="M104.275 445.8L201.325 368.075L298.375 523.525L395.425 355.12082L492.475 108.99167L589.525 452.27707L686.575 309.78125L783.625 497.61667L880.675 167.28542L977.725 225.57916" fill-rule="nonzero"/><path fill="#000000" fill-opacity="0.0" clip-path="url(#id_0)" d="M107.275 445.8C107.275 447.45685 105.931854 448.8 104.275 448.8C102.61815 448.8 101.275 447.45685 101.275 445.8C101.275 444.14316 102.61815 442.8 104.275 442.8C105.931854 442.8 107.275 444.14316 107.275 445.8Z" fill-rule="nonzero"/><path fill="#000000" fill-opacity="0.0" clip-path="url(#id_0)" d="M204.325 368.075C204.325 369.73184 202.98186 371.075 201.325 371.075C199.66815 371.075 198.325 369.73184 198.325 368.075C198.325 366.41815 199.66815 365.075 201.325 365.075C202.98186 365.075 204.325 366.41815 204.325 368.075Z" fill-rule="nonzero"/><path fill="#000000" fill-opacity="0.0" clip-path="url(#id_0)" d="M301.375 523.525C301.375 525.1819 300.03186 526.525 298.375 526.525C296.71814 526.525 295.375 525.1819 295.375 523.525C295.375 521.86816 296.71814 520.525 298.375 520.525C300.03186 520.525 301.375 521.86816 301.375 523.525Z" fill-rule="nonzero"/><path fill="#000000" fill-opacity="0.0" clip-path="url(#id_0)" d="M398.425 355.12082C398.425 356.77768 397.08185 358.12082 395.425 358.12082C393.76816 358.12082 392.425 356.77768 392.425 355.12082C392.425 353.464 393.76816 352.12082 395.425 352.12082C397.08185 352.12082 398.425 353.464 398.425 355.12082Z" fill-rule="nonzero"/><path fill="#000000" fill-opacity="0.0" clip-path="url(#id_0)" d="M495.475 108.99167C495.475 110.64852 494.13187 111.99167 492.475 111.99167C490.81815 111.99167 489.475 110.64852 489.475 108.99167C489.475 107.334816 490.81815 105.99167 492.475 105.99167C494.13187 105.99167 495.475 107.334816 495.475 108.99167Z" fill-rule="nonzero"/><path fill="#000000" fill-opacity="0.0" clip-path="url(#id_0)" d="M592.525 452.27707C592.525 453.93393 591.1819 455.27707 589.525 455.27707C587.86816 455.27707 586.525 453.93393 586.525 452.27707C586.525 450.62024 587.86816 449.27707 589.525 449.27707C591.1819 449.27707 592.525 450.62024 592.525 452.27707Z" fill-rule="nonzero"/><path fill="#000000" fill-opacity="0.0" clip-path="url(#id_0)" d="M689.575 309.78125C689.575 311.4381 688.2319 312.78125 686.575 312.78125C684.91815 312.78125 683.575 311.4381 683.575 309.78125C683.575 308.1244 684.91815 306.78125 686.575 306.78125C688.2319 306.78125 689.575 308.1244 689.575 309.78125Z" fill-rule="nonzero"/><path fill="#000000" fill-opacity="0.0" clip-path="url(#id_0)" d="M786.625 497.61667C786.625 499.27353 785.28186 500.61667 783.625 500.61667C781.96814 500.61667 780.625 499.27353 780.625 497.61667C780.625 495.9598 781.96814 494.61667 783.625 494.61667C785.28186 494.61667 786.625 495.9598 786.625 497.61667Z" fill-rule="nonzero"/><path fill="#000000" fill-opacity="0.0" clip-path="url(#id_0)" d="M883.675 167.28542C883.675 168.94228 882.33185 170.28542 880.675 170.28542C879.0181 170.28542 877.675 168.94228 877.675 167.28542C877.675 165.62856 879.0181 164.28542 880.675 164.28542C882.33185 164.28542 883.675 165.62856 883.675 167.28542Z" fill-rule="nonzero"/><path fill="#000000" fill-opacity="0.0" clip-path="url(#id_0)" d="M980.725 225.57916C980.725 227.23602 979.38184 228.57916 977.725 228.57916C976.0681 228.57916 974.725 227.23602 974.725 225.57916C974.725 223.92232 976.0681 222.57916 977.725 222.57916C979.38184 222.57916 980.725 223.92232 980.725 225.57916Z" fill-rule="nonzero"/><path fill="#b7b7b7" d="M49.796875 601.71875Q49.796875 603.2969 49.25 604.0781Q48.71875 604.84375 47.5625 604.84375Q46.421875 604.84375 45.875 604.09375Q45.328125 603.34375 45.3125 601.84375L45.3125 600.6406Q45.3125 599.0625 45.84375 598.3125Q46.390625 597.5469 47.546875 597.5469Q48.703125 597.5469 49.234375 598.28125Q49.78125 599.0156 49.796875 600.5469L49.796875 601.71875ZM48.890625 600.4844Q48.890625 599.3281 48.5625 598.8125Q48.25 598.28125 47.546875 598.28125Q46.859375 598.28125 46.53125 598.8125Q46.21875 599.3281 46.21875 600.40625L46.21875 601.8594Q46.21875 603.0156 46.546875 603.5625Q46.890625 604.1094 47.5625 604.1094Q48.234375 604.1094 48.546875 603.59375Q48.875 603.0781 48.890625 601.96875L48.890625 600.4844Z" fill-rule="nonzero"/><path fill="#b7b7b7" d="M38.0 475.20834L33.34375 475.20834L33.34375 474.5521L35.796875 471.81772Q36.34375 471.20834 36.546875 470.81772Q36.765625 470.4271 36.765625 470.00522Q36.765625 469.45834 36.421875 469.09897Q36.09375 468.7396 35.53125 468.7396Q34.859375 468.7396 34.484375 469.13022Q34.109375 469.50522 34.109375 470.19272L33.203125 470.19272Q33.203125 469.20834 33.828125 468.6146Q34.46875 468.00522 35.53125 468.00522Q36.515625 468.00522 37.09375 468.52084Q37.671875 469.03647 37.671875 469.91147Q37.671875 470.95834 36.328125 472.41147L34.4375 474.47397L38.0 474.47397L38.0 475.20834ZM43.796875 472.1771Q43.796875 473.75522 43.25 474.53647Q42.71875 475.3021 41.5625 475.3021Q40.421875 475.3021 39.875 474.5521Q39.328125 473.8021 39.3125 472.3021L39.3125 471.09897Q39.3125 469.52084 39.84375 468.77084Q40.390625 468.00522 41.546875 468.00522Q42.703125 468.00522 43.234375 468.7396Q43.78125 469.47397 43.796875 471.00522L43.796875 472.1771ZM42.890625 470.94272Q42.890625 469.78647 42.5625 469.27084Q42.25 468.7396 41.546875 468.7396Q40.859375 468.7396 40.53125 469.27084Q40.21875 469.78647 40.21875 470.8646L40.21875 472.31772Q40.21875 473.47397 40.546875 474.02084Q40.890625 474.56772 41.5625 474.56772Q42.234375 474.56772 42.546875 474.0521Q42.875 473.53647 42.890625 472.4271L42.890625 470.94272ZM49.796875 472.1771Q49.796875 473.75522 49.25 474.53647Q48.71875 475.3021 47.5625 475.3021Q46.421875 475.3021 45.875 474.5521Q45.328125 473.8021 45.3125 472.3021L45.3125 471.09897Q45.3125 469.52084 45.84375 468.77084Q46.390625 468.00522 47.546875 468.00522Q48.703125 468.00522 49.234375 468.7396Q49.78125 469.47397 49.796875 471.00522L49.796875 472.1771ZM48.890625 470.94272Q48.890625 469.78647 48.5625 469.27084Q48.25 468.7396 47.546875 468.7396Q46.859375 468.7396 46.53125 469.27084Q46.21875 469.78647 46.21875 470.8646L46.21875 472.31772Q46.21875 473.47397 46.546875 474.02084Q46.890625 474.56772 47.5625 474.56772Q48.234375 474.56772 48.546875 474.0521Q48.875 473.53647 48.890625 472.4271L48.890625 470.94272Z" fill-rule="nonzero"/><path fill="#b7b7b7" d="M37.15625 343.27603L38.140625 343.27603L38.140625 344.0104L37.15625 344.0104L37.15625 345.66666L36.25 345.66666L36.25 344.0104L33.015625 344.0104L33.015625 343.47916L36.1875 338.55728L37.15625 338.55728L37.15625 343.27603ZM34.03125 343.27603L36.25 343.27603L36.25 339.79166L36.140625 339.99478L34.03125 343.27603ZM43.796875 342.6354Q43.796875 344.21353 43.25 344.99478Q42.71875 345.7604 41.5625 345.7604Q40.421875 345.7604 39.875 345.0104Q39.328125 344.2604 39.3125 342.7604L39.3125 341.55728Q39.3125 339.97916 39.84375 339.22916Q40.390625 338.46353 41.546875 338.46353Q42.703125 338.46353 43.234375 339.1979Q43.78125 339.93228 43.796875 341.46353L43.796875 342.6354ZM42.890625 341.40103Q42.890625 340.24478 42.5625 339.72916Q42.25 339.1979 41.546875 339.1979Q40.859375 339.1979 40.53125 339.72916Q40.21875 340.24478 40.21875 341.3229L40.21875 342.77603Q40.21875 343.93228 40.546875 344.47916Q40.890625 345.02603 41.5625 345.02603Q42.234375 345.02603 42.546875 344.5104Q42.875 343.99478 42.890625 342.8854L42.890625 341.40103ZM49.796875 342.6354Q49.796875 344.21353 49.25 344.99478Q48.71875 345.7604 47.5625 345.7604Q46.421875 345.7604 45.875 345.0104Q45.328125 344.2604 45.3125 342.7604L45.3125 341.55728Q45.3125 339.97916 45.84375 339.22916Q46.390625 338.46353 47.546875 338.46353Q48.703125 338.46353 49.234375 339.1979Q49.78125 339.93228 49.796875 341.46353L49.796875 342.6354ZM48.890625 341.40103Q48.890625 340.24478 48.5625 339.72916Q48.25 339.1979 47.546875 339.1979Q46.859375 339.1979 46.53125 339.72916Q46.21875 340.24478 46.21875 341.3229L46.21875 342.77603Q46.21875 343.93228 46.546875 344.47916Q46.890625 345.02603 47.5625 345.02603Q48.234375 345.02603 48.546875 344.5104Q48.875 343.99478 48.890625 342.8854L48.890625 341.40103Z" fill-rule="nonzero"/><path fill="#b7b7b7" d="M36.890625 209.01562L36.890625 209.78125L36.71875 209.78125Q35.671875 209.79688 35.046875 210.40625Q34.421875 211.0 34.3125 212.10938Q34.875 211.46875 35.84375 211.46875Q36.78125 211.46875 37.328125 212.125Q37.890625 212.76562 37.890625 213.8125Q37.890625 214.90625 37.28125 215.5625Q36.6875 216.21875 35.6875 216.21875Q34.671875 216.21875 34.03125 215.4375Q33.390625 214.65625 33.390625 213.42188L33.390625 213.07812Q33.390625 211.10938 34.21875 210.07812Q35.0625 209.03125 36.71875 209.01562L36.890625 209.01562ZM35.703125 212.21875Q35.234375 212.21875 34.84375 212.5Q34.453125 212.76562 34.296875 213.1875L34.296875 213.51562Q34.296875 214.40625 34.6875 214.9375Q35.09375 215.46875 35.6875 215.46875Q36.296875 215.46875 36.640625 215.03125Q37.0 214.57812 37.0 213.84375Q37.0 213.10938 36.640625 212.67188Q36.28125 212.21875 35.703125 212.21875ZM43.796875 213.09375Q43.796875 214.67188 43.25 215.45312Q42.71875 216.21875 41.5625 216.21875Q40.421875 216.21875 39.875 215.46875Q39.328125 214.71875 39.3125 213.21875L39.3125 212.01562Q39.3125 210.4375 39.84375 209.6875Q40.390625 208.92188 41.546875 208.92188Q42.703125 208.92188 43.234375 209.65625Q43.78125 210.39062 43.796875 211.92188L43.796875 213.09375ZM42.890625 211.85938Q42.890625 210.70312 42.5625 210.1875Q42.25 209.65625 41.546875 209.65625Q40.859375 209.65625 40.53125 210.1875Q40.21875 210.70312 40.21875 211.78125L40.21875 213.23438Q40.21875 214.39062 40.546875 214.9375Q40.890625 215.48438 41.5625 215.48438Q42.234375 215.48438 42.546875 214.96875Q42.875 214.45312 42.890625 213.34375L42.890625 211.85938ZM49.796875 213.09375Q49.796875 214.67188 49.25 215.45312Q48.71875 216.21875 47.5625 216.21875Q46.421875 216.21875 45.875 215.46875Q45.328125 214.71875 45.3125 213.21875L45.3125 212.01562Q45.3125 210.4375 45.84375 209.6875Q46.390625 208.92188 47.546875 208.92188Q48.703125 208.92188 49.234375 209.65625Q49.78125 210.39062 49.796875 211.92188L49.796875 213.09375ZM48.890625 211.85938Q48.890625 210.70312 48.5625 210.1875Q48.25 209.65625 47.546875 209.65625Q46.859375 209.65625 46.53125 210.1875Q46.21875 210.70312 46.21875 211.78125L46.21875 213.23438Q46.21875 214.39062 46.546875 214.9375Q46.890625 215.48438 47.5625 215.48438Q48.234375 215.48438 48.546875 214.96875Q48.875 214.45312 48.890625 213.34375L48.890625 211.85938Z" fill-rule="nonzero"/><path fill="#b7b7b7" d="M37.65625 81.333336Q37.65625 81.864586 37.375 82.28646Q37.09375 82.69271 36.609375 82.927086Q37.171875 83.16146 37.484375 83.63021Q37.8125 84.083336 37.8125 84.66146Q37.8125 85.583336 37.1875 86.13021Q36.578125 86.677086 35.5625 86.677086Q34.53125 86.677086 33.90625 86.13021Q33.296875 85.583336 33.296875 84.66146Q33.296875 84.083336 33.609375 83.63021Q33.921875 83.16146 34.484375 82.927086Q34.015625 82.69271 33.734375 82.270836Q33.46875 81.84896 33.46875 81.333336Q33.46875 80.427086 34.03125 79.91146Q34.609375 79.38021 35.5625 79.38021Q36.5 79.38021 37.078125 79.91146Q37.65625 80.427086 37.65625 81.333336ZM36.921875 84.645836Q36.921875 84.052086 36.53125 83.677086Q36.15625 83.302086 35.546875 83.302086Q34.9375 83.302086 34.5625 83.677086Q34.203125 84.03646 34.203125 84.645836Q34.203125 85.25521 34.5625 85.59896Q34.921875 85.94271 35.5625 85.94271Q36.1875 85.94271 36.546875 85.59896Q36.921875 85.239586 36.921875 84.645836ZM35.5625 80.114586Q35.03125 80.114586 34.6875 80.44271Q34.359375 80.770836 34.359375 81.34896Q34.359375 81.88021 34.6875 82.22396Q35.015625 82.552086 35.546875 82.552086Q36.09375 82.552086 36.421875 82.22396Q36.75 81.88021 36.75 81.34896Q36.75 80.802086 36.40625 80.458336Q36.078125 80.114586 35.5625 80.114586ZM43.796875 83.552086Q43.796875 85.13021 43.25 85.91146Q42.71875 86.677086 41.5625 86.677086Q40.421875 86.677086 39.875 85.927086Q39.328125 85.177086 39.3125 83.677086L39.3125 82.47396Q39.3125 80.895836 39.84375 80.145836Q40.390625 79.38021 41.546875 79.38021Q42.703125 79.38021 43.234375 80.114586Q43.78125 80.84896 43.796875 82.38021L43.796875 83.552086ZM42.890625 82.31771Q42.890625 81.16146 42.5625 80.645836Q42.25 80.114586 41.546875 80.114586Q40.859375 80.114586 40.53125 80.645836Q40.21875 81.16146 40.21875 82.239586L40.21875 83.69271Q40.21875 84.84896 40.546875 85.395836Q40.890625 85.94271 41.5625 85.94271Q42.234375 85.94271 42.546875 85.427086Q42.875 84.91146 42.890625 83.802086L42.890625 82.31771ZM49.796875 83.552086Q49.796875 85.13021 49.25 85.91146Q48.71875 86.677086 47.5625 86.677086Q46.421875 86.677086 45.875 85.927086Q45.328125 85.177086 45.3125 83.677086L45.3125 82.47396Q45.3125 80.895836 45.84375 80.145836Q46.390625 79.38021 47.546875 79.38021Q48.703125 79.38021 49.234375 80.114586Q49.78125 80.84896 49.796875 82.38021L49.796875 83.552086ZM48.890625 82.31771Q48.890625 81.16146 48.5625 80.645836Q48.25 80.114586 47.546875 80.114586Q46.859375 80.114586 46.53125 80.645836Q46.21875 81.16146 46.21875 82.239586L46.21875 83.69271Q46.21875 84.84896 46.546875 85.395836Q46.890625 85.94271 47.5625 85.94271Q48.234375 85.94271 48.546875 85.427086Q48.875 84.91146 48.890625 83.802086L48.890625 82.31771Z" fill-rule="nonzero"/><path fill="#000000" d="M90.0875 615.3125L86.38438 615.3125L86.38438 618.3281L90.68125 618.3281L90.68125 619.25L85.25938 619.25L85.25938 610.71875L90.63438 610.71875L90.63438 611.6406L86.38438 611.6406L86.38438 614.3906L90.0875 614.3906L90.0875 615.3125ZM94.18125 617.78125L95.75938 612.90625L96.86875 612.90625L94.5875 619.25L93.75938 619.25L91.4625 612.90625L92.57188 612.90625L94.18125 617.78125ZM100.72813 619.375Q99.43125 619.375 98.61875 618.53125Q97.82188 617.6719 97.82188 616.25L97.82188 616.0625Q97.82188 615.1094 98.18125 614.375Q98.54063 613.625 99.18125 613.21875Q99.8375 612.7969 100.5875 612.7969Q101.82188 612.7969 102.50938 613.6094Q103.19688 614.4219 103.19688 615.9375L103.19688 616.3906L98.9 616.3906Q98.93125 617.3281 99.44688 617.90625Q99.97813 618.4844 100.79063 618.4844Q101.35313 618.4844 101.74375 618.25Q102.15 618.0156 102.4625 617.625L103.11875 618.1406Q102.32188 619.375 100.72813 619.375ZM100.5875 613.6875Q99.93125 613.6875 99.47813 614.1719Q99.04063 614.6406 98.94688 615.5L102.11875 615.5L102.11875 615.4219Q102.07188 614.59375 101.66563 614.1406Q101.275 613.6875 100.5875 613.6875ZM105.11875 612.90625L105.15 613.7031Q105.88438 612.7969 107.05625 612.7969Q109.07188 612.7969 109.0875 615.0625L109.0875 619.25L107.99375 619.25L107.99375 615.0469Q107.99375 614.375 107.68125 614.0469Q107.38438 613.71875 106.72813 613.71875Q106.19688 613.71875 105.79063 614.0Q105.4 614.28125 105.18125 614.7344L105.18125 619.25L104.10313 619.25L104.10313 612.90625L105.11875 612.90625ZM112.57188 611.375L112.57188 612.90625L113.74375 612.90625L113.74375 613.75L112.57188 613.75L112.57188 617.6719Q112.57188 618.0625 112.72813 618.25Q112.88438 618.4375 113.25938 618.4375Q113.44688 618.4375 113.775 618.375L113.775 619.25Q113.35313 619.375 112.94688 619.375Q112.22813 619.375 111.85313 618.9375Q111.47813 618.4844 111.47813 617.6719L111.47813 613.75L110.32188 613.75L110.32188 612.90625L111.47813 612.90625L111.47813 611.375L112.57188 611.375ZM121.54063 619.25L120.4625 619.25L120.4625 612.03125L118.275 612.8281L118.275 611.84375L121.38438 610.6719L121.54063 610.6719L121.54063 619.25Z" fill-rule="nonzero"/><path fill="#000000" d="M187.1375 615.3125L183.43437 615.3125L183.43437 618.3281L187.73125 618.3281L187.73125 619.25L182.30937 619.25L182.30937 610.71875L187.68437 610.71875L187.68437 611.6406L183.43437 611.6406L183.43437 614.3906L187.1375 614.3906L187.1375 615.3125ZM191.23125 617.78125L192.80937 612.90625L193.91875 612.90625L191.6375 619.25L190.80937 619.25L188.5125 612.90625L189.62187 612.90625L191.23125 617.78125ZM197.77812 619.375Q196.48125 619.375 195.66875 618.53125Q194.87187 617.6719 194.87187 616.25L194.87187 616.0625Q194.87187 615.1094 195.23125 614.375Q195.59062 613.625 196.23125 613.21875Q196.8875 612.7969 197.6375 612.7969Q198.87187 612.7969 199.55937 613.6094Q200.24687 614.4219 200.24687 615.9375L200.24687 616.3906L195.95 616.3906Q195.98125 617.3281 196.49687 617.90625Q197.02812 618.4844 197.84062 618.4844Q198.40312 618.4844 198.79375 618.25Q199.2 618.0156 199.5125 617.625L200.16875 618.1406Q199.37187 619.375 197.77812 619.375ZM197.6375 613.6875Q196.98125 613.6875 196.52812 614.1719Q196.09062 614.6406 195.99687 615.5L199.16875 615.5L199.16875 615.4219Q199.12187 614.59375 198.71562 614.1406Q198.325 613.6875 197.6375 613.6875ZM202.16875 612.90625L202.2 613.7031Q202.93437 612.7969 204.10625 612.7969Q206.12187 612.7969 206.1375 615.0625L206.1375 619.25L205.04375 619.25L205.04375 615.0469Q205.04375 614.375 204.73125 614.0469Q204.43437 613.71875 203.77812 613.71875Q203.24687 613.71875 202.84062 614.0Q202.45 614.28125 202.23125 614.7344L202.23125 619.25L201.15312 619.25L201.15312 612.90625L202.16875 612.90625ZM209.62187 611.375L209.62187 612.90625L210.79375 612.90625L210.79375 613.75L209.62187 613.75L209.62187 617.6719Q209.62187 618.0625 209.77812 618.25Q209.93437 618.4375 210.30937 618.4375Q210.49687 618.4375 210.825 618.375L210.825 619.25Q210.40312 619.375 209.99687 619.375Q209.27812 619.375 208.90312 618.9375Q208.52812 618.4844 208.52812 617.6719L208.52812 613.75L207.37187 613.75L207.37187 612.90625L208.52812 612.90625L208.52812 611.375L209.62187 611.375ZM220.62187 619.25L215.02812 619.25L215.02812 618.46875L217.98125 615.1875Q218.6375 614.4375 218.8875 613.9844Q219.1375 613.5156 219.1375 613.0156Q219.1375 612.34375 218.73125 611.9219Q218.34062 611.4844 217.65312 611.4844Q216.85625 611.4844 216.40312 611.9531Q215.95 612.40625 215.95 613.2344L214.87187 613.2344Q214.87187 612.0469 215.62187 611.3281Q216.3875 610.59375 217.65312 610.59375Q218.85625 610.59375 219.54375 611.21875Q220.23125 611.84375 220.23125 612.8906Q220.23125 614.1406 218.62187 615.8906L216.34062 618.3594L220.62187 618.3594L220.62187 619.25Z" fill-rule="nonzero"/><path fill="#000000" d="M284.1875 615.3125L280.48438 615.3125L280.48438 618.3281L284.78125 618.3281L284.78125 619.25L279.35938 619.25L279.35938 610.71875L284.73438 610.71875L284.73438 611.6406L280.48438 611.6406L280.48438 614.3906L284.1875 614.3906L284.1875 615.3125ZM288.28125 617.78125L289.85938 612.90625L290.96875 612.90625L288.6875 619.25L287.85938 619.25L285.5625 612.90625L286.67188 612.90625L288.28125 617.78125ZM294.82812 619.375Q293.53125 619.375 292.71875 618.53125Q291.92188 617.6719 291.92188 616.25L291.92188 616.0625Q291.92188 615.1094 292.28125 614.375Q292.64062 613.625 293.28125 613.21875Q293.9375 612.7969 294.6875 612.7969Q295.92188 612.7969 296.60938 613.6094Q297.29688 614.4219 297.29688 615.9375L297.29688 616.3906L293.0 616.3906Q293.03125 617.3281 293.54688 617.90625Q294.07812 618.4844 294.89062 618.4844Q295.45312 618.4844 295.84375 618.25Q296.25 618.0156 296.5625 617.625L297.21875 618.1406Q296.42188 619.375 294.82812 619.375ZM294.6875 613.6875Q294.03125 613.6875 293.57812 614.1719Q293.14062 614.6406 293.04688 615.5L296.21875 615.5L296.21875 615.4219Q296.17188 614.59375 295.76562 614.1406Q295.375 613.6875 294.6875 613.6875ZM299.21875 612.90625L299.25 613.7031Q299.98438 612.7969 301.15625 612.7969Q303.17188 612.7969 303.1875 615.0625L303.1875 619.25L302.09375 619.25L302.09375 615.0469Q302.09375 614.375 301.78125 614.0469Q301.48438 613.71875 300.82812 613.71875Q300.29688 613.71875 299.89062 614.0Q299.5 614.28125 299.28125 614.7344L299.28125 619.25L298.20312 619.25L298.20312 612.90625L299.21875 612.90625ZM306.67188 611.375L306.67188 612.90625L307.84375 612.90625L307.84375 613.75L306.67188 613.75L306.67188 617.6719Q306.67188 618.0625 306.82812 618.25Q306.98438 618.4375 307.35938 618.4375Q307.54688 618.4375 307.875 618.375L307.875 619.25Q307.45312 619.375 307.04688 619.375Q306.32812 619.375 305.95312 618.9375Q305.57812 618.4844 305.57812 617.6719L305.57812 613.75L304.42188 613.75L304.42188 612.90625L305.57812 612.90625L305.57812 611.375L306.67188 611.375ZM313.65625 614.4531L314.46875 614.4531Q315.25 614.4375 315.6875 614.0469Q316.125 613.65625 316.125 612.9844Q316.125 611.4844 314.625 611.4844Q313.92188 611.4844 313.5 611.8906Q313.09375 612.2969 313.09375 612.9531L312.0 612.9531Q312.0 611.9375 312.73438 611.2656Q313.48438 610.59375 314.625 610.59375Q315.82812 610.59375 316.51562 611.2344Q317.20312 611.875 317.20312 613.0156Q317.20312 613.5781 316.84375 614.09375Q316.48438 614.6094 315.85938 614.875Q316.5625 615.09375 316.9375 615.6094Q317.32812 616.125 317.32812 616.875Q317.32812 618.0156 316.57812 618.7031Q315.82812 619.375 314.625 619.375Q313.4375 619.375 312.67188 618.71875Q311.92188 618.0625 311.92188 617.0L313.01562 617.0Q313.01562 617.6719 313.45312 618.0781Q313.89062 618.4844 314.64062 618.4844Q315.42188 618.4844 315.82812 618.0781Q316.25 617.65625 316.25 616.8906Q316.25 616.15625 315.79688 615.7656Q315.34375 615.3594 314.46875 615.34375L313.65625 615.34375L313.65625 614.4531Z" fill-rule="nonzero"/><path fill="#000000" d="M381.2375 615.3125L377.53436 615.3125L377.53436 618.3281L381.83124 618.3281L381.83124 619.25L376.40936 619.25L376.40936 610.71875L381.78436 610.71875L381.78436 611.6406L377.53436 611.6406L377.53436 614.3906L381.2375 614.3906L381.2375 615.3125ZM385.33124 617.78125L386.90936 612.90625L388.01874 612.90625L385.7375 619.25L384.90936 619.25L382.6125 612.90625L383.72186 612.90625L385.33124 617.78125ZM391.8781 619.375Q390.58124 619.375 389.76874 618.53125Q388.97186 617.6719 388.97186 616.25L388.97186 616.0625Q388.97186 615.1094 389.33124 614.375Q389.6906 613.625 390.33124 613.21875Q390.9875 612.7969 391.7375 612.7969Q392.97186 612.7969 393.65936 613.6094Q394.34686 614.4219 394.34686 615.9375L394.34686 616.3906L390.05 616.3906Q390.08124 617.3281 390.59686 617.90625Q391.1281 618.4844 391.9406 618.4844Q392.5031 618.4844 392.89374 618.25Q393.3 618.0156 393.6125 617.625L394.26874 618.1406Q393.47186 619.375 391.8781 619.375ZM391.7375 613.6875Q391.08124 613.6875 390.6281 614.1719Q390.1906 614.6406 390.09686 615.5L393.26874 615.5L393.26874 615.4219Q393.22186 614.59375 392.8156 614.1406Q392.425 613.6875 391.7375 613.6875ZM396.26874 612.90625L396.3 613.7031Q397.03436 612.7969 398.20624 612.7969Q400.22186 612.7969 400.2375 615.0625L400.2375 619.25L399.14374 619.25L399.14374 615.0469Q399.14374 614.375 398.83124 614.0469Q398.53436 613.71875 397.8781 613.71875Q397.34686 613.71875 396.9406 614.0Q396.55 614.28125 396.33124 614.7344L396.33124 619.25L395.2531 619.25L395.2531 612.90625L396.26874 612.90625ZM403.72186 611.375L403.72186 612.90625L404.89374 612.90625L404.89374 613.75L403.72186 613.75L403.72186 617.6719Q403.72186 618.0625 403.8781 618.25Q404.03436 618.4375 404.40936 618.4375Q404.59686 618.4375 404.925 618.375L404.925 619.25Q404.5031 619.375 404.09686 619.375Q403.3781 619.375 403.0031 618.9375Q402.6281 618.4844 402.6281 617.6719L402.6281 613.75L401.47186 613.75L401.47186 612.90625L402.6281 612.90625L402.6281 611.375L403.72186 611.375ZM413.70624 616.3906L414.89374 616.3906L414.89374 617.2656L413.70624 617.2656L413.70624 619.25L412.6281 619.25L412.6281 617.2656L408.7375 617.2656L408.7375 616.625L412.55 610.71875L413.70624 610.71875L413.70624 616.3906ZM409.97186 616.3906L412.6281 616.3906L412.6281 612.2031L412.4875 612.4375L409.97186 616.3906Z" fill-rule="nonzero"/><path fill="#000000" d="M478.2875 615.3125L474.58438 615.3125L474.58438 618.3281L478.88126 618.3281L478.88126 619.25L473.45938 619.25L473.45938 610.71875L478.83438 610.71875L478.83438 611.6406L474.58438 611.6406L474.58438 614.3906L478.2875 614.3906L478.2875 615.3125ZM482.38126 617.78125L483.95938 612.90625L485.06876 612.90625L482.7875 619.25L481.95938 619.25L479.6625 612.90625L480.77188 612.90625L482.38126 617.78125ZM488.92813 619.375Q487.63126 619.375 486.81876 618.53125Q486.02188 617.6719 486.02188 616.25L486.02188 616.0625Q486.02188 615.1094 486.38126 614.375Q486.74063 613.625 487.38126 613.21875Q488.0375 612.7969 488.7875 612.7969Q490.02188 612.7969 490.70938 613.6094Q491.39688 614.4219 491.39688 615.9375L491.39688 616.3906L487.1 616.3906Q487.13126 617.3281 487.64688 617.90625Q488.17813 618.4844 488.99063 618.4844Q489.55313 618.4844 489.94376 618.25Q490.35 618.0156 490.6625 617.625L491.31876 618.1406Q490.52188 619.375 488.92813 619.375ZM488.7875 613.6875Q488.13126 613.6875 487.67813 614.1719Q487.24063 614.6406 487.14688 615.5L490.31876 615.5L490.31876 615.4219Q490.27188 614.59375 489.86563 614.1406Q489.475 613.6875 488.7875 613.6875ZM493.31876 612.90625L493.35 613.7031Q494.08438 612.7969 495.25626 612.7969Q497.27188 612.7969 497.2875 615.0625L497.2875 619.25L496.19376 619.25L496.19376 615.0469Q496.19376 614.375 495.88126 614.0469Q495.58438 613.71875 494.92813 613.71875Q494.39688 613.71875 493.99063 614.0Q493.6 614.28125 493.38126 614.7344L493.38126 619.25L492.30313 619.25L492.30313 612.90625L493.31876 612.90625ZM500.77188 611.375L500.77188 612.90625L501.94376 612.90625L501.94376 613.75L500.77188 613.75L500.77188 617.6719Q500.77188 618.0625 500.92813 618.25Q501.08438 618.4375 501.45938 618.4375Q501.64688 618.4375 501.975 618.375L501.975 619.25Q501.55313 619.375 501.14688 619.375Q500.42813 619.375 500.05313 618.9375Q499.67813 618.4844 499.67813 617.6719L499.67813 613.75L498.52188 613.75L498.52188 612.90625L499.67813 612.90625L499.67813 611.375L500.77188 611.375ZM506.67813 614.96875L507.11563 610.71875L511.49063 610.71875L511.49063 611.71875L508.0375 611.71875L507.77188 614.0469Q508.4125 613.6719 509.20938 613.6719Q510.36563 613.6719 511.05313 614.4531Q511.74063 615.21875 511.74063 616.53125Q511.74063 617.84375 511.02188 618.6094Q510.31876 619.375 509.0375 619.375Q507.9125 619.375 507.19376 618.75Q506.475 618.1094 506.38126 617.0L507.39688 617.0Q507.50626 617.7344 507.92813 618.1094Q508.35 618.4844 509.0375 618.4844Q509.7875 618.4844 510.225 617.96875Q510.6625 617.4531 510.6625 616.5469Q510.6625 615.6875 510.19376 615.1719Q509.725 614.65625 508.94376 614.65625Q508.24063 614.65625 507.83438 614.9531L507.55313 615.1875L506.67813 614.96875Z" fill-rule="nonzero"/><path fill="#000000" d="M575.3375 615.3125L571.6344 615.3125L571.6344 618.3281L575.9313 618.3281L575.9313 619.25L570.5094 619.25L570.5094 610.71875L575.8844 610.71875L575.8844 611.6406L571.6344 611.6406L571.6344 614.3906L575.3375 614.3906L575.3375 615.3125ZM579.4313 617.78125L581.0094 612.90625L582.1188 612.90625L579.8375 619.25L579.0094 619.25L576.7125 612.90625L577.8219 612.90625L579.4313 617.78125ZM585.97815 619.375Q584.6813 619.375 583.8688 618.53125Q583.0719 617.6719 583.0719 616.25L583.0719 616.0625Q583.0719 615.1094 583.4313 614.375Q583.79065 613.625 584.4313 613.21875Q585.0875 612.7969 585.8375 612.7969Q587.0719 612.7969 587.7594 613.6094Q588.4469 614.4219 588.4469 615.9375L588.4469 616.3906L584.15 616.3906Q584.1813 617.3281 584.6969 617.90625Q585.22815 618.4844 586.04065 618.4844Q586.60315 618.4844 586.9938 618.25Q587.4 618.0156 587.7125 617.625L588.3688 618.1406Q587.5719 619.375 585.97815 619.375ZM585.8375 613.6875Q585.1813 613.6875 584.72815 614.1719Q584.29065 614.6406 584.1969 615.5L587.3688 615.5L587.3688 615.4219Q587.3219 614.59375 586.91565 614.1406Q586.525 613.6875 585.8375 613.6875ZM590.3688 612.90625L590.4 613.7031Q591.1344 612.7969 592.3063 612.7969Q594.3219 612.7969 594.3375 615.0625L594.3375 619.25L593.2438 619.25L593.2438 615.0469Q593.2438 614.375 592.9313 614.0469Q592.6344 613.71875 591.97815 613.71875Q591.4469 613.71875 591.04065 614.0Q590.65 614.28125 590.4313 614.7344L590.4313 619.25L589.35315 619.25L589.35315 612.90625L590.3688 612.90625ZM597.8219 611.375L597.8219 612.90625L598.9938 612.90625L598.9938 613.75L597.8219 613.75L597.8219 617.6719Q597.8219 618.0625 597.97815 618.25Q598.1344 618.4375 598.5094 618.4375Q598.6969 618.4375 599.025 618.375L599.025 619.25Q598.60315 619.375 598.1969 619.375Q597.47815 619.375 597.10315 618.9375Q596.72815 618.4844 596.72815 617.6719L596.72815 613.75L595.5719 613.75L595.5719 612.90625L596.72815 612.90625L596.72815 611.375L597.8219 611.375ZM607.4938 610.71875L607.4938 611.625L607.29065 611.625Q606.025 611.65625 605.275 612.3906Q604.525 613.1094 604.4 614.4219Q605.0875 613.65625 606.2438 613.65625Q607.35315 613.65625 608.025 614.4375Q608.6969 615.21875 608.6969 616.46875Q608.6969 617.78125 607.97815 618.5781Q607.2594 619.375 606.04065 619.375Q604.8219 619.375 604.0563 618.4375Q603.3063 617.4844 603.3063 616.0L603.3063 615.59375Q603.3063 613.2344 604.3063 611.9844Q605.3063 610.7344 607.29065 610.71875L607.4938 610.71875ZM606.0719 614.5625Q605.5094 614.5625 605.04065 614.8906Q604.5719 615.21875 604.3844 615.7344L604.3844 616.125Q604.3844 617.1875 604.85315 617.8281Q605.3375 618.46875 606.04065 618.46875Q606.775 618.46875 607.1969 617.9375Q607.6188 617.3906 607.6188 616.5156Q607.6188 615.6406 607.1969 615.1094Q606.775 614.5625 606.0719 614.5625Z" fill-rule="nonzero"/><path fill="#000000" d="M672.3875 615.3125L668.6844 615.3125L668.6844 618.3281L672.98126 618.3281L672.98126 619.25L667.5594 619.25L667.5594 610.71875L672.9344 610.71875L672.9344 611.6406L668.6844 611.6406L668.6844 614.3906L672.3875 614.3906L672.3875 615.3125ZM676.48126 617.78125L678.0594 612.90625L679.16876 612.90625L676.8875 619.25L676.0594 619.25L673.7625 612.90625L674.8719 612.90625L676.48126 617.78125ZM683.02814 619.375Q681.73126 619.375 680.91876 618.53125Q680.1219 617.6719 680.1219 616.25L680.1219 616.0625Q680.1219 615.1094 680.48126 614.375Q680.84064 613.625 681.48126 613.21875Q682.1375 612.7969 682.8875 612.7969Q684.1219 612.7969 684.8094 613.6094Q685.4969 614.4219 685.4969 615.9375L685.4969 616.3906L681.2 616.3906Q681.23126 617.3281 681.7469 617.90625Q682.27814 618.4844 683.09064 618.4844Q683.65314 618.4844 684.04376 618.25Q684.45 618.0156 684.7625 617.625L685.41876 618.1406Q684.6219 619.375 683.02814 619.375ZM682.8875 613.6875Q682.23126 613.6875 681.77814 614.1719Q681.34064 614.6406 681.2469 615.5L684.41876 615.5L684.41876 615.4219Q684.3719 614.59375 683.96564 614.1406Q683.575 613.6875 682.8875 613.6875ZM687.41876 612.90625L687.45 613.7031Q688.1844 612.7969 689.35626 612.7969Q691.3719 612.7969 691.3875 615.0625L691.3875 619.25L690.29376 619.25L690.29376 615.0469Q690.29376 614.375 689.98126 614.0469Q689.6844 613.71875 689.02814 613.71875Q688.4969 613.71875 688.09064 614.0Q687.7 614.28125 687.48126 614.7344L687.48126 619.25L686.40314 619.25L686.40314 612.90625L687.41876 612.90625ZM694.8719 611.375L694.8719 612.90625L696.04376 612.90625L696.04376 613.75L694.8719 613.75L694.8719 617.6719Q694.8719 618.0625 695.02814 618.25Q695.1844 618.4375 695.5594 618.4375Q695.7469 618.4375 696.075 618.375L696.075 619.25Q695.65314 619.375 695.2469 619.375Q694.52814 619.375 694.15314 618.9375Q693.77814 618.4844 693.77814 617.6719L693.77814 613.75L692.6219 613.75L692.6219 612.90625L693.77814 612.90625L693.77814 611.375L694.8719 611.375ZM705.79376 611.3281L702.2625 619.25L701.1219 619.25L704.6375 611.6094L700.02814 611.6094L700.02814 610.71875L705.79376 610.71875L705.79376 611.3281Z" fill-rule="nonzero"/><path fill="#000000" d="M769.4375 615.3125L765.7344 615.3125L765.7344 618.3281L770.03125 618.3281L770.03125 619.25L764.6094 619.25L764.6094 610.71875L769.9844 610.71875L769.9844 611.6406L765.7344 611.6406L765.7344 614.3906L769.4375 614.3906L769.4375 615.3125ZM773.53125 617.78125L775.1094 612.90625L776.21875 612.90625L773.9375 619.25L773.1094 619.25L770.8125 612.90625L771.9219 612.90625L773.53125 617.78125ZM780.0781 619.375Q778.78125 619.375 777.96875 618.53125Q777.1719 617.6719 777.1719 616.25L777.1719 616.0625Q777.1719 615.1094 777.53125 614.375Q777.8906 613.625 778.53125 613.21875Q779.1875 612.7969 779.9375 612.7969Q781.1719 612.7969 781.8594 613.6094Q782.5469 614.4219 782.5469 615.9375L782.5469 616.3906L778.25 616.3906Q778.28125 617.3281 778.7969 617.90625Q779.3281 618.4844 780.1406 618.4844Q780.7031 618.4844 781.09375 618.25Q781.5 618.0156 781.8125 617.625L782.46875 618.1406Q781.6719 619.375 780.0781 619.375ZM779.9375 613.6875Q779.28125 613.6875 778.8281 614.1719Q778.3906 614.6406 778.2969 615.5L781.46875 615.5L781.46875 615.4219Q781.4219 614.59375 781.0156 614.1406Q780.625 613.6875 779.9375 613.6875ZM784.46875 612.90625L784.5 613.7031Q785.2344 612.7969 786.40625 612.7969Q788.4219 612.7969 788.4375 615.0625L788.4375 619.25L787.34375 619.25L787.34375 615.0469Q787.34375 614.375 787.03125 614.0469Q786.7344 613.71875 786.0781 613.71875Q785.5469 613.71875 785.1406 614.0Q784.75 614.28125 784.53125 614.7344L784.53125 619.25L783.4531 619.25L783.4531 612.90625L784.46875 612.90625ZM791.9219 611.375L791.9219 612.90625L793.09375 612.90625L793.09375 613.75L791.9219 613.75L791.9219 617.6719Q791.9219 618.0625 792.0781 618.25Q792.2344 618.4375 792.6094 618.4375Q792.7969 618.4375 793.125 618.375L793.125 619.25Q792.7031 619.375 792.2969 619.375Q791.5781 619.375 791.2031 618.9375Q790.8281 618.4844 790.8281 617.6719L790.8281 613.75L789.6719 613.75L789.6719 612.90625L790.8281 612.90625L790.8281 611.375L791.9219 611.375ZM802.5156 612.9375Q802.5156 613.5781 802.1719 614.0781Q801.8281 614.5781 801.2656 614.8594Q801.9219 615.1406 802.3125 615.7031Q802.7031 616.25 802.7031 616.9531Q802.7031 618.0469 801.9531 618.71875Q801.21875 619.375 800.0 619.375Q798.7656 619.375 798.0156 618.71875Q797.28125 618.0469 797.28125 616.9531Q797.28125 616.25 797.65625 615.7031Q798.03125 615.1406 798.7031 614.8594Q798.1406 614.5781 797.8125 614.0781Q797.4844 613.5781 797.4844 612.9375Q797.4844 611.8594 798.1719 611.2344Q798.8594 610.59375 800.0 610.59375Q801.125 610.59375 801.8125 611.2344Q802.5156 611.8594 802.5156 612.9375ZM801.625 616.9219Q801.625 616.2031 801.1719 615.7656Q800.71875 615.3125 799.9844 615.3125Q799.25 615.3125 798.7969 615.7656Q798.3594 616.2031 798.3594 616.9375Q798.3594 617.65625 798.7969 618.0781Q799.2344 618.4844 800.0 618.4844Q800.75 618.4844 801.1875 618.0625Q801.625 617.6406 801.625 616.9219ZM800.0 611.4844Q799.3594 611.4844 798.9531 611.8906Q798.5625 612.28125 798.5625 612.96875Q798.5625 613.6094 798.9531 614.0156Q799.34375 614.4219 799.9844 614.4219Q800.6406 614.4219 801.03125 614.0156Q801.4219 613.6094 801.4219 612.96875Q801.4219 612.3125 801.0156 611.90625Q800.6094 611.4844 800.0 611.4844Z" fill-rule="nonzero"/><path fill="#000000" d="M866.4875 615.3125L862.78436 615.3125L862.78436 618.3281L867.08124 618.3281L867.08124 619.25L861.65936 619.25L861.65936 610.71875L867.03436 610.71875L867.03436 611.6406L862.78436 611.6406L862.78436 614.3906L866.4875 614.3906L866.4875 615.3125ZM870.58124 617.78125L872.15936 612.90625L873.26874 612.90625L870.9875 619.25L870.15936 619.25L867.8625 612.90625L868.97186 612.90625L870.58124 617.78125ZM877.1281 619.375Q875.83124 619.375 875.01874 618.53125Q874.22186 617.6719 874.22186 616.25L874.22186 616.0625Q874.22186 615.1094 874.58124 614.375Q874.9406 613.625 875.58124 613.21875Q876.2375 612.7969 876.9875 612.7969Q878.22186 612.7969 878.90936 613.6094Q879.59686 614.4219 879.59686 615.9375L879.59686 616.3906L875.3 616.3906Q875.33124 617.3281 875.84686 617.90625Q876.3781 618.4844 877.1906 618.4844Q877.7531 618.4844 878.14374 618.25Q878.55 618.0156 878.8625 617.625L879.51874 618.1406Q878.72186 619.375 877.1281 619.375ZM876.9875 613.6875Q876.33124 613.6875 875.8781 614.1719Q875.4406 614.6406 875.34686 615.5L878.51874 615.5L878.51874 615.4219Q878.47186 614.59375 878.0656 614.1406Q877.675 613.6875 876.9875 613.6875ZM881.51874 612.90625L881.55 613.7031Q882.28436 612.7969 883.45624 612.7969Q885.47186 612.7969 885.4875 615.0625L885.4875 619.25L884.39374 619.25L884.39374 615.0469Q884.39374 614.375 884.08124 614.0469Q883.78436 613.71875 883.1281 613.71875Q882.59686 613.71875 882.1906 614.0Q881.8 614.28125 881.58124 614.7344L881.58124 619.25L880.5031 619.25L880.5031 612.90625L881.51874 612.90625ZM888.97186 611.375L888.97186 612.90625L890.14374 612.90625L890.14374 613.75L888.97186 613.75L888.97186 617.6719Q888.97186 618.0625 889.1281 618.25Q889.28436 618.4375 889.65936 618.4375Q889.84686 618.4375 890.175 618.375L890.175 619.25Q889.7531 619.375 889.34686 619.375Q888.6281 619.375 888.2531 618.9375Q887.8781 618.4844 887.8781 617.6719L887.8781 613.75L886.72186 613.75L886.72186 612.90625L887.8781 612.90625L887.8781 611.375L888.97186 611.375ZM898.53436 615.5Q898.20624 615.90625 897.72186 616.15625Q897.2531 616.3906 896.6906 616.3906Q895.95624 616.3906 895.40936 616.03125Q894.8625 615.6719 894.5656 615.0156Q894.26874 614.34375 894.26874 613.5469Q894.26874 612.7031 894.58124 612.0156Q894.90936 611.3281 895.5031 610.96875Q896.1125 610.59375 896.90936 610.59375Q898.175 610.59375 898.89374 611.5469Q899.6281 612.5 899.6281 614.125L899.6281 614.4375Q899.6281 616.9375 898.64374 618.0781Q897.65936 619.21875 895.675 619.25L895.45624 619.25L895.45624 618.34375L895.6906 618.34375Q897.03436 618.3125 897.7531 617.6406Q898.47186 616.96875 898.53436 615.5ZM896.8625 615.5Q897.40936 615.5 897.8625 615.1719Q898.33124 614.8281 898.55 614.34375L898.55 613.90625Q898.55 612.84375 898.08124 612.1719Q897.6125 611.5 896.90936 611.5Q896.1906 611.5 895.7531 612.0469Q895.33124 612.59375 895.33124 613.5Q895.33124 614.375 895.7375 614.9375Q896.15936 615.5 896.8625 615.5Z" fill-rule="nonzero"/><path fill="#000000" d="M960.0375 615.3125L956.33435 615.3125L956.33435 618.3281L960.6312 618.3281L960.6312 619.25L955.20935 619.25L955.20935 610.71875L960.58435 610.71875L960.58435 611.6406L956.33435 611.6406L956.33435 614.3906L960.0375 614.3906L960.0375 615.3125ZM964.1312 617.78125L965.70935 612.90625L966.8187 612.90625L964.5375 619.25L963.70935 619.25L961.4125 612.90625L962.52185 612.90625L964.1312 617.78125ZM970.6781 619.375Q969.3812 619.375 968.5687 618.53125Q967.77185 617.6719 967.77185 616.25L967.77185 616.0625Q967.77185 615.1094 968.1312 614.375Q968.4906 613.625 969.1312 613.21875Q969.7875 612.7969 970.5375 612.7969Q971.77185 612.7969 972.45935 613.6094Q973.14685 614.4219 973.14685 615.9375L973.14685 616.3906L968.85 616.3906Q968.8812 617.3281 969.39685 617.90625Q969.9281 618.4844 970.7406 618.4844Q971.3031 618.4844 971.6937 618.25Q972.1 618.0156 972.4125 617.625L973.0687 618.1406Q972.27185 619.375 970.6781 619.375ZM970.5375 613.6875Q969.8812 613.6875 969.4281 614.1719Q968.9906 614.6406 968.89685 615.5L972.0687 615.5L972.0687 615.4219Q972.02185 614.59375 971.6156 614.1406Q971.225 613.6875 970.5375 613.6875ZM975.0687 612.90625L975.1 613.7031Q975.83435 612.7969 977.0062 612.7969Q979.02185 612.7969 979.0375 615.0625L979.0375 619.25L977.9437 619.25L977.9437 615.0469Q977.9437 614.375 977.6312 614.0469Q977.33435 613.71875 976.6781 613.71875Q976.14685 613.71875 975.7406 614.0Q975.35 614.28125 975.1312 614.7344L975.1312 619.25L974.0531 619.25L974.0531 612.90625L975.0687 612.90625ZM982.52185 611.375L982.52185 612.90625L983.6937 612.90625L983.6937 613.75L982.52185 613.75L982.52185 617.6719Q982.52185 618.0625 982.6781 618.25Q982.83435 618.4375 983.20935 618.4375Q983.39685 618.4375 983.725 618.375L983.725 619.25Q983.3031 619.375 982.89685 619.375Q982.1781 619.375 981.8031 618.9375Q981.4281 618.4844 981.4281 617.6719L981.4281 613.75L980.27185 613.75L980.27185 612.90625L981.4281 612.90625L981.4281 611.375L982.52185 611.375ZM991.4906 619.25L990.4125 619.25L990.4125 612.03125L988.225 612.8281L988.225 611.84375L991.33435 610.6719L991.4906 610.6719L991.4906 619.25ZM1000.2875 615.6094Q1000.2875 617.5156 999.6312 618.4531Q998.9906 619.375 997.6 619.375Q996.2406 619.375 995.58435 618.46875Q994.9281 617.5625 994.89685 615.75L994.89685 614.3125Q994.89685 612.4219 995.5375 611.5156Q996.1937 610.59375 997.58435 610.59375Q998.95935 610.59375 999.6156 611.4844Q1000.27185 612.3594 1000.2875 614.2031L1000.2875 615.6094ZM999.1937 614.125Q999.1937 612.75 998.8031 612.125Q998.4281 611.4844 997.58435 611.4844Q996.7562 611.4844 996.3656 612.125Q995.9906 612.75 995.9906 614.0469L995.9906 615.78125Q995.9906 617.15625 996.3812 617.8281Q996.7875 618.4844 997.6 618.4844Q998.39685 618.4844 998.7875 617.8594Q999.1781 617.2344 999.1937 615.90625L999.1937 614.125Z" fill-rule="nonzero"/><path fill="#000000" d="M43.65625 45.6875Q43.40625 47.71875 42.140625 48.828125Q40.890625 49.921875 38.796875 49.921875Q36.53125 49.921875 35.15625 48.296875Q33.796875 46.671875 33.796875 43.953125L33.796875 42.71875Q33.796875 40.9375 34.4375 39.59375Q35.078125 38.234375 36.234375 37.515625Q37.40625 36.78125 38.953125 36.78125Q40.984375 36.78125 42.21875 37.921875Q43.453125 39.046875 43.65625 41.0625L41.953125 41.0625Q41.734375 39.53125 41.0 38.859375Q40.265625 38.171875 38.953125 38.171875Q37.328125 38.171875 36.40625 39.375Q35.5 40.5625 35.5 42.765625L35.5 44.0Q35.5 46.078125 36.359375 47.3125Q37.234375 48.546875 38.796875 48.546875Q40.203125 48.546875 40.953125 47.90625Q41.703125 47.265625 41.953125 45.6875L43.65625 45.6875ZM45.546875 44.90625Q45.546875 43.515625 46.09375 42.40625Q46.65625 41.28125 47.625 40.671875Q48.609375 40.0625 49.859375 40.0625Q51.8125 40.0625 53.0 41.40625Q54.203125 42.75 54.203125 44.984375L54.203125 45.09375Q54.203125 46.484375 53.671875 47.59375Q53.140625 48.6875 52.15625 49.3125Q51.171875 49.921875 49.890625 49.921875Q47.953125 49.921875 46.75 48.578125Q45.546875 47.234375 45.546875 45.015625L45.546875 44.90625ZM47.1875 45.09375Q47.1875 46.6875 47.921875 47.640625Q48.65625 48.59375 49.890625 48.59375Q51.125 48.59375 51.84375 47.625Q52.578125 46.65625 52.578125 44.90625Q52.578125 43.34375 51.828125 42.375Q51.09375 41.40625 49.859375 41.40625Q48.65625 41.40625 47.921875 42.359375Q47.1875 43.3125 47.1875 45.09375ZM61.515625 47.234375Q61.515625 46.5625 61.015625 46.203125Q60.53125 45.84375 59.296875 45.578125Q58.0625 45.3125 57.328125 44.953125Q56.609375 44.578125 56.25 44.0625Q55.90625 43.546875 55.90625 42.84375Q55.90625 41.6875 56.890625 40.875Q57.890625 40.0625 59.421875 40.0625Q61.046875 40.0625 62.046875 40.90625Q63.0625 41.734375 63.0625 43.03125L61.421875 43.03125Q61.421875 42.359375 60.84375 41.890625Q60.28125 41.40625 59.421875 41.40625Q58.53125 41.40625 58.03125 41.796875Q57.53125 42.171875 57.53125 42.796875Q57.53125 43.390625 58.0 43.6875Q58.46875 43.984375 59.6875 44.265625Q60.90625 44.53125 61.65625 44.90625Q62.421875 45.28125 62.78125 45.8125Q63.140625 46.34375 63.140625 47.109375Q63.140625 48.390625 62.125 49.15625Q61.109375 49.921875 59.484375 49.921875Q58.34375 49.921875 57.453125 49.515625Q56.578125 49.109375 56.078125 48.390625Q55.578125 47.671875 55.578125 46.828125L57.21875 46.828125Q57.25 47.640625 57.859375 48.125Q58.484375 48.59375 59.484375 48.59375Q60.40625 48.59375 60.953125 48.21875Q61.515625 47.84375 61.515625 47.234375ZM67.1875 37.9375L67.1875 40.234375L68.96875 40.234375L68.96875 41.5L67.1875 41.5L67.1875 47.390625Q67.1875 47.96875 67.421875 48.25Q67.65625 48.53125 68.234375 48.53125Q68.515625 48.53125 69.0 48.4375L69.0 49.75Q68.359375 49.921875 67.765625 49.921875Q66.671875 49.921875 66.109375 49.265625Q65.5625 48.609375 65.5625 47.390625L65.5625 41.5L63.828125 41.5L63.828125 40.234375L65.5625 40.234375L65.5625 37.9375L67.1875 37.9375ZM76.515625 47.234375Q76.515625 46.5625 76.015625 46.203125Q75.53125 45.84375 74.296875 45.578125Q73.0625 45.3125 72.328125 44.953125Q71.609375 44.578125 71.25 44.0625Q70.90625 43.546875 70.90625 42.84375Q70.90625 41.6875 71.890625 40.875Q72.890625 40.0625 74.421875 40.0625Q76.046875 40.0625 77.046875 40.90625Q78.0625 41.734375 78.0625 43.03125L76.421875 43.03125Q76.421875 42.359375 75.84375 41.890625Q75.28125 41.40625 74.421875 41.40625Q73.53125 41.40625 73.03125 41.796875Q72.53125 42.171875 72.53125 42.796875Q72.53125 43.390625 73.0 43.6875Q73.46875 43.984375 74.6875 44.265625Q75.90625 44.53125 76.65625 44.90625Q77.421875 45.28125 77.78125 45.8125Q78.140625 46.34375 78.140625 47.109375Q78.140625 48.390625 77.125 49.15625Q76.109375 49.921875 74.484375 49.921875Q73.34375 49.921875 72.453125 49.515625Q71.578125 49.109375 71.078125 48.390625Q70.578125 47.671875 70.578125 46.828125L72.21875 46.828125Q72.25 47.640625 72.859375 48.125Q73.484375 48.59375 74.484375 48.59375Q75.40625 48.59375 75.953125 48.21875Q76.515625 47.84375 76.515625 47.234375ZM83.546875 44.90625Q83.546875 43.515625 84.09375 42.40625Q84.65625 41.28125 85.625 40.671875Q86.609375 40.0625 87.859375 40.0625Q89.8125 40.0625 91.0 41.40625Q92.203125 42.75 92.203125 44.984375L92.203125 45.09375Q92.203125 46.484375 91.671875 47.59375Q91.140625 48.6875 90.15625 49.3125Q89.171875 49.921875 87.890625 49.921875Q85.953125 49.921875 84.75 48.578125Q83.546875 47.234375 83.546875 45.015625L83.546875 44.90625ZM85.1875 45.09375Q85.1875 46.6875 85.921875 47.640625Q86.65625 48.59375 87.890625 48.59375Q89.125 48.59375 89.84375 47.625Q90.578125 46.65625 90.578125 44.90625Q90.578125 43.34375 89.828125 42.375Q89.09375 41.40625 87.859375 41.40625Q86.65625 41.40625 85.921875 42.359375Q85.1875 43.3125 85.1875 45.09375ZM94.78125 49.75L94.78125 41.5L93.28125 41.5L93.28125 40.234375L94.78125 40.234375L94.78125 39.265625Q94.78125 37.734375 95.59375 36.90625Q96.421875 36.0625 97.90625 36.0625Q98.46875 36.0625 99.03125 36.21875L98.9375 37.53125Q98.53125 37.453125 98.0625 37.453125Q97.265625 37.453125 96.828125 37.921875Q96.40625 38.375 96.40625 39.234375L96.40625 40.234375L98.4375 40.234375L98.4375 41.5L96.40625 41.5L96.40625 49.75L94.78125 49.75ZM107.921875 49.921875Q106.0 49.921875 104.78125 48.65625Q103.5625 47.390625 103.5625 45.265625L103.5625 44.953125Q103.5625 43.546875 104.109375 42.4375Q104.65625 41.328125 105.625 40.703125Q106.59375 40.0625 107.71875 40.0625Q109.578125 40.0625 110.609375 41.28125Q111.640625 42.5 111.640625 44.78125L111.640625 45.453125L105.1875 45.453125Q105.234375 46.859375 106.015625 47.734375Q106.796875 48.59375 108.015625 48.59375Q108.875 48.59375 109.46875 48.25Q110.078125 47.890625 110.515625 47.3125L111.515625 48.09375Q110.3125 49.921875 107.921875 49.921875ZM107.71875 41.40625Q106.734375 41.40625 106.0625 42.125Q105.40625 42.828125 105.25 44.125L110.015625 44.125L110.015625 44.0Q109.9375 42.765625 109.34375 42.09375Q108.75 41.40625 107.71875 41.40625ZM117.125 47.546875L119.46875 40.234375L121.140625 40.234375L117.71875 49.75L116.484375 49.75L113.046875 40.234375L114.703125 40.234375L117.125 47.546875ZM126.921875 49.921875Q125.0 49.921875 123.78125 48.65625Q122.5625 47.390625 122.5625 45.265625L122.5625 44.953125Q122.5625 43.546875 123.109375 42.4375Q123.65625 41.328125 124.625 40.703125Q125.59375 40.0625 126.71875 40.0625Q128.57812 40.0625 129.60938 41.28125Q130.64062 42.5 130.64062 44.78125L130.64062 45.453125L124.1875 45.453125Q124.234375 46.859375 125.015625 47.734375Q125.796875 48.59375 127.015625 48.59375Q127.875 48.59375 128.46875 48.25Q129.07812 47.890625 129.51562 47.3125L130.51562 48.09375Q129.3125 49.921875 126.921875 49.921875ZM126.71875 41.40625Q125.734375 41.40625 125.0625 42.125Q124.40625 42.828125 124.25 44.125L129.01562 44.125L129.01562 44.0Q128.9375 42.765625 128.34375 42.09375Q127.75 41.40625 126.71875 41.40625ZM134.51562 40.234375L134.57812 41.4375Q135.65625 40.0625 137.42188 40.0625Q140.4375 40.0625 140.45312 43.46875L140.45312 49.75L138.82812 49.75L138.82812 43.453125Q138.82812 42.421875 138.35938 41.9375Q137.90625 41.4375 136.92188 41.4375Q136.14062 41.4375 135.53125 41.859375Q134.9375 42.28125 134.60938 42.96875L134.60938 49.75L132.98438 49.75L132.98438 40.234375L134.51562 40.234375ZM145.1875 37.9375L145.1875 40.234375L146.96875 40.234375L146.96875 41.5L145.1875 41.5L145.1875 47.390625Q145.1875 47.96875 145.42188 48.25Q145.65625 48.53125 146.23438 48.53125Q146.51562 48.53125 147.0 48.4375L147.0 49.75Q146.35938 49.921875 145.76562 49.921875Q144.67188 49.921875 144.10938 49.265625Q143.5625 48.609375 143.5625 47.390625L143.5625 41.5L141.82812 41.5L141.82812 40.234375L143.5625 40.234375L143.5625 37.9375L145.1875 37.9375ZM154.51562 47.234375Q154.51562 46.5625 154.01562 46.203125Q153.53125 45.84375 152.29688 45.578125Q151.0625 45.3125 150.32812 44.953125Q149.60938 44.578125 149.25 44.0625Q148.90625 43.546875 148.90625 42.84375Q148.90625 41.6875 149.89062 40.875Q150.89062 40.0625 152.42188 40.0625Q154.04688 40.0625 155.04688 40.90625Q156.0625 41.734375 156.0625 43.03125L154.42188 43.03125Q154.42188 42.359375 153.84375 41.890625Q153.28125 41.40625 152.42188 41.40625Q151.53125 41.40625 151.03125 41.796875Q150.53125 42.171875 150.53125 42.796875Q150.53125 43.390625 151.0 43.6875Q151.46875 43.984375 152.6875 44.265625Q153.90625 44.53125 154.65625 44.90625Q155.42188 45.28125 155.78125 45.8125Q156.14062 46.34375 156.14062 47.109375Q156.14062 48.390625 155.125 49.15625Q154.10938 49.921875 152.48438 49.921875Q151.34375 49.921875 150.45312 49.515625Q149.57812 49.109375 149.07812 48.390625Q148.57812 47.671875 148.57812 46.828125L150.21875 46.828125Q150.25 47.640625 150.85938 48.125Q151.48438 48.59375 152.48438 48.59375Q153.40625 48.59375 153.95312 48.21875Q154.51562 47.84375 154.51562 47.234375ZM161.54688 44.90625Q161.54688 43.515625 162.09375 42.40625Q162.65625 41.28125 163.625 40.671875Q164.60938 40.0625 165.85938 40.0625Q167.8125 40.0625 169.0 41.40625Q170.20312 42.75 170.20312 44.984375L170.20312 45.09375Q170.20312 46.484375 169.67188 47.59375Q169.14062 48.6875 168.15625 49.3125Q167.17188 49.921875 165.89062 49.921875Q163.95312 49.921875 162.75 48.578125Q161.54688 47.234375 161.54688 45.015625L161.54688 44.90625ZM163.1875 45.09375Q163.1875 46.6875 163.92188 47.640625Q164.65625 48.59375 165.89062 48.59375Q167.125 48.59375 167.84375 47.625Q168.57812 46.65625 168.57812 44.90625Q168.57812 43.34375 167.82812 42.375Q167.09375 41.40625 165.85938 41.40625Q164.65625 41.40625 163.92188 42.359375Q163.1875 43.3125 163.1875 45.09375ZM175.125 47.546875L177.46875 40.234375L179.14062 40.234375L175.71875 49.75L174.48438 49.75L171.04688 40.234375L172.70312 40.234375L175.125 47.546875ZM184.92188 49.921875Q183.0 49.921875 181.78125 48.65625Q180.5625 47.390625 180.5625 45.265625L180.5625 44.953125Q180.5625 43.546875 181.10938 42.4375Q181.65625 41.328125 182.625 40.703125Q183.59375 40.0625 184.71875 40.0625Q186.57812 40.0625 187.60938 41.28125Q188.64062 42.5 188.64062 44.78125L188.64062 45.453125L182.1875 45.453125Q182.23438 46.859375 183.01562 47.734375Q183.79688 48.59375 185.01562 48.59375Q185.875 48.59375 186.46875 48.25Q187.07812 47.890625 187.51562 47.3125L188.51562 48.09375Q187.3125 49.921875 184.92188 49.921875ZM184.71875 41.40625Q183.73438 41.40625 183.0625 42.125Q182.40625 42.828125 182.25 44.125L187.01562 44.125L187.01562 44.0Q186.9375 42.765625 186.34375 42.09375Q185.75 41.40625 184.71875 41.40625ZM195.57812 41.703125Q195.20312 41.640625 194.78125 41.640625Q193.17188 41.640625 192.60938 43.0L192.60938 49.75L190.98438 49.75L190.98438 40.234375L192.5625 40.234375L192.59375 41.34375Q193.39062 40.0625 194.85938 40.0625Q195.32812 40.0625 195.57812 40.1875L195.57812 41.703125ZM203.1875 37.9375L203.1875 40.234375L204.96875 40.234375L204.96875 41.5L203.1875 41.5L203.1875 47.390625Q203.1875 47.96875 203.42188 48.25Q203.65625 48.53125 204.23438 48.53125Q204.51562 48.53125 205.0 48.4375L205.0 49.75Q204.35938 49.921875 203.76562 49.921875Q202.67188 49.921875 202.10938 49.265625Q201.5625 48.609375 201.5625 47.390625L201.5625 41.5L199.82812 41.5L199.82812 40.234375L201.5625 40.234375L201.5625 37.9375L203.1875 37.9375ZM208.75 49.75L207.125 49.75L207.125 40.234375L208.75 40.234375L208.75 49.75ZM206.98438 37.71875Q206.98438 37.328125 207.21875 37.0625Q207.46875 36.78125 207.9375 36.78125Q208.42188 36.78125 208.67188 37.0625Q208.92188 37.328125 208.92188 37.71875Q208.92188 38.109375 208.67188 38.375Q208.42188 38.640625 207.9375 38.640625Q207.46875 38.640625 207.21875 38.375Q206.98438 38.109375 206.98438 37.71875ZM212.51562 40.234375L212.54688 41.296875Q213.59375 40.0625 215.375 40.0625Q217.375 40.0625 218.09375 41.59375Q218.5625 40.90625 219.32812 40.484375Q220.09375 40.0625 221.125 40.0625Q224.25 40.0625 224.3125 43.375L224.3125 49.75L222.67188 49.75L222.67188 43.46875Q222.67188 42.453125 222.20312 41.953125Q221.75 41.4375 220.65625 41.4375Q219.75 41.4375 219.14062 41.984375Q218.54688 42.53125 218.45312 43.4375L218.45312 49.75L216.8125 49.75L216.8125 43.515625Q216.8125 41.4375 214.78125 41.4375Q213.1875 41.4375 212.59375 42.8125L212.59375 49.75L210.96875 49.75L210.96875 40.234375L212.51562 40.234375ZM230.92188 49.921875Q229.0 49.921875 227.78125 48.65625Q226.5625 47.390625 226.5625 45.265625L226.5625 44.953125Q226.5625 43.546875 227.10938 42.4375Q227.65625 41.328125 228.625 40.703125Q229.59375 40.0625 230.71875 40.0625Q232.57812 40.0625 233.60938 41.28125Q234.64062 42.5 234.64062 44.78125L234.64062 45.453125L228.1875 45.453125Q228.23438 46.859375 229.01562 47.734375Q229.79688 48.59375 231.01562 48.59375Q231.875 48.59375 232.46875 48.25Q233.07812 47.890625 233.51562 47.3125L234.51562 48.09375Q233.3125 49.921875 230.92188 49.921875ZM230.71875 41.40625Q229.73438 41.40625 229.0625 42.125Q228.40625 42.828125 228.25 44.125L233.01562 44.125L233.01562 44.0Q232.9375 42.765625 232.34375 42.09375Q231.75 41.40625 230.71875 41.40625Z" fill-rule="nonzero"/></svg>